<?xml version="1.0" standalone="no"?>
<!DOCTYPE svg PUBLIC "-//W3C//DTD SVG 1.1//EN" "http://www.w3.org/Graphics/SVG/1.1/DTD/svg11.dtd" >
<svg xmlns="http://www.w3.org/2000/svg" xmlns:xlink="http://www.w3.org/1999/xlink" version="1.1">
<metadata>
Created by FontForge 20150102 at Tue Mar 17 14:51:23 2015
 By uniteet7
Copyright (c) Christian Schwartz, 2007. All rights reserved.
</metadata>
<defs>
<font id="StagSansThin" horiz-adv-x="410" >
  <font-face 
    font-family="StagSansThin"
    font-weight="250"
    font-stretch="normal"
    units-per-em="1000"
    panose-1="2 11 4 3 4 0 0 2 0 4"
    ascent="800"
    descent="-200"
    x-height="520"
    cap-height="700"
    bbox="-165 -173 971 902"
    underline-thickness="50"
    underline-position="-50"
    unicode-range="U+0020-FB02"
  />
<missing-glyph horiz-adv-x="500" 
 />
    <glyph glyph-name="f_f" unicode="ff" horiz-adv-x="502" 
d="M18 504v16h70v49q0 125 108 125q37 0 57 -5v-13h-57q-89 0 -89 -107v-49h225v55q0 125 108 125q37 0 57 -5v-13h-57q-89 0 -89 -107v-55h133v-16h-133v-504h-19v504h-225v-504h-19v504h-70z" />
    <glyph glyph-name=".notdef" horiz-adv-x="500" 
 />
    <glyph glyph-name=".null" horiz-adv-x="0" 
 />
    <glyph glyph-name="nonmarkingreturn" horiz-adv-x="333" 
 />
    <glyph glyph-name="space" unicode=" " horiz-adv-x="214" 
 />
    <glyph glyph-name="exclam" unicode="!" horiz-adv-x="192" 
d="M88 118l-3 567v15h22v-15l-3 -567h-16zM96 -3q-9 0 -15 6t-6 15t6 15t15 6t15 -6t6 -15t-6 -15t-15 -6z" />
    <glyph glyph-name="quotedbl" unicode="&#x22;" horiz-adv-x="162" 
d="M35 545l-3 122v33h23v-33l-3 -122h-17zM110 545l-3 122v33h23v-33l-3 -122h-17z" />
    <glyph glyph-name="numbersign" unicode="#" horiz-adv-x="450" 
d="M53 432v18h90l37 250h18l-37 -250h152l37 250h18l-37 -250h89v-18h-91l-20 -137h88v-18h-91l-40 -277h-18l40 277h-152l-40 -277h-18l40 277h-88v18h91l20 137h-88zM159 432l-20 -137h152l20 137h-152z" />
    <glyph glyph-name="dollar" unicode="$" horiz-adv-x="491" 
d="M253 764v-61q58 -1 96.5 -16t79.5 -45v-17h-14q-66 59 -162 61v-313q41 -12 63.5 -19.5t53 -23t46.5 -33t27.5 -45t11.5 -63.5q0 -95 -55.5 -142.5t-146.5 -49.5v-99h-18v99q-74 1 -120 17t-88 47v18h14q69 -64 194 -65v345q-39 11 -58.5 17.5t-49.5 21.5t-44.5 31.5
t-26 44t-11.5 62.5q0 71 48 118t142 49v61h18zM435 189q0 40 -13 68t-43 46.5t-54.5 27.5t-71.5 23v-340q84 2 133 44.5t49 130.5zM64 537q0 -32 10 -56.5t22.5 -39.5t39 -28t45 -19t54.5 -16v308q-86 -2 -128.5 -43.5t-42.5 -105.5z" />
    <glyph glyph-name="percent" unicode="%" horiz-adv-x="681" 
d="M183 382q57 0 91 40t34 112t-34.5 112.5t-90.5 40.5t-90.5 -40.5t-34.5 -112.5t34 -112t91 -40zM183 366q-62 0 -103.5 44t-41.5 124t41.5 124.5t103.5 44.5t103.5 -44.5t41.5 -124.5t-41.5 -124t-103.5 -44zM597 729l-492 -763h-21l492 763h21zM498 13q57 0 91 40
t34 112t-34.5 112.5t-90.5 40.5t-90.5 -40.5t-34.5 -112.5t34 -112t91 -40zM498 -3q-62 0 -103.5 44t-41.5 124t41.5 124.5t103.5 44.5t103.5 -44.5t41.5 -124.5t-41.5 -124t-103.5 -44z" />
    <glyph glyph-name="ampersand" unicode="&#x26;" horiz-adv-x="630" 
d="M576 0l-93 103q-78 -106 -210 -106q-108 0 -168 57.5t-60 141.5q0 80 46 136t119 80q-20 26 -30 41t-19.5 42.5t-9.5 56.5q0 66 45.5 108.5t119.5 42.5q79 0 138 -59v-17h-15q-49 59 -122 59q-66 0 -106 -37t-40 -97q0 -34 13 -64.5t24.5 -45.5t45.5 -53q7 -9 11 -13
l217 -244q59 95 79 241h17v-11q-22 -147 -84 -243l99 -111v-8h-17zM273 14q125 0 199 102l-251 282q-156 -52 -156 -202q0 -77 52 -129.5t156 -52.5z" />
    <glyph glyph-name="quotesingle" unicode="'" horiz-adv-x="87" 
d="M35 545l-3 122v33h23v-33l-3 -122h-17z" />
    <glyph glyph-name="parenleft" unicode="(" horiz-adv-x="284" 
d="M257 741v-12q-185 -111 -185 -378q0 -277 185 -388v-12h-11q-31 17 -61 45.5t-62 75t-51.5 119t-19.5 160.5q0 87 19.5 158.5t52 116.5t61.5 71t61 44h11z" />
    <glyph glyph-name="parenright" unicode=")" horiz-adv-x="284" 
d="M27 729v12h11q31 -17 61 -45.5t62 -75t51.5 -119t19.5 -160.5q0 -87 -19.5 -158.5t-52 -116.5t-61.5 -71t-61 -44h-11v12q185 111 185 378q0 277 -185 388z" />
    <glyph glyph-name="asterisk" unicode="*" horiz-adv-x="356" 
d="M298 575l-108 -34l71 -91l17 -23l-16 -11l-17 22l-67 96l-67 -96l-17 -22l-16 11l17 23l71 91l-108 34l-27 9l6 19l27 -9l107 -41l-3 118v29h20v-29l-3 -118l107 41l27 9l6 -19z" />
    <glyph glyph-name="plus" unicode="+" horiz-adv-x="456" 
d="M415 337h-177v-188h-19v188h-178v17h178v188h19v-188h177v-17z" />
    <glyph glyph-name="comma" unicode="," horiz-adv-x="110" 
d="M21 -68q36 14 36 49q0 11 -12 18q-11 8 -11 20q0 8 6 14t14 6q25 0 25 -36q0 -71 -58 -86v15z" />
    <glyph glyph-name="hyphen" unicode="-" horiz-adv-x="211" 
d="M25 289v17h161v-17h-161z" />
    <glyph glyph-name="period" unicode="." horiz-adv-x="110" 
d="M55 -3q-9 0 -15 6t-6 15t6 15t15 6t15 -6t6 -15t-6 -15t-15 -6z" />
    <glyph glyph-name="slash" unicode="/" horiz-adv-x="292" 
d="M16 -49v7l240 783h17v-7l-240 -783h-17z" />
    <glyph glyph-name="zero" unicode="0" horiz-adv-x="639" 
d="M320 -3q-119 0 -197.5 92t-78.5 261t78.5 261t197.5 92t197 -92t78 -261t-78 -261t-197 -92zM320 14q114 0 184.5 87t70.5 249q0 161 -70.5 248.5t-184.5 87.5t-185 -87.5t-71 -248.5q0 -162 70.5 -249t185.5 -87z" />
    <glyph glyph-name="one" unicode="1" horiz-adv-x="277" 
d="M173 0h-20v678l-128 -72h-12v12l146 82h14v-700z" />
    <glyph glyph-name="two" unicode="2" horiz-adv-x="497" 
d="M449 17v-17h-420v17l216 218q91 92 136 157t45 130q0 77 -42.5 120.5t-124.5 43.5q-108 0 -185 -81h-14v15q83 83 199 83q92 0 139.5 -49t47.5 -132q0 -70 -46.5 -136t-142.5 -163l-204 -206h396z" />
    <glyph glyph-name="three" unicode="3" horiz-adv-x="487" 
d="M223 -3q-120 0 -197 70v17h15q66 -70 182 -70q101 0 151.5 48.5t50.5 136.5q0 82 -53.5 120.5t-134.5 38.5h-67v17h59q80 0 128.5 40t48.5 116q0 155 -173 155q-107 0 -171 -62h-13v16q75 63 184 63q93 0 143 -45t50 -127q0 -66 -37 -109.5t-97 -53.5v-1q68 -9 110.5 -53
t42.5 -115q0 -97 -55.5 -149.5t-166.5 -52.5z" />
    <glyph glyph-name="four" unicode="4" horiz-adv-x="532" 
d="M414 0h-20v193h-371v20l376 487h15v-490h94v-17h-94v-193zM46 211v-1h348v452h-1z" />
    <glyph glyph-name="five" unicode="5" horiz-adv-x="506" 
d="M463 240q0 -109 -68.5 -176t-178.5 -67q-111 0 -188 67v16h14q64 -66 174 -66q104 0 165.5 61t61.5 165q0 99 -52 147t-135 48q-116 0 -178 -82h-20v347h372v-17h-353v-307h2q23 29 69.5 52.5t107.5 23.5q88 0 147.5 -53.5t59.5 -158.5z" />
    <glyph glyph-name="six" unicode="6" horiz-adv-x="565" 
d="M298 -3q-111 0 -182.5 83.5t-71.5 254.5q0 176 87.5 272t222.5 96q82 0 137 -31v-17h-13q-38 32 -124 32q-128 0 -209 -91t-81 -261q0 -26 1 -38q39 54 104 88t136 34q95 0 157.5 -49t62.5 -150q0 -105 -63 -164t-164 -59zM305 403q-70 0 -134.5 -35.5t-104.5 -92.5
q12 -133 74.5 -196.5t157.5 -63.5q93 0 150 53.5t57 151.5q0 94 -56.5 138.5t-143.5 44.5z" />
    <glyph glyph-name="seven" unicode="7" horiz-adv-x="494" 
d="M128 0v15l325 667v1h-418v17h436v-20l-326 -680h-17z" />
    <glyph glyph-name="eight" unicode="8" horiz-adv-x="548" 
d="M273 -3q-113 0 -173.5 52.5t-60.5 138.5q0 72 46 123.5t125 62.5v2q-62 12 -99.5 55t-37.5 103q0 74 53.5 121.5t146.5 47.5t146.5 -47.5t53.5 -121.5q0 -59 -37.5 -102t-98.5 -56v-2q80 -12 126 -63t46 -123q0 -86 -61.5 -138.5t-174.5 -52.5zM273 14q105 0 160 47
t55 127t-56 129t-159 49t-158.5 -49t-55.5 -129t54.5 -127t159.5 -47zM273 383q85 0 133 41t48 110t-48 110.5t-133 41.5t-132.5 -41.5t-47.5 -110.5t47.5 -110t132.5 -41z" />
    <glyph glyph-name="nine" unicode="9" horiz-adv-x="561" 
d="M210 -3q-90 0 -143 30v17h13q36 -31 130 -31q132 0 209.5 90t77.5 262q0 7 -0.5 19t-0.5 19q-39 -55 -104 -88.5t-136 -33.5q-94 0 -157 50.5t-63 151.5q0 104 64 162t165 58q111 0 181.5 -83.5t70.5 -254.5q0 -178 -83.5 -273t-223.5 -95zM256 297q69 0 133.5 35.5
t104.5 92.5q-11 133 -73 196.5t-156 63.5q-93 0 -151 -52.5t-58 -149.5q0 -94 56.5 -140t143.5 -46z" />
    <glyph glyph-name="colon" unicode=":" horiz-adv-x="118" 
d="M59 317q-9 0 -15 6t-6 15t6 15t15 6t15 -6t6 -15t-6 -15t-15 -6zM59 -3q-9 0 -15 6t-6 15t6 15t15 6t15 -6t6 -15t-6 -15t-15 -6z" />
    <glyph glyph-name="semicolon" unicode=";" horiz-adv-x="118" 
d="M59 317q-9 0 -15 6t-6 15t6 15t15 6t15 -6t6 -15t-6 -15t-15 -6zM25 -68q36 14 36 49q0 11 -12 18q-11 8 -11 20q0 8 6 14t14 6q25 0 25 -36q0 -71 -58 -86v15z" />
    <glyph glyph-name="less" unicode="&#x3c;" horiz-adv-x="456" 
d="M36 321v17l368 198h12v-13l-361 -193v-1l361 -194v-13h-12z" />
    <glyph glyph-name="equal" unicode="=" horiz-adv-x="477" 
d="M442 382h-407v15h407v-15zM442 232h-407v15h407v-15z" />
    <glyph glyph-name="greater" unicode="&#x3e;" horiz-adv-x="456" 
d="M420 337v-17l-368 -198h-12v13l361 193v1l-361 194v13h12z" />
    <glyph glyph-name="question" unicode="?" horiz-adv-x="431" 
d="M159 118q-3 26 -3 48t1.5 39t8 33.5t12 28.5t17 27.5t20.5 25.5t25 28q7 7 36.5 35t39 39t27 34.5t23.5 45t6 46.5q0 139 -148 139q-113 0 -165 -64h-14v16q71 64 179 64q168 0 168 -155q0 -28 -7 -51.5t-24 -46.5t-29.5 -37t-40 -40.5t-39.5 -38.5q-33 -34 -47.5 -54.5
t-24 -62t-3.5 -99.5h-18zM171 -3q-9 0 -15 6t-6 15t6 15t15 6t15 -6t6 -15t-6 -15t-15 -6z" />
    <glyph glyph-name="at" unicode="@" horiz-adv-x="861" 
d="M481 469q64 0 104 -32q8 32 20 32h6l-66 -275q-24 -104 64 -104q74 0 133 60.5t59 184.5q0 143 -95.5 222t-248.5 79q-70 0 -139.5 -26t-127.5 -73t-94 -123t-36 -167q0 -90 28.5 -157.5t79 -107.5t114.5 -59.5t140 -19.5q77 0 146 20t110 54h13v-15q-105 -75 -269 -75
q-62 0 -117 12t-104 40t-84 69t-55.5 102t-20.5 137q0 95 37.5 174t98 128t133.5 76t147 27q158 0 260.5 -83.5t102.5 -233.5q0 -128 -64.5 -194.5t-146.5 -66.5q-102 0 -85 103q-27 -31 -48 -50.5t-56.5 -37.5t-71.5 -18q-49 0 -79.5 32t-30.5 90q0 101 72 188.5t171 87.5z
M349 87q35 0 71 19.5t54.5 37.5t53.5 56l53 221q-38 32 -100 32q-90 0 -157 -81t-67 -179q0 -54 25 -80t67 -26z" />
    <glyph glyph-name="A" unicode="A" horiz-adv-x="594" 
d="M36 0v14l249 686h27l246 -686v-14h-15l-85 235h-323l-85 -235h-14zM297 681l-156 -429h311l-153 429h-2z" />
    <glyph glyph-name="B" unicode="B" horiz-adv-x="578" 
d="M97 0v700h185q213 0 213 -169q0 -137 -144 -161v-1q81 -7 131.5 -50.5t50.5 -130.5q0 -97 -63.5 -142.5t-169.5 -45.5h-203zM117 18h183q96 0 154.5 40.5t58.5 129.5q0 171 -228 171h-168v-341zM117 377h162q87 0 141.5 36t54.5 118q0 151 -193 151h-165v-305z" />
    <glyph glyph-name="C" unicode="C" horiz-adv-x="623" 
d="M349 -3q-131 0 -211.5 93.5t-80.5 262.5q0 85 24.5 152.5t66 110t94.5 65t113 22.5q78 0 123 -20.5t91 -61.5v-17h-14q-68 82 -199 82q-121 0 -200 -86.5t-79 -245.5q0 -163 73.5 -251.5t198.5 -88.5q147 0 219 95h14v-17q-44 -45 -97.5 -70t-135.5 -25z" />
    <glyph glyph-name="D" unicode="D" horiz-adv-x="670" 
d="M97 0v700h176q176 0 261.5 -82.5t85.5 -267.5t-85.5 -267.5t-261.5 -82.5h-176zM117 18h156q169 0 248 77t79 255t-79 255t-248 77h-156v-664z" />
    <glyph glyph-name="E" unicode="E" horiz-adv-x="553" 
d="M97 0v700h404v-17h-384v-311h293v-17h-293v-338h398v-17h-418z" />
    <glyph glyph-name="F" unicode="F" horiz-adv-x="539" 
d="M117 0h-20v700h401v-17h-381v-331h280v-17h-280v-335z" />
    <glyph glyph-name="G" unicode="G" horiz-adv-x="678" 
d="M369 -3q-149 0 -234 90.5t-85 265.5q0 171 91.5 260.5t227.5 89.5q130 0 204 -61v-17h-14q-62 62 -190 62q-132 0 -214.5 -84.5t-82.5 -248.5q0 -168 77.5 -253.5t219.5 -85.5q122 0 203 50v251h-167v17h188v-278q-99 -58 -224 -58z" />
    <glyph glyph-name="H" unicode="H" horiz-adv-x="687" 
d="M117 0h-20v700h20v-329h453v329h20v-700h-20v354h-453v-354z" />
    <glyph glyph-name="I" unicode="I" horiz-adv-x="218" 
d="M119 0h-20v700h20v-700z" />
    <glyph glyph-name="J" unicode="J" horiz-adv-x="400" 
d="M149 -4q-77 0 -129 37v18h12q38 -38 117 -38q138 0 138 136v551h20v-551q0 -153 -158 -153z" />
    <glyph glyph-name="K" unicode="K" horiz-adv-x="607" 
d="M97 0v700h20v-435l407 435h12v-12l-259 -277l283 -398v-13h-14l-282 397l-147 -157v-240h-20z" />
    <glyph glyph-name="L" unicode="L" horiz-adv-x="546" 
d="M507 0h-410v700h20v-683h390v-17z" />
    <glyph glyph-name="M" unicode="M" horiz-adv-x="802" 
d="M97 0v700h40l264 -672h1l264 672h39v-700h-20v685h-5l-270 -685h-19l-269 685h-5v-685h-20z" />
    <glyph glyph-name="N" unicode="N" horiz-adv-x="680" 
d="M97 0v700h30l436 -666h1v666h19v-700h-20l-446 681h-1v-681h-19z" />
    <glyph glyph-name="O" unicode="O" horiz-adv-x="713" 
d="M357 -3q-132 0 -219.5 93.5t-87.5 259.5t87.5 259.5t219.5 93.5t219 -93.5t87 -259.5t-87 -259.5t-219 -93.5zM357 14q125 0 205.5 88.5t80.5 247.5q0 158 -80.5 247t-205.5 89t-206 -89t-81 -247q0 -159 80.5 -247.5t206.5 -88.5z" />
    <glyph glyph-name="P" unicode="P" horiz-adv-x="545" 
d="M97 0v700h166q113 0 175.5 -44.5t62.5 -149.5q0 -106 -60.5 -151.5t-177.5 -45.5h-146v-309h-20zM117 682v-355h146q109 0 163.5 39.5t54.5 139.5q0 98 -56.5 137t-161.5 39h-146z" />
    <glyph glyph-name="Q" unicode="Q" horiz-adv-x="721" 
d="M652 -80l-353 80q-111 25 -180 114.5t-69 235.5q0 166 87.5 259.5t219.5 93.5t219 -93.5t87 -259.5q0 -157 -78.5 -250t-206.5 -101v-2l290 -60v-17h-16zM359 14q125 0 204.5 88.5t79.5 247.5q0 158 -80.5 247t-205.5 89t-206 -89t-81 -247q0 -159 81.5 -247.5
t207.5 -88.5z" />
    <glyph glyph-name="R" unicode="R" horiz-adv-x="592" 
d="M525 0l-181 339q-40 -5 -77 -5h-150v-334h-20v700h170q230 0 230 -184q0 -142 -132 -173l176 -330v-13h-16zM117 682v-330h150q106 0 158 34.5t52 129.5q0 93 -55 129.5t-155 36.5h-150z" />
    <glyph glyph-name="S" unicode="S" horiz-adv-x="511" 
d="M245 -3q-77 0 -124.5 16.5t-93.5 47.5v18h14q75 -65 203 -65q91 0 145 42t54 133q0 33 -11 58t-26 40.5t-44 29t-49.5 20t-58.5 17.5l-6 1.5t-5.5 1.5t-6.5 2q-39 11 -58.5 17.5t-49.5 21.5t-45 31.5t-26.5 44t-11.5 62.5q0 73 51 120t148 47q63 0 104.5 -15t83.5 -46
v-17h-14q-66 61 -174 61q-90 0 -135 -42t-45 -107q0 -24 5.5 -43.5t12.5 -33t23 -26t26.5 -19t35 -15.5t35.5 -12.5t41 -11.5l49 -14t43.5 -14.5t42.5 -18.5t33 -23t29 -30.5t16 -37.5t7 -49q0 -98 -59.5 -145t-158.5 -47z" />
    <glyph glyph-name="T" unicode="T" horiz-adv-x="554" 
d="M287 0h-20v683h-241v17h502v-17h-241v-683z" />
    <glyph glyph-name="U" unicode="U" horiz-adv-x="678" 
d="M342 14q224 0 224 207v479h20v-478q0 -63 -20 -108t-55 -70t-77 -36t-93 -11t-93.5 11t-78.5 35.5t-56.5 70t-20.5 108.5v478h20v-479q0 -111 63.5 -159t166.5 -48z" />
    <glyph glyph-name="V" unicode="V" horiz-adv-x="595" 
d="M288 0l-254 686v14h15l248 -671h2l247 671h15v-14l-254 -686h-19z" />
    <glyph glyph-name="W" unicode="W" horiz-adv-x="888" 
d="M228 0l-191 688v12h17l183 -659h3l195 659h18l195 -659h3l182 659h18v-12l-192 -688h-20l-195 662h-1l-195 -662h-20z" />
    <glyph glyph-name="X" unicode="X" horiz-adv-x="573" 
d="M43 0v13l233 349l-215 325v13h14l213 -324l212 324h12v-13l-213 -327l230 -347v-13h-13l-230 346l-230 -346h-13z" />
    <glyph glyph-name="Y" unicode="Y" horiz-adv-x="539" 
d="M279 0h-20v299l-229 388v13h14l225 -383h1l226 383h13v-13l-230 -388v-299z" />
    <glyph glyph-name="Z" unicode="Z" horiz-adv-x="592" 
d="M51 0v18l468 664v1h-441v17h463v-19l-468 -663v-1h453v-17h-475z" />
    <glyph glyph-name="bracketleft" unicode="[" horiz-adv-x="268" 
d="M87 -49v790h150v-16h-131v-758h131v-16h-150z" />
    <glyph glyph-name="backslash" unicode="\" horiz-adv-x="292" 
d="M276 -42v-7h-17l-240 783v7h17z" />
    <glyph glyph-name="bracketright" unicode="]" horiz-adv-x="268" 
d="M181 741v-790h-150v16h131v758h-131v16h150z" />
    <glyph glyph-name="asciicircum" unicode="^" horiz-adv-x="379" 
d="M31 473v10l149 217h21l147 -217v-10h-14l-143 209h-1l-146 -209h-13z" />
    <glyph glyph-name="underscore" unicode="_" horiz-adv-x="305" 
d="M311 -162h-317v16h317v-16z" />
    <glyph glyph-name="grave" unicode="`" 
d="M221 578h-13l-92 111v11h16l89 -113v-9z" />
    <glyph glyph-name="a" unicode="a" horiz-adv-x="489" 
d="M394 23v71q-39 -48 -83.5 -72.5t-111.5 -24.5q-74 0 -118 36t-44 111q0 74 56.5 111t152.5 37q80 0 148 -18v111q0 70 -36.5 97t-103.5 27q-114 0 -171 -48h-12v18q76 46 184 46q158 0 158 -139v-386h-5q-8 0 -11 4.5t-3 18.5zM200 13q66 0 111 26.5t83 77.5v140
q-73 19 -147 19q-87 0 -139 -32.5t-52 -98.5q0 -68 39 -100t105 -32z" />
    <glyph glyph-name="b" unicode="b" horiz-adv-x="549" 
d="M100 677v-273q81 121 213 121q39 0 72.5 -12.5t62.5 -41t45.5 -81t16.5 -124.5q0 -74 -19 -128.5t-52.5 -84t-71 -43t-80.5 -13.5q-121 0 -187 80v-54q0 -23 -12 -23h-7v700h5q9 0 11.5 -4t2.5 -19zM312 509q-123 0 -212 -129v-281q71 -86 187 -86q39 0 72.5 11.5
t64.5 38.5t49 78.5t18 123.5q0 133 -52 188.5t-127 55.5z" />
    <glyph glyph-name="c" unicode="c" horiz-adv-x="483" 
d="M275 -3q-109 0 -172.5 71.5t-63.5 193.5q0 121 66 192t171 71q94 0 162 -60v-15h-14q-49 59 -148 59q-98 0 -158 -66t-60 -181q0 -116 57.5 -182.5t159.5 -66.5q112 0 161 71h14v-15q-61 -72 -175 -72z" />
    <glyph glyph-name="d" unicode="d" horiz-adv-x="549" 
d="M468 677v-677h-6q-8 0 -10.5 5.5t-2.5 21.5v83q-76 -113 -210 -113q-38 0 -71.5 13t-63.5 41t-47.5 80.5t-17.5 124.5q0 74 19.5 128.5t53 84t71 43t79.5 13.5q121 0 187 -81v256h5q9 0 11.5 -4t2.5 -19zM240 13q128 0 209 122v287q-72 87 -187 87q-39 0 -72.5 -11.5
t-64.5 -38.5t-49 -78.5t-18 -123.5q0 -70 16 -120t44 -75.5t58 -37t64 -11.5z" />
    <glyph glyph-name="e" unicode="e" horiz-adv-x="507" 
d="M58 259q0 -117 56 -181.5t163 -64.5q117 0 169 56h14v-13q-69 -59 -183 -59t-176 69t-62 193q0 120 63 193t161 73q94 0 150 -59t56 -180l-1 -13h-410v-14zM263 510q-86 0 -141.5 -59t-62.5 -162h391q-1 114 -51 167.5t-136 53.5z" />
    <glyph glyph-name="f" unicode="f" horiz-adv-x="258" 
d="M18 504v16h70v55q0 125 108 125q37 0 57 -5v-13h-57q-89 0 -89 -107v-55h133v-16h-133v-504h-19v504h-70z" />
    <glyph glyph-name="g" unicode="g" horiz-adv-x="549" 
d="M468 520v-524q0 -57 -32 -94.5t-75.5 -52t-96.5 -14.5q-116 0 -194 47v18h12q58 -49 180 -49q78 0 132.5 35t54.5 111v114q-77 -114 -210 -114q-38 0 -71.5 13t-63.5 41t-47.5 80.5t-17.5 124.5q0 74 19.5 128.5t53 84t71 43t79.5 13.5q121 0 187 -81v50q0 16 3 21t11 5
h5zM240 13q128 0 209 123v286q-72 87 -187 87q-39 0 -72.5 -11.5t-64.5 -38.5t-49 -78.5t-18 -123.5q0 -70 16 -120t44 -75.5t58 -37t64 -11.5z" />
    <glyph glyph-name="h" unicode="h" horiz-adv-x="551" 
d="M100 677v-261q125 109 241 109q134 0 134 -130v-395h-19v392q0 67 -30.5 92t-85.5 25q-118 0 -240 -111v-398h-19v700h5q9 0 11.5 -4t2.5 -19z" />
    <glyph glyph-name="i" unicode="i" horiz-adv-x="187" 
d="M103 0h-19v520h5q9 0 11.5 -4.5t2.5 -21.5v-494zM94 613q-8 0 -13 5.5t-5 12.5t5 12.5t13 5.5t13 -5.5t5 -12.5t-5 -12.5t-13 -5.5z" />
    <glyph glyph-name="j" unicode="j" horiz-adv-x="187" 
d="M103 494v-566q0 -43 -22.5 -67t-66.5 -24q-12 0 -28 2v14h28q70 0 70 75v592h5q9 0 11.5 -4.5t2.5 -21.5zM94 613q-8 0 -13 5.5t-5 12.5t5 12.5t13 5.5t13 -5.5t5 -12.5t-5 -12.5t-13 -5.5z" />
    <glyph glyph-name="k" unicode="k" horiz-adv-x="453" 
d="M100 677v-484l297 327h14v-12l-194 -210l207 -287v-11h-14l-205 284l-105 -116v-168h-19v700h5q9 0 11.5 -4t2.5 -19z" />
    <glyph glyph-name="l" unicode="l" horiz-adv-x="185" 
d="M83 700h5q9 0 11.5 -4t2.5 -19v-677h-19v700z" />
    <glyph glyph-name="m" unicode="m" horiz-adv-x="859" 
d="M100 494v-71q110 102 215 102q116 0 126 -102q112 102 215 102q127 0 127 -122v-403h-19v400q0 61 -28.5 85t-79.5 24q-102 0 -214 -105v-404h-19v400q0 61 -28.5 85t-79.5 24q-104 0 -215 -106v-403h-19v520h5q9 0 11.5 -4.5t2.5 -21.5z" />
    <glyph glyph-name="n" unicode="n" horiz-adv-x="551" 
d="M100 494v-78q125 109 241 109q134 0 134 -130v-395h-19v392q0 67 -30.5 92t-85.5 25q-118 0 -240 -111v-398h-19v520h5q9 0 11.5 -4.5t2.5 -21.5z" />
    <glyph glyph-name="o" unicode="o" horiz-adv-x="546" 
d="M273 -3q-108 0 -171 70.5t-63 193.5q0 122 63 193t171 71t171 -71t63 -193q0 -123 -63 -193.5t-171 -70.5zM273 13q101 0 158 66t57 182t-57 182t-158 66q-100 0 -157.5 -66t-57.5 -182t57 -182t158 -66z" />
    <glyph glyph-name="p" unicode="p" horiz-adv-x="549" 
d="M100 494v-90q81 121 213 121q83 0 140 -60.5t57 -198.5q0 -74 -19.5 -128.5t-53 -84t-71 -43t-79.5 -13.5q-121 0 -187 80v-239h-19v682h5q9 0 11.5 -4.5t2.5 -21.5zM312 509q-123 0 -212 -129v-281q71 -86 187 -86q39 0 72.5 11.5t64.5 38.5t49 78.5t18 123.5
q0 133 -52 188.5t-127 55.5z" />
    <glyph glyph-name="q" unicode="q" horiz-adv-x="549" 
d="M449 -162v273q-77 -114 -210 -114q-38 0 -71.5 13t-63.5 41t-47.5 80.5t-17.5 124.5q0 74 19.5 128.5t53 84t71 43t79.5 13.5q121 0 187 -81v50q0 16 3 21t11 5h5v-682h-19zM240 13q128 0 209 123v286q-72 87 -187 87q-39 0 -72.5 -11.5t-64.5 -38.5t-49 -78.5
t-18 -123.5q0 -70 16 -120t44 -75.5t58 -37t64 -11.5z" />
    <glyph glyph-name="r" unicode="r" horiz-adv-x="334" 
d="M100 494v-83q83 112 179 112l22 -2v-16q-9 1 -22 1q-94 0 -179 -118v-388h-19v520h5q9 0 11.5 -4.5t2.5 -21.5z" />
    <glyph glyph-name="s" unicode="s" horiz-adv-x="418" 
d="M202 -3q-106 0 -168 53v15h14q52 -52 154 -52q81 0 120.5 32.5t39.5 100.5q0 52 -36.5 77.5t-118.5 39.5t-121 41t-39 89t43.5 97t121.5 35q48 0 88 -13.5t60 -31.5v-14h-14q-50 43 -134 43q-71 0 -108.5 -31t-37.5 -85q0 -53 35 -76.5t114 -37.5q84 -15 125 -44t41 -88
q0 -150 -179 -150z" />
    <glyph glyph-name="t" unicode="t" horiz-adv-x="291" 
d="M18 504v16h70v146h19v-146h150v-16h-150v-399q0 -48 23 -69t73 -21h68v-14q-30 -4 -72 -4q-111 0 -111 107v400h-70z" />
    <glyph glyph-name="u" unicode="u" horiz-adv-x="543" 
d="M443 23v74q-117 -102 -235 -102q-62 0 -97 28t-35 100v397h19v-394q0 -67 29.5 -91t84.5 -24q112 0 234 104v405h19v-520h-5q-8 0 -11 4.5t-3 18.5z" />
    <glyph glyph-name="v" unicode="v" horiz-adv-x="474" 
d="M229 0l-204 509v11h16l196 -490h2l195 490h15v-11l-203 -509h-17z" />
    <glyph glyph-name="w" unicode="w" horiz-adv-x="701" 
d="M179 0l-152 509v11h16l145 -487h2l152 487h18l152 -487h2l143 487h17v-11l-152 -509h-19l-152 490h-1l-152 -490h-19z" />
    <glyph glyph-name="x" unicode="x" horiz-adv-x="473" 
d="M42 0v12l184 258l-170 238v12h13l170 -237l162 237h13v-12l-164 -239l181 -257v-12h-13l-180 256l-183 -256h-13z" />
    <glyph glyph-name="y" unicode="y" horiz-adv-x="478" 
d="M151 -162v12l82 190l-207 469v11h16l201 -456h1l194 456h15v-11l-286 -671h-16z" />
    <glyph glyph-name="z" unicode="z" horiz-adv-x="454" 
d="M31 0v15l370 490h-347v15h369v-16l-370 -489h364v-15h-386z" />
    <glyph glyph-name="braceleft" unicode="{" horiz-adv-x="297" 
d="M123 61v225q0 61 -66 61h-30v16h30q66 0 66 61v209q0 108 103 108h40v-16h-40q-45 0 -64.5 -22t-19.5 -70v-209q0 -59 -49 -68v-1q49 -9 49 -69v-225q0 -48 20 -71t64 -23h40v-16h-40q-103 0 -103 110z" />
    <glyph glyph-name="bar" unicode="|" horiz-adv-x="221" 
d="M120 741v-790h-19v790h19z" />
    <glyph glyph-name="braceright" unicode="}" horiz-adv-x="297" 
d="M174 286v-225q0 -110 -103 -110h-40v16h40q44 0 64 23t20 71v225q0 60 49 69v1q-49 9 -49 68v209q0 48 -19.5 70t-64.5 22h-40v16h40q103 0 103 -108v-209q0 -61 66 -61h30v-16h-30q-66 0 -66 -61z" />
    <glyph glyph-name="asciitilde" unicode="~" horiz-adv-x="312" 
d="M31 246v10q5 24 22 40.5t41 16.5q21 0 64.5 -21t60.5 -21q38 0 44 49h18v-10q-5 -25 -21.5 -40.5t-41.5 -15.5q-21 0 -64.5 21t-60.5 21q-40 0 -44 -50h-18z" />
    <glyph glyph-name="exclamdown" unicode="&#xa1;" horiz-adv-x="192" 
d="M104 505l3 -567v-15h-22v15l3 567h16zM96 626q9 0 15 -6t6 -15t-6 -15t-15 -6t-15 6t-6 15t6 15t15 6z" />
    <glyph glyph-name="cent" unicode="&#xa2;" horiz-adv-x="483" 
d="M278 -102h-18v100q-103 5 -162 75.5t-59 188.5q0 116 61 186.5t160 75.5v59h18v-58q96 -1 163 -60v-15h-14q-48 58 -149 59v-496q109 1 158 71h14v-15q-60 -71 -172 -72v-99zM58 262q0 -112 53 -178t149 -71v495q-92 -5 -147 -70.5t-55 -175.5z" />
    <glyph glyph-name="sterling" unicode="&#xa3;" horiz-adv-x="500" 
d="M35 332v17h66q-24 137 -24 175q0 84 48 131.5t150 47.5q103 0 179 -71v-15h-14q-65 69 -165 69q-178 0 -178 -163q0 -46 24 -174h215v-17h-212q16 -100 16 -160q0 -98 -83 -155h405v-17h-431v17q90 62 90 155q0 66 -17 160h-69z" />
    <glyph glyph-name="yen" unicode="&#xa5;" horiz-adv-x="499" 
d="M430 322h-171v-77h171v-15h-171v-230h-20v230h-171v15h171v77h-171v15h166l-204 350v13h14l205 -353h1l206 353h13v-13l-206 -350h167v-15z" />
    <glyph glyph-name="brokenbar" unicode="&#xa6;" horiz-adv-x="130" 
d="M55 -49v361h20v-361h-20zM55 379v362h20v-362h-20z" />
    <glyph glyph-name="section" unicode="&#xa7;" horiz-adv-x="492" 
d="M229 -114q153 0 153 124q0 56 -37.5 81t-135.5 53q-93 27 -137 61.5t-44 95.5q0 113 162 134q-97 40 -97 133q0 60 44.5 97.5t119.5 37.5q94 0 147 -46v-14h-14q-51 44 -133 44q-69 1 -107 -31.5t-38 -87.5q0 -56 35.5 -87t116.5 -50q59 -14 99 -31t70.5 -50t30.5 -77
q0 -121 -152 -145q44 -18 66.5 -44.5t22.5 -72.5q0 -141 -172 -141q-106 0 -168 53v15h14q52 -52 154 -52zM260 414l-37 9q-176 -12 -176 -121q0 -53 38.5 -83.5t127.5 -57.5q50 -15 71 -23q161 16 161 135q0 56 -48 88t-137 53z" />
    <glyph glyph-name="dieresis" unicode="&#xa8;" 
d="M142 613q-8 0 -13 5.5t-5 12.5t5 12.5t13 5.5t13 -5.5t5 -12.5t-5 -12.5t-13 -5.5zM268 613q-8 0 -13 5.5t-5 12.5t5 12.5t13 5.5t13 -5.5t5 -12.5t-5 -12.5t-13 -5.5z" />
    <glyph glyph-name="copyright" unicode="&#xa9;" horiz-adv-x="794" 
d="M397 -3q-149 0 -249.5 94t-100.5 259t100.5 259t249.5 94t249.5 -94t100.5 -259t-100.5 -259t-249.5 -94zM65 350q0 -158 95 -247.5t237 -89.5t237 89.5t95 247.5t-95 247.5t-237 89.5t-237 -89.5t-95 -247.5zM406 158q-86 0 -136.5 52t-50.5 141q0 88 52 139.5t135 51.5
q77 0 129 -44v-16h-14q-39 43 -115 43q-75 0 -121 -46t-46 -128q0 -84 43.5 -130t123.5 -46q83 0 121 53h14v-16q-49 -54 -135 -54z" />
    <glyph glyph-name="ordfeminine" unicode="&#xaa;" horiz-adv-x="420" 
d="M334 276v60q-33 -41 -70.5 -61.5t-94.5 -20.5q-62 0 -99.5 30.5t-37.5 94.5q0 63 48 95t129 32q68 0 125 -15v90q0 61 -30.5 83t-87.5 22q-95 0 -145 -41h-11v17q62 41 158 41q135 0 135 -121v-325h-6q-13 0 -13 19zM170 270q56 0 93.5 22.5t70.5 66.5v116
q-69 16 -124 16q-159 0 -159 -111q0 -110 119 -110z" />
    <glyph glyph-name="guillemotleft" unicode="&#xab;" horiz-adv-x="411" 
d="M208 50l-169 202v14l169 203h12v-13l-161 -196v-2l161 -195v-13h-12zM360 50l-169 202v14l169 203h12v-13l-161 -196v-2l161 -195v-13h-12z" />
    <glyph glyph-name="registered" unicode="&#xae;" horiz-adv-x="416" 
d="M208 350q-75 0 -128 48.5t-53 130.5t52.5 130.5t128.5 48.5q75 0 128 -48.5t53 -130.5t-53 -130.5t-128 -48.5zM208 366q69 0 116 44t47 119t-46.5 119t-116.5 44t-116.5 -44t-46.5 -119t47 -119t116 -44zM270 432l-55 89h-48v-89h-20v200h68q67 0 67 -55q0 -46 -47 -54
l51 -81v-10h-16zM167 615v-78h48q47 0 47 40q0 19 -10.5 28.5t-36.5 9.5h-48z" />
    <glyph glyph-name="macron" unicode="&#xaf;" 
d="M102 621v15h206v-15h-206z" />
    <glyph glyph-name="degree" unicode="&#xb0;" horiz-adv-x="301" 
d="M150 465q-49 0 -83.5 33.5t-34.5 86.5q0 54 34.5 87.5t83.5 33.5q50 0 84.5 -33.5t34.5 -87.5q0 -53 -35 -86.5t-84 -33.5zM50 585q0 -45 29 -74.5t71 -29.5q43 0 72 29.5t29 74.5q0 46 -29 75.5t-72 29.5q-42 0 -71 -29.5t-29 -75.5z" />
    <glyph glyph-name="two.superior" unicode="&#xb2;" horiz-adv-x="280" 
d="M257 350v-16h-233v16l116 108q57 53 77 81.5t20 64.5q0 40 -23.5 61t-66.5 21q-62 0 -99 -43h-12v14q45 45 111 45q49 0 79 -26t30 -72q0 -38 -23.5 -71.5t-83.5 -88.5l-103 -94h211z" />
    <glyph glyph-name="three.superior" unicode="&#xb3;" horiz-adv-x="268" 
d="M124 332q-71 0 -112 37v15h13q34 -36 99 -36q50 0 76 23.5t26 66.5t-29 61.5t-70 18.5h-34v15h31q41 0 66.5 20.5t25.5 58.5q0 74 -88 74q-58 0 -92 -34h-12v16q43 34 104 34q50 0 78.5 -23.5t28.5 -66.5q0 -69 -71 -85v-2q36 -4 58.5 -26.5t22.5 -60.5q0 -51 -32 -78.5
t-89 -27.5z" />
    <glyph glyph-name="acute" unicode="&#xb4;" 
d="M190 578v9l89 113h16v-11l-92 -111h-13z" />
    <glyph glyph-name="paragraph" unicode="&#xb6;" horiz-adv-x="517" 
d="M289 -91v443h-20q-112 0 -174.5 37.5t-62.5 136.5q0 42 12 73.5t32 50.5t51 30.5t64 15.5t76 4h153v-791h-19v775h-93v-775h-19z" />
    <glyph glyph-name="periodcentered" unicode="&#xb7;" horiz-adv-x="110" 
d="M55 341q9 0 15 -6t6 -15t-6 -15t-15 -6t-15 6t-6 15t6 15t15 6z" />
    <glyph glyph-name="cedilla" unicode="&#xb8;" 
d="M173 0h17v-50q81 0 81 -62q0 -29 -20 -45t-52 -16q-41 0 -69 21v15h13q12 -20 56 -20q54 0 54 45q0 26 -15.5 36t-53.5 10h-11v66z" />
    <glyph glyph-name="one.superior" unicode="&#xb9;" horiz-adv-x="198" 
d="M127 334h-19v346l-86 -49h-11v12l103 57h13v-366z" />
    <glyph glyph-name="ordmasculine" unicode="&#xba;" horiz-adv-x="484" 
d="M242 254q-89 0 -146.5 61t-57.5 164q0 102 57.5 163t146.5 61t146.5 -61t57.5 -163q0 -103 -57.5 -164t-146.5 -61zM242 270q84 0 134 55.5t50 153.5q0 97 -50 152.5t-134 55.5t-134 -55.5t-50 -152.5q0 -98 50 -153.5t134 -55.5z" />
    <glyph glyph-name="guillemotright" unicode="&#xbb;" horiz-adv-x="411" 
d="M203 469l169 -202v-14l-169 -203h-12v13l161 196v2l-161 195v13h12zM51 469l169 -202v-14l-169 -203h-12v13l161 196v2l-161 195v13h12z" />
    <glyph glyph-name="onequarter" unicode="&#xbc;" horiz-adv-x="627" 
d="M127 334h-19v346l-86 -49h-11v12l103 57h13v-366zM545 729l-492 -763h-21l492 763h21zM542 0h-18v97h-195v16l198 253h15v-255h60v-14h-60v-97zM350 113v-2h174v223h-2z" />
    <glyph glyph-name="onehalf" unicode="&#xbd;" horiz-adv-x="661" 
d="M127 334h-19v346l-86 -49h-11v12l103 57h13v-366zM545 729l-492 -763h-21l492 763h21zM638 16v-16h-233v16l116 108q57 53 77 81.5t20 64.5q0 40 -23.5 61t-66.5 21q-62 0 -99 -43h-12v14q45 45 111 45q49 0 79 -26t30 -72q0 -38 -23.5 -71.5t-83.5 -88.5l-103 -94h211z
" />
    <glyph glyph-name="threequarters" unicode="&#xbe;" horiz-adv-x="667" 
d="M124 332q-71 0 -112 37v15h13q34 -36 99 -36q50 0 76 23.5t26 66.5t-29 61.5t-70 18.5h-34v15h31q41 0 66.5 20.5t25.5 58.5q0 74 -88 74q-58 0 -92 -34h-12v16q43 34 104 34q50 0 78.5 -23.5t28.5 -66.5q0 -69 -71 -85v-2q36 -4 58.5 -26.5t22.5 -60.5q0 -51 -32 -78.5
t-89 -27.5zM604 729l-492 -763h-21l492 763h21zM582 0h-18v97h-195v16l198 253h15v-255h60v-14h-60v-97zM390 113v-2h174v223h-2z" />
    <glyph glyph-name="questiondown" unicode="&#xbf;" horiz-adv-x="431" 
d="M272 505q3 -26 3 -48t-1.5 -39t-8 -33.5t-12 -28.5t-17 -27.5t-20.5 -25.5t-25 -28q-7 -7 -36.5 -35t-39 -39t-27 -34.5t-23.5 -45t-6 -46.5q0 -139 148 -139q113 0 165 64h14v-16q-71 -64 -179 -64q-168 0 -168 155q0 28 7 51.5t24 46.5t29.5 37t40 40.5t39.5 38.5
q33 34 47.5 54.5t24 62t3.5 99.5h18zM260 626q9 0 15 -6t6 -15t-6 -15t-15 -6t-15 6t-6 15t6 15t15 6z" />
    <glyph glyph-name="Agrave" unicode="&#xc0;" horiz-adv-x="594" 
d="M36 0v14l249 686h27l246 -686v-14h-15l-85 235h-323l-85 -235h-14zM297 681l-156 -429h311l-153 429h-2zM315 739h-13l-69 91v11h16l66 -93v-9z" />
    <glyph glyph-name="Aacute" unicode="&#xc1;" horiz-adv-x="594" 
d="M36 0v14l249 686h27l246 -686v-14h-15l-85 235h-323l-85 -235h-14zM297 681l-156 -429h311l-153 429h-2zM292 739h-13v9l66 93h16v-11z" />
    <glyph glyph-name="Acircumflex" unicode="&#xc2;" horiz-adv-x="594" 
d="M36 0v14l249 686h27l246 -686v-14h-15l-85 235h-323l-85 -235h-14zM297 681l-156 -429h311l-153 429h-2zM200 739v10l88 92h20l88 -92v-10h-13l-85 85l-85 -85h-13z" />
    <glyph glyph-name="Atilde" unicode="&#xc3;" horiz-adv-x="594" 
d="M36 0v14l249 686h27l246 -686v-14h-15l-85 235h-323l-85 -235h-14zM297 681l-156 -429h311l-153 429h-2zM182 752v10q5 21 21 37t40 16q21 0 57 -21t53 -21q18 0 30 12.5t15 32.5h16v-10q-14 -52 -61 -52q-21 0 -57 21t-53 21q-38 0 -45 -46h-16z" />
    <glyph glyph-name="Adieresis" unicode="&#xc4;" horiz-adv-x="594" 
d="M36 0v14l249 686h27l246 -686v-14h-15l-85 235h-323l-85 -235h-14zM297 681l-156 -429h311l-153 429h-2zM235 754q-7 0 -12.5 5t-5.5 13t5.5 13t12.5 5t12.5 -5t5.5 -13t-5.5 -13t-12.5 -5zM361 754q-7 0 -12.5 5t-5.5 13t5.5 13t12.5 5t12.5 -5t5.5 -13t-5.5 -13
t-12.5 -5z" />
    <glyph glyph-name="Aring" unicode="&#xc5;" horiz-adv-x="594" 
d="M36 0v14l249 686h27l246 -686v-14h-15l-85 235h-323l-85 -235h-14zM297 681l-156 -429h311l-153 429h-2zM299 744q-33 0 -56.5 22t-23.5 57q0 34 24 56.5t56 22.5t55.5 -22.5t23.5 -56.5q0 -35 -23.5 -57t-55.5 -22zM237 823q0 -29 17.5 -46t44.5 -17q26 0 43.5 17
t17.5 46q0 28 -17.5 45.5t-43.5 17.5q-27 0 -44.5 -17.5t-17.5 -45.5z" />
    <glyph glyph-name="AE" unicode="&#xc6;" horiz-adv-x="928" 
d="M472 0v235h-300l-125 -235h-15v14l368 686h476v-17h-384v-311h293v-17h-293v-338h398v-17h-418zM411 683l-230 -431h291v431h-61z" />
    <glyph glyph-name="Ccedilla" unicode="&#xc7;" horiz-adv-x="623" 
d="M582 92q-43 -44 -93.5 -68.5t-128.5 -26.5v-47q81 0 81 -62q0 -29 -20 -45t-52 -16q-41 0 -69 21v15h13q12 -20 56 -20q54 0 54 45q0 26 -15.5 36t-53.5 10h-11v63q-128 2 -207 95.5t-79 260.5q0 85 24.5 152.5t66 110t94.5 65t113 22.5q78 0 123 -20.5t91 -61.5v-17h-14
q-68 82 -199 82q-121 0 -200 -86.5t-79 -245.5q0 -163 73.5 -251.5t198.5 -88.5q147 0 219 95h14v-17z" />
    <glyph glyph-name="Egrave" unicode="&#xc8;" horiz-adv-x="553" 
d="M97 0v700h404v-17h-384v-311h293v-17h-293v-338h398v-17h-418zM327 739h-13l-69 91v11h16l66 -93v-9z" />
    <glyph glyph-name="Eacute" unicode="&#xc9;" horiz-adv-x="553" 
d="M97 0v700h404v-17h-384v-311h293v-17h-293v-338h398v-17h-418zM304 739h-13v9l66 93h16v-11z" />
    <glyph glyph-name="Ecircumflex" unicode="&#xca;" horiz-adv-x="553" 
d="M97 0v700h404v-17h-384v-311h293v-17h-293v-338h398v-17h-418zM212 739v10l88 92h20l88 -92v-10h-13l-85 85l-85 -85h-13z" />
    <glyph glyph-name="Edieresis" unicode="&#xcb;" horiz-adv-x="553" 
d="M97 0v700h404v-17h-384v-311h293v-17h-293v-338h398v-17h-418zM247 754q-7 0 -12.5 5t-5.5 13t5.5 13t12.5 5t12.5 -5t5.5 -13t-5.5 -13t-12.5 -5zM373 754q-7 0 -12.5 5t-5.5 13t5.5 13t12.5 5t12.5 -5t5.5 -13t-5.5 -13t-12.5 -5z" />
    <glyph glyph-name="Igrave" unicode="&#xcc;" horiz-adv-x="218" 
d="M119 0h-20v700h20v-700zM126 739h-13l-69 91v11h16l66 -93v-9z" />
    <glyph glyph-name="Iacute" unicode="&#xcd;" horiz-adv-x="218" 
d="M119 0h-20v700h20v-700zM103 739h-13v9l66 93h16v-11z" />
    <glyph glyph-name="Icircumflex" unicode="&#xce;" horiz-adv-x="218" 
d="M119 0h-20v700h20v-700zM11 739v10l88 92h20l88 -92v-10h-13l-85 85l-85 -85h-13z" />
    <glyph glyph-name="Idieresis" unicode="&#xcf;" horiz-adv-x="218" 
d="M119 0h-20v700h20v-700zM46 754q-8 0 -13 5t-5 13t5 13t13 5t13 -5t5 -13t-5 -13t-13 -5zM172 754q-8 0 -13 5t-5 13t5 13t13 5t13 -5t5 -13t-5 -13t-13 -5z" />
    <glyph glyph-name="Eth" unicode="&#xd0;" horiz-adv-x="670" 
d="M27 343v17h70v340h176q176 0 261.5 -82.5t85.5 -267.5t-85.5 -267.5t-261.5 -82.5h-176v343h-70zM117 18h156q169 0 248 77t79 255t-79 255t-248 77h-156v-322h223v-17h-223v-325z" />
    <glyph glyph-name="Ntilde" unicode="&#xd1;" horiz-adv-x="680" 
d="M97 0v700h30l436 -666h1v666h19v-700h-20l-446 681h-1v-681h-19zM236 752v10q5 21 21 37t40 16q21 0 57 -21t53 -21q18 0 30 12.5t15 32.5h16v-10q-14 -52 -61 -52q-21 0 -57 21t-53 21q-38 0 -45 -46h-16z" />
    <glyph glyph-name="Ograve" unicode="&#xd2;" horiz-adv-x="713" 
d="M357 -3q-132 0 -219.5 93.5t-87.5 259.5t87.5 259.5t219.5 93.5t219 -93.5t87 -259.5t-87 -259.5t-219 -93.5zM357 14q125 0 205.5 88.5t80.5 247.5q0 158 -80.5 247t-205.5 89t-206 -89t-81 -247q0 -159 80.5 -247.5t206.5 -88.5zM373 739h-13l-69 91v11h16l66 -93v-9z
" />
    <glyph glyph-name="Oacute" unicode="&#xd3;" horiz-adv-x="713" 
d="M357 -3q-132 0 -219.5 93.5t-87.5 259.5t87.5 259.5t219.5 93.5t219 -93.5t87 -259.5t-87 -259.5t-219 -93.5zM357 14q125 0 205.5 88.5t80.5 247.5q0 158 -80.5 247t-205.5 89t-206 -89t-81 -247q0 -159 80.5 -247.5t206.5 -88.5zM350 739h-13v9l66 93h16v-11z" />
    <glyph glyph-name="Ocircumflex" unicode="&#xd4;" horiz-adv-x="713" 
d="M357 -3q-132 0 -219.5 93.5t-87.5 259.5t87.5 259.5t219.5 93.5t219 -93.5t87 -259.5t-87 -259.5t-219 -93.5zM357 14q125 0 205.5 88.5t80.5 247.5q0 158 -80.5 247t-205.5 89t-206 -89t-81 -247q0 -159 80.5 -247.5t206.5 -88.5zM258 739v10l88 92h20l88 -92v-10h-13
l-85 85l-85 -85h-13z" />
    <glyph glyph-name="Otilde" unicode="&#xd5;" horiz-adv-x="713" 
d="M357 -3q-132 0 -219.5 93.5t-87.5 259.5t87.5 259.5t219.5 93.5t219 -93.5t87 -259.5t-87 -259.5t-219 -93.5zM357 14q125 0 205.5 88.5t80.5 247.5q0 158 -80.5 247t-205.5 89t-206 -89t-81 -247q0 -159 80.5 -247.5t206.5 -88.5zM240 752v10q5 21 21 37t40 16
q21 0 57 -21t53 -21q18 0 30 12.5t15 32.5h16v-10q-14 -52 -61 -52q-21 0 -57 21t-53 21q-38 0 -45 -46h-16z" />
    <glyph glyph-name="Odieresis" unicode="&#xd6;" horiz-adv-x="713" 
d="M357 -3q-132 0 -219.5 93.5t-87.5 259.5t87.5 259.5t219.5 93.5t219 -93.5t87 -259.5t-87 -259.5t-219 -93.5zM357 14q125 0 205.5 88.5t80.5 247.5q0 158 -80.5 247t-205.5 89t-206 -89t-81 -247q0 -159 80.5 -247.5t206.5 -88.5zM293 754q-7 0 -12.5 5t-5.5 13t5.5 13
t12.5 5t12.5 -5t5.5 -13t-5.5 -13t-12.5 -5zM419 754q-7 0 -12.5 5t-5.5 13t5.5 13t12.5 5t12.5 -5t5.5 -13t-5.5 -13t-12.5 -5z" />
    <glyph glyph-name="multiply" unicode="&#xd7;" horiz-adv-x="450" 
d="M380 168l-156 158l-155 -158l-12 12l155 158l-155 158l12 12l155 -158l156 158l12 -12l-156 -158l156 -158z" />
    <glyph glyph-name="Oslash" unicode="&#xd8;" horiz-adv-x="713" 
d="M357 -3q-117 0 -199 73l-75 -99h-13v11l75 100q-95 97 -95 268q0 166 87.5 259.5t219.5 93.5q117 0 200 -75l70 93h13v-11l-71 -94q94 -96 94 -266q0 -166 -87 -259.5t-219 -93.5zM70 350q0 -162 86 -254l390 518q-77 72 -189 72q-125 0 -206 -89t-81 -247zM357 14
q125 0 205.5 88.5t80.5 247.5q0 160 -85 251l-390 -517q74 -70 189 -70z" />
    <glyph glyph-name="Ugrave" unicode="&#xd9;" horiz-adv-x="678" 
d="M342 14q224 0 224 207v479h20v-478q0 -63 -20 -108t-55 -70t-77 -36t-93 -11t-93.5 11t-78.5 35.5t-56.5 70t-20.5 108.5v478h20v-479q0 -111 63.5 -159t166.5 -48zM356 739h-13l-69 91v11h16l66 -93v-9z" />
    <glyph glyph-name="Uacute" unicode="&#xda;" horiz-adv-x="678" 
d="M342 14q224 0 224 207v479h20v-478q0 -63 -20 -108t-55 -70t-77 -36t-93 -11t-93.5 11t-78.5 35.5t-56.5 70t-20.5 108.5v478h20v-479q0 -111 63.5 -159t166.5 -48zM333 739h-13v9l66 93h16v-11z" />
    <glyph glyph-name="Ucircumflex" unicode="&#xdb;" horiz-adv-x="678" 
d="M342 14q224 0 224 207v479h20v-478q0 -63 -20 -108t-55 -70t-77 -36t-93 -11t-93.5 11t-78.5 35.5t-56.5 70t-20.5 108.5v478h20v-479q0 -111 63.5 -159t166.5 -48zM241 739v10l88 92h20l88 -92v-10h-13l-85 85l-85 -85h-13z" />
    <glyph glyph-name="Udieresis" unicode="&#xdc;" horiz-adv-x="678" 
d="M342 14q224 0 224 207v479h20v-478q0 -63 -20 -108t-55 -70t-77 -36t-93 -11t-93.5 11t-78.5 35.5t-56.5 70t-20.5 108.5v478h20v-479q0 -111 63.5 -159t166.5 -48zM276 754q-8 0 -13 5t-5 13t5 13t13 5t13 -5t5 -13t-5 -13t-13 -5zM402 754q-8 0 -13 5t-5 13t5 13t13 5
t13 -5t5 -13t-5 -13t-13 -5z" />
    <glyph glyph-name="Yacute" unicode="&#xdd;" horiz-adv-x="539" 
d="M279 0h-20v299l-229 388v13h14l225 -383h1l226 383h13v-13l-230 -388v-299zM264 739h-13v9l66 93h16v-11z" />
    <glyph glyph-name="Thorn" unicode="&#xde;" horiz-adv-x="545" 
d="M97 0v700h20v-149h146q113 0 175.5 -43.5t62.5 -145.5q0 -103 -60.5 -147.5t-177.5 -44.5h-146v-170h-20zM117 533v-345h146q109 0 163.5 38t54.5 136q0 95 -56.5 133t-161.5 38h-146z" />
    <glyph glyph-name="germandbls" unicode="&#xdf;" horiz-adv-x="552" 
d="M495 135q0 28 -9.5 48.5t-30 35t-38.5 23t-47 19.5q-66 23 -93.5 42.5t-27.5 53.5q0 27 17.5 48t58.5 51q30 22 43 32.5t32.5 29.5t27.5 37t8 38q0 94 -143 94q-90 0 -141.5 -51t-51.5 -147v-489h-19v489q0 106 58.5 160t154.5 54q71 0 116 -26.5t45 -83.5q0 -30 -20 -59
t-39.5 -45t-60.5 -45q-35 -25 -51 -45t-16 -42q0 -25 23.5 -41.5t83.5 -37.5q70 -25 104.5 -54t34.5 -89q0 -68 -44 -103t-119 -35q-82 0 -133 39v14h14q44 -37 119 -37q65 0 104.5 30.5t39.5 91.5z" />
    <glyph glyph-name="agrave" unicode="&#xe0;" horiz-adv-x="489" 
d="M394 23v71q-39 -48 -83.5 -72.5t-111.5 -24.5q-74 0 -118 36t-44 111q0 74 56.5 111t152.5 37q80 0 148 -18v111q0 70 -36.5 97t-103.5 27q-114 0 -171 -48h-12v18q76 46 184 46q158 0 158 -139v-386h-5q-8 0 -11 4.5t-3 18.5zM200 13q66 0 111 26.5t83 77.5v140
q-73 19 -147 19q-87 0 -139 -32.5t-52 -98.5q0 -68 39 -100t105 -32zM262 578h-13l-92 111v11h16l89 -113v-9z" />
    <glyph glyph-name="aacute" unicode="&#xe1;" horiz-adv-x="489" 
d="M394 23v71q-39 -48 -83.5 -72.5t-111.5 -24.5q-74 0 -118 36t-44 111q0 74 56.5 111t152.5 37q80 0 148 -18v111q0 70 -36.5 97t-103.5 27q-114 0 -171 -48h-12v18q76 46 184 46q158 0 158 -139v-386h-5q-8 0 -11 4.5t-3 18.5zM200 13q66 0 111 26.5t83 77.5v140
q-73 19 -147 19q-87 0 -139 -32.5t-52 -98.5q0 -68 39 -100t105 -32zM225 578v9l89 113h16v-11l-92 -111h-13z" />
    <glyph glyph-name="acircumflex" unicode="&#xe2;" horiz-adv-x="489" 
d="M394 23v71q-39 -48 -83.5 -72.5t-111.5 -24.5q-74 0 -118 36t-44 111q0 74 56.5 111t152.5 37q80 0 148 -18v111q0 70 -36.5 97t-103.5 27q-114 0 -171 -48h-12v18q76 46 184 46q158 0 158 -139v-386h-5q-8 0 -11 4.5t-3 18.5zM200 13q66 0 111 26.5t83 77.5v140
q-73 19 -147 19q-87 0 -139 -32.5t-52 -98.5q0 -68 39 -100t105 -32zM141 578v10l92 112h20l92 -112v-10h-13l-89 105l-89 -105h-13z" />
    <glyph glyph-name="atilde" unicode="&#xe3;" horiz-adv-x="489" 
d="M394 23v71q-39 -48 -83.5 -72.5t-111.5 -24.5q-74 0 -118 36t-44 111q0 74 56.5 111t152.5 37q80 0 148 -18v111q0 70 -36.5 97t-103.5 27q-114 0 -171 -48h-12v18q76 46 184 46q158 0 158 -139v-386h-5q-8 0 -11 4.5t-3 18.5zM200 13q66 0 111 26.5t83 77.5v140
q-73 19 -147 19q-87 0 -139 -32.5t-52 -98.5q0 -68 39 -100t105 -32zM127 596v10q5 21 21 37t40 16q21 0 57 -21t53 -21q18 0 30 12.5t15 32.5h16v-10q-14 -52 -61 -52q-21 0 -57 21t-53 21q-38 0 -45 -46h-16z" />
    <glyph glyph-name="adieresis" unicode="&#xe4;" horiz-adv-x="489" 
d="M394 23v71q-39 -48 -83.5 -72.5t-111.5 -24.5q-74 0 -118 36t-44 111q0 74 56.5 111t152.5 37q80 0 148 -18v111q0 70 -36.5 97t-103.5 27q-114 0 -171 -48h-12v18q76 46 184 46q158 0 158 -139v-386h-5q-8 0 -11 4.5t-3 18.5zM200 13q66 0 111 26.5t83 77.5v140
q-73 19 -147 19q-87 0 -139 -32.5t-52 -98.5q0 -68 39 -100t105 -32zM180 613q-8 0 -13 5.5t-5 12.5t5 12.5t13 5.5t13 -5.5t5 -12.5t-5 -12.5t-13 -5.5zM306 613q-8 0 -13 5.5t-5 12.5t5 12.5t13 5.5t13 -5.5t5 -12.5t-5 -12.5t-13 -5.5z" />
    <glyph glyph-name="aring" unicode="&#xe5;" horiz-adv-x="489" 
d="M394 23v71q-39 -48 -83.5 -72.5t-111.5 -24.5q-74 0 -118 36t-44 111q0 74 56.5 111t152.5 37q80 0 148 -18v111q0 70 -36.5 97t-103.5 27q-114 0 -171 -48h-12v18q76 46 184 46q158 0 158 -139v-386h-5q-8 0 -11 4.5t-3 18.5zM200 13q66 0 111 26.5t83 77.5v140
q-73 19 -147 19q-87 0 -139 -32.5t-52 -98.5q0 -68 39 -100t105 -32zM244 578q-33 0 -56.5 22t-23.5 57q0 34 24 56.5t56 22.5t55.5 -22.5t23.5 -56.5q0 -35 -23.5 -57t-55.5 -22zM182 657q0 -29 17.5 -46t44.5 -17q26 0 43.5 17t17.5 46q0 28 -17.5 45.5t-43.5 17.5
q-27 0 -44.5 -17.5t-17.5 -45.5z" />
    <glyph glyph-name="ae" unicode="&#xe6;" horiz-adv-x="859" 
d="M413 259q0 -117 54.5 -181.5t161.5 -64.5q117 0 169 56h14v-13q-69 -59 -183 -59q-158 0 -211 127q-38 -60 -86 -93.5t-127 -33.5q-74 0 -121 36t-47 111q0 74 56.5 110t152.5 36h148v95q0 70 -36.5 97t-103.5 27q-114 0 -171 -48h-12v18q76 46 185 46q73 0 114 -31
t41 -108v-22q23 76 76.5 118.5t128.5 42.5q94 0 149.5 -58.5t55.5 -179.5l-1 -13h-407v-15zM206 13q73 0 120 32.5t85 97.5q-17 51 -17 116v15h-147q-88 0 -139.5 -31.5t-51.5 -97.5q0 -68 41.5 -100t108.5 -32zM616 510q-85 0 -140 -59t-62 -161h388q-3 220 -186 220z" />
    <glyph glyph-name="ccedilla" unicode="&#xe7;" horiz-adv-x="483" 
d="M275 -3q-12 0 -18 1v-48q81 0 81 -62q0 -29 -20 -45t-52 -16q-41 0 -69 21v15h13q12 -20 56 -20q54 0 54 45q0 26 -15.5 36t-53.5 10h-11v65q-95 11 -148 81t-53 182q0 121 66 192t171 71q94 0 162 -60v-15h-14q-49 59 -148 59q-98 0 -158 -66t-60 -181
q0 -116 57.5 -182.5t159.5 -66.5q112 0 161 71h14v-15q-61 -72 -175 -72z" />
    <glyph glyph-name="egrave" unicode="&#xe8;" horiz-adv-x="507" 
d="M58 259q0 -117 56 -181.5t163 -64.5q117 0 169 56h14v-13q-69 -59 -183 -59t-176 69t-62 193q0 120 63 193t161 73q94 0 150 -59t56 -180l-1 -13h-410v-14zM263 510q-86 0 -141.5 -59t-62.5 -162h391q-1 114 -51 167.5t-136 53.5zM279 578h-13l-92 111v11h16l89 -113v-9z
" />
    <glyph glyph-name="eacute" unicode="&#xe9;" horiz-adv-x="507" 
d="M58 259q0 -117 56 -181.5t163 -64.5q117 0 169 56h14v-13q-69 -59 -183 -59t-176 69t-62 193q0 120 63 193t161 73q94 0 150 -59t56 -180l-1 -13h-410v-14zM263 510q-86 0 -141.5 -59t-62.5 -162h391q-1 114 -51 167.5t-136 53.5zM242 578v9l89 113h16v-11l-92 -111h-13z
" />
    <glyph glyph-name="ecircumflex" unicode="&#xea;" horiz-adv-x="507" 
d="M58 259q0 -117 56 -181.5t163 -64.5q117 0 169 56h14v-13q-69 -59 -183 -59t-176 69t-62 193q0 120 63 193t161 73q94 0 150 -59t56 -180l-1 -13h-410v-14zM263 510q-86 0 -141.5 -59t-62.5 -162h391q-1 114 -51 167.5t-136 53.5zM158 578v10l92 112h20l92 -112v-10h-13
l-89 105l-89 -105h-13z" />
    <glyph glyph-name="edieresis" unicode="&#xeb;" horiz-adv-x="507" 
d="M58 259q0 -117 56 -181.5t163 -64.5q117 0 169 56h14v-13q-69 -59 -183 -59t-176 69t-62 193q0 120 63 193t161 73q94 0 150 -59t56 -180l-1 -13h-410v-14zM263 510q-86 0 -141.5 -59t-62.5 -162h391q-1 114 -51 167.5t-136 53.5zM197 613q-7 0 -12.5 5.5t-5.5 12.5
t5.5 12.5t12.5 5.5t12.5 -5.5t5.5 -12.5t-5.5 -12.5t-12.5 -5.5zM323 613q-7 0 -12.5 5.5t-5.5 12.5t5.5 12.5t12.5 5.5t12.5 -5.5t5.5 -12.5t-5.5 -12.5t-12.5 -5.5z" />
    <glyph glyph-name="igrave" unicode="&#xec;" horiz-adv-x="187" 
d="M103 0h-19v520h5q9 0 11.5 -4.5t2.5 -21.5v-494zM112 578h-13l-92 111v11h16l89 -113v-9z" />
    <glyph glyph-name="iacute" unicode="&#xed;" horiz-adv-x="187" 
d="M103 0h-19v520h5q9 0 11.5 -4.5t2.5 -21.5v-494zM75 578v9l89 113h16v-11l-92 -111h-13z" />
    <glyph glyph-name="icircumflex" unicode="&#xee;" horiz-adv-x="187" 
d="M103 0h-19v520h5q9 0 11.5 -4.5t2.5 -21.5v-494zM-9 578v10l92 112h20l92 -112v-10h-13l-89 105l-89 -105h-13z" />
    <glyph glyph-name="idieresis" unicode="&#xef;" horiz-adv-x="187" 
d="M103 0h-19v520h5q9 0 11.5 -4.5t2.5 -21.5v-494zM30 613q-8 0 -13 5.5t-5 12.5t5 12.5t13 5.5t13 -5.5t5 -12.5t-5 -12.5t-13 -5.5zM156 613q-8 0 -13 5.5t-5 12.5t5 12.5t13 5.5t13 -5.5t5 -12.5t-5 -12.5t-13 -5.5z" />
    <glyph glyph-name="eth" unicode="&#xf0;" horiz-adv-x="546" 
d="M184 570l115 68q-57 32 -123 47v15h11q68 -17 127 -53l86 52h14v-11l-85 -51q178 -120 178 -369q0 -131 -63.5 -201t-171.5 -70t-170.5 70.5t-62.5 193.5q0 122 63 193t170 71q139 0 203 -121q-44 150 -160 225l-117 -70h-14v11zM272 13q101 0 158.5 66t57.5 182t-57 182
t-159 66q-100 0 -157 -66t-57 -182t57 -182t157 -66z" />
    <glyph glyph-name="ntilde" unicode="&#xf1;" horiz-adv-x="551" 
d="M100 494v-78q125 109 241 109q134 0 134 -130v-395h-19v392q0 67 -30.5 92t-85.5 25q-118 0 -240 -111v-398h-19v520h5q9 0 11.5 -4.5t2.5 -21.5zM166 596v10q5 21 21 37t40 16q21 0 57 -21t53 -21q18 0 30 12.5t15 32.5h16v-10q-14 -52 -61 -52q-21 0 -57 21t-53 21
q-38 0 -45 -46h-16z" />
    <glyph glyph-name="ograve" unicode="&#xf2;" horiz-adv-x="546" 
d="M273 -3q-108 0 -171 70.5t-63 193.5q0 122 63 193t171 71t171 -71t63 -193q0 -123 -63 -193.5t-171 -70.5zM273 13q101 0 158 66t57 182t-57 182t-158 66q-100 0 -157.5 -66t-57.5 -182t57 -182t158 -66zM292 578h-13l-92 111v11h16l89 -113v-9z" />
    <glyph glyph-name="oacute" unicode="&#xf3;" horiz-adv-x="546" 
d="M273 -3q-108 0 -171 70.5t-63 193.5q0 122 63 193t171 71t171 -71t63 -193q0 -123 -63 -193.5t-171 -70.5zM273 13q101 0 158 66t57 182t-57 182t-158 66q-100 0 -157.5 -66t-57.5 -182t57 -182t158 -66zM255 578v9l89 113h16v-11l-92 -111h-13z" />
    <glyph glyph-name="ocircumflex" unicode="&#xf4;" horiz-adv-x="546" 
d="M273 -3q-108 0 -171 70.5t-63 193.5q0 122 63 193t171 71t171 -71t63 -193q0 -123 -63 -193.5t-171 -70.5zM273 13q101 0 158 66t57 182t-57 182t-158 66q-100 0 -157.5 -66t-57.5 -182t57 -182t158 -66zM171 578v10l92 112h20l92 -112v-10h-13l-89 105l-89 -105h-13z
" />
    <glyph glyph-name="otilde" unicode="&#xf5;" horiz-adv-x="546" 
d="M273 -3q-108 0 -171 70.5t-63 193.5q0 122 63 193t171 71t171 -71t63 -193q0 -123 -63 -193.5t-171 -70.5zM273 13q101 0 158 66t57 182t-57 182t-158 66q-100 0 -157.5 -66t-57.5 -182t57 -182t158 -66zM157 596v10q5 21 21 37t40 16q21 0 57 -21t53 -21q18 0 30 12.5
t15 32.5h16v-10q-14 -52 -61 -52q-21 0 -57 21t-53 21q-38 0 -45 -46h-16z" />
    <glyph glyph-name="odieresis" unicode="&#xf6;" horiz-adv-x="546" 
d="M273 -3q-108 0 -171 70.5t-63 193.5q0 122 63 193t171 71t171 -71t63 -193q0 -123 -63 -193.5t-171 -70.5zM273 13q101 0 158 66t57 182t-57 182t-158 66q-100 0 -157.5 -66t-57.5 -182t57 -182t158 -66zM210 613q-8 0 -13 5.5t-5 12.5t5 12.5t13 5.5t13 -5.5t5 -12.5
t-5 -12.5t-13 -5.5zM336 613q-8 0 -13 5.5t-5 12.5t5 12.5t13 5.5t13 -5.5t5 -12.5t-5 -12.5t-13 -5.5z" />
    <glyph glyph-name="divide" unicode="&#xf7;" horiz-adv-x="456" 
d="M415 337h-374v17h374v-17zM228 231q9 0 15 -6t6 -15t-6 -15t-15 -6t-15 6t-6 15t6 15t15 6zM228 502q9 0 15 -6t6 -15t-6 -15t-15 -6t-15 6t-6 15t6 15t15 6z" />
    <glyph glyph-name="oslash" unicode="&#xf8;" horiz-adv-x="546" 
d="M273 -3q-94 0 -154 54l-58 -74h-12v10l59 74q-69 72 -69 200q0 122 63 193t171 71q94 0 156 -56l56 72h12v-10l-57 -72q67 -72 67 -198q0 -123 -63 -193.5t-171 -70.5zM58 261q0 -121 60 -186l300 381q-56 53 -145 53q-100 0 -157.5 -66t-57.5 -182zM273 13q101 0 158 66
t57 182q0 117 -59 184l-300 -381q56 -51 144 -51z" />
    <glyph glyph-name="ugrave" unicode="&#xf9;" horiz-adv-x="543" 
d="M443 23v74q-117 -102 -235 -102q-62 0 -97 28t-35 100v397h19v-394q0 -67 29.5 -91t84.5 -24q112 0 234 104v405h19v-520h-5q-8 0 -11 4.5t-3 18.5zM289 578h-13l-92 111v11h16l89 -113v-9z" />
    <glyph glyph-name="uacute" unicode="&#xfa;" horiz-adv-x="543" 
d="M443 23v74q-117 -102 -235 -102q-62 0 -97 28t-35 100v397h19v-394q0 -67 29.5 -91t84.5 -24q112 0 234 104v405h19v-520h-5q-8 0 -11 4.5t-3 18.5zM252 578v9l89 113h16v-11l-92 -111h-13z" />
    <glyph glyph-name="ucircumflex" unicode="&#xfb;" horiz-adv-x="543" 
d="M443 23v74q-117 -102 -235 -102q-62 0 -97 28t-35 100v397h19v-394q0 -67 29.5 -91t84.5 -24q112 0 234 104v405h19v-520h-5q-8 0 -11 4.5t-3 18.5zM168 578v10l92 112h20l92 -112v-10h-13l-89 105l-89 -105h-13z" />
    <glyph glyph-name="udieresis" unicode="&#xfc;" horiz-adv-x="543" 
d="M443 23v74q-117 -102 -235 -102q-62 0 -97 28t-35 100v397h19v-394q0 -67 29.5 -91t84.5 -24q112 0 234 104v405h19v-520h-5q-8 0 -11 4.5t-3 18.5zM333 613q-7 0 -12.5 5.5t-5.5 12.5t5.5 12.5t12.5 5.5t12.5 -5.5t5.5 -12.5t-5.5 -12.5t-12.5 -5.5zM207 613
q-7 0 -12.5 5.5t-5.5 12.5t5.5 12.5t12.5 5.5t12.5 -5.5t5.5 -12.5t-5.5 -12.5t-12.5 -5.5z" />
    <glyph glyph-name="yacute" unicode="&#xfd;" horiz-adv-x="478" 
d="M151 -162v12l82 190l-207 469v11h16l201 -456h1l194 456h15v-11l-286 -671h-16zM226 578v9l89 113h16v-11l-92 -111h-13z" />
    <glyph glyph-name="thorn" unicode="&#xfe;" horiz-adv-x="549" 
d="M100 677v-273q81 121 213 121q83 0 140 -60.5t57 -198.5q0 -74 -19.5 -128.5t-53 -84t-71 -43t-79.5 -13.5q-121 0 -187 80v-239h-19v862h5q9 0 11.5 -4t2.5 -19zM312 509q-123 0 -212 -129v-281q71 -86 187 -86q39 0 72.5 11.5t64.5 38.5t49 78.5t18 123.5
q0 133 -52 188.5t-127 55.5z" />
    <glyph glyph-name="ydieresis" unicode="&#xff;" horiz-adv-x="478" 
d="M151 -162v12l82 190l-207 469v11h16l201 -456h1l194 456h15v-11l-286 -671h-16zM181 613q-7 0 -12.5 5.5t-5.5 12.5t5.5 12.5t12.5 5.5t12.5 -5.5t5.5 -12.5t-5.5 -12.5t-12.5 -5.5zM307 613q-7 0 -12.5 5.5t-5.5 12.5t5.5 12.5t12.5 5.5t12.5 -5.5t5.5 -12.5t-5.5 -12.5
t-12.5 -5.5z" />
    <glyph glyph-name="Amacron" unicode="&#x100;" horiz-adv-x="594" 
d="M36 0v14l249 686h27l246 -686v-14h-15l-85 235h-323l-85 -235h-14zM297 681l-156 -429h311l-153 429h-2zM190 772v15h216v-15h-216z" />
    <glyph glyph-name="amacron" unicode="&#x101;" horiz-adv-x="489" 
d="M394 23v71q-39 -48 -83.5 -72.5t-111.5 -24.5q-74 0 -118 36t-44 111q0 74 56.5 111t152.5 37q80 0 148 -18v111q0 70 -36.5 97t-103.5 27q-114 0 -171 -48h-12v18q76 46 184 46q158 0 158 -139v-386h-5q-8 0 -11 4.5t-3 18.5zM200 13q66 0 111 26.5t83 77.5v140
q-73 19 -147 19q-87 0 -139 -32.5t-52 -98.5q0 -68 39 -100t105 -32zM140 621v15h206v-15h-206z" />
    <glyph glyph-name="Abreve" unicode="&#x102;" horiz-adv-x="594" 
d="M36 0v14l249 686h27l246 -686v-14h-15l-85 235h-323l-85 -235h-14zM297 681l-156 -429h311l-153 429h-2zM298 741q-42 0 -70 22t-36 60v11h18q4 -37 27 -57t61 -20t61 20t27 57h18v-11q-8 -38 -36 -60t-70 -22z" />
    <glyph glyph-name="abreve" unicode="&#x103;" horiz-adv-x="489" 
d="M394 23v71q-39 -48 -83.5 -72.5t-111.5 -24.5q-74 0 -118 36t-44 111q0 74 56.5 111t152.5 37q80 0 148 -18v111q0 70 -36.5 97t-103.5 27q-114 0 -171 -48h-12v18q76 46 184 46q158 0 158 -139v-386h-5q-8 0 -11 4.5t-3 18.5zM200 13q66 0 111 26.5t83 77.5v140
q-73 19 -147 19q-87 0 -139 -32.5t-52 -98.5q0 -68 39 -100t105 -32zM243 580q-42 0 -69.5 25t-36.5 65v11h18q4 -40 27.5 -62.5t60.5 -22.5t60.5 22.5t27.5 62.5h18v-11q-9 -40 -36.5 -65t-69.5 -25z" />
    <glyph glyph-name="Aogonek" unicode="&#x104;" horiz-adv-x="594" 
d="M544 -164q-33 0 -53 18.5t-20 47.5q0 49 71 100l-84 233h-323l-85 -235h-14v14l249 686h27l246 -686v-17q-35 -26 -51.5 -47.5t-16.5 -47.5q0 -49 56 -49h36v-14q-15 -3 -38 -3zM297 681l-156 -429h311l-153 429h-2z" />
    <glyph glyph-name="aogonek" unicode="&#x105;" horiz-adv-x="489" 
d="M398 -164q-33 0 -53 18.5t-20 47.5q0 51 69 98v94q-39 -48 -83.5 -72.5t-111.5 -24.5q-74 0 -118 36t-44 111q0 74 56.5 111t152.5 37q80 0 148 -18v111q0 70 -36.5 97t-103.5 27q-114 0 -171 -48h-12v18q76 46 184 46q158 0 158 -139v-388q-36 -27 -52.5 -48t-16.5 -48
q0 -49 56 -49h36v-14q-15 -3 -38 -3zM200 13q66 0 111 26.5t83 77.5v140q-73 19 -147 19q-87 0 -139 -32.5t-52 -98.5q0 -68 39 -100t105 -32z" />
    <glyph glyph-name="Cacute" unicode="&#x106;" horiz-adv-x="623" 
d="M349 -3q-131 0 -211.5 93.5t-80.5 262.5q0 85 24.5 152.5t66 110t94.5 65t113 22.5q78 0 123 -20.5t91 -61.5v-17h-14q-68 82 -199 82q-121 0 -200 -86.5t-79 -245.5q0 -163 73.5 -251.5t198.5 -88.5q147 0 219 95h14v-17q-44 -45 -97.5 -70t-135.5 -25zM346 739h-13v9
l66 93h16v-11z" />
    <glyph glyph-name="cacute" unicode="&#x107;" horiz-adv-x="483" 
d="M275 -3q-109 0 -172.5 71.5t-63.5 193.5q0 121 66 192t171 71q94 0 162 -60v-15h-14q-49 59 -148 59q-98 0 -158 -66t-60 -181q0 -116 57.5 -182.5t159.5 -66.5q112 0 161 71h14v-15q-61 -72 -175 -72zM251 578v9l89 113h16v-11l-92 -111h-13z" />
    <glyph glyph-name="Ccircumflex" unicode="&#x108;" horiz-adv-x="623" 
d="M349 -3q-131 0 -211.5 93.5t-80.5 262.5q0 85 24.5 152.5t66 110t94.5 65t113 22.5q78 0 123 -20.5t91 -61.5v-17h-14q-68 82 -199 82q-121 0 -200 -86.5t-79 -245.5q0 -163 73.5 -251.5t198.5 -88.5q147 0 219 95h14v-17q-44 -45 -97.5 -70t-135.5 -25zM254 739v10
l88 92h20l88 -92v-10h-13l-85 85l-85 -85h-13z" />
    <glyph glyph-name="ccircumflex" unicode="&#x109;" horiz-adv-x="483" 
d="M275 -3q-109 0 -172.5 71.5t-63.5 193.5q0 121 66 192t171 71q94 0 162 -60v-15h-14q-49 59 -148 59q-98 0 -158 -66t-60 -181q0 -116 57.5 -182.5t159.5 -66.5q112 0 161 71h14v-15q-61 -72 -175 -72zM167 578v10l92 112h20l92 -112v-10h-13l-89 105l-89 -105h-13z" />
    <glyph glyph-name="Cdotaccent" unicode="&#x10a;" horiz-adv-x="623" 
d="M349 -3q-131 0 -211.5 93.5t-80.5 262.5q0 85 24.5 152.5t66 110t94.5 65t113 22.5q78 0 123 -20.5t91 -61.5v-17h-14q-68 82 -199 82q-121 0 -200 -86.5t-79 -245.5q0 -163 73.5 -251.5t198.5 -88.5q147 0 219 95h14v-17q-44 -45 -97.5 -70t-135.5 -25zM352 790
q8 0 13 -5t5 -13t-5 -13t-13 -5t-13 5t-5 13t5 13t13 5z" />
    <glyph glyph-name="cdotaccent" unicode="&#x10b;" horiz-adv-x="483" 
d="M275 -3q-109 0 -172.5 71.5t-63.5 193.5q0 121 66 192t171 71q94 0 162 -60v-15h-14q-49 59 -148 59q-98 0 -158 -66t-60 -181q0 -116 57.5 -182.5t159.5 -66.5q112 0 161 71h14v-15q-61 -72 -175 -72zM269 649q7 0 12.5 -5.5t5.5 -12.5t-5.5 -12.5t-12.5 -5.5t-12.5 5.5
t-5.5 12.5t5.5 12.5t12.5 5.5z" />
    <glyph glyph-name="Ccaron" unicode="&#x10c;" horiz-adv-x="623" 
d="M349 -3q-131 0 -211.5 93.5t-80.5 262.5q0 85 24.5 152.5t66 110t94.5 65t113 22.5q78 0 123 -20.5t91 -61.5v-17h-14q-68 82 -199 82q-121 0 -200 -86.5t-79 -245.5q0 -163 73.5 -251.5t198.5 -88.5q147 0 219 95h14v-17q-44 -45 -97.5 -70t-135.5 -25zM450 841v-10
l-88 -92h-20l-88 92v10h13l85 -85l85 85h13z" />
    <glyph glyph-name="ccaron" unicode="&#x10d;" horiz-adv-x="483" 
d="M275 -3q-109 0 -172.5 71.5t-63.5 193.5q0 121 66 192t171 71q94 0 162 -60v-15h-14q-49 59 -148 59q-98 0 -158 -66t-60 -181q0 -116 57.5 -182.5t159.5 -66.5q112 0 161 71h14v-15q-61 -72 -175 -72zM371 700v-10l-92 -112h-20l-92 112v10h13l89 -105l89 105h13z" />
    <glyph glyph-name="Dcaron" unicode="&#x10e;" horiz-adv-x="670" 
d="M97 0v700h176q176 0 261.5 -82.5t85.5 -267.5t-85.5 -267.5t-261.5 -82.5h-176zM117 18h156q169 0 248 77t79 255t-79 255t-248 77h-156v-664zM414 841v-10l-88 -92h-20l-88 92v10h13l85 -85l85 85h13z" />
    <glyph glyph-name="dcaron" unicode="&#x10f;" horiz-adv-x="549" 
d="M468 677v-677h-6q-8 0 -10.5 5.5t-2.5 21.5v83q-76 -113 -210 -113q-38 0 -71.5 13t-63.5 41t-47.5 80.5t-17.5 124.5q0 74 19.5 128.5t53 84t71 43t79.5 13.5q121 0 187 -81v256h5q9 0 11.5 -4t2.5 -19zM240 13q128 0 209 122v287q-72 87 -187 87q-39 0 -72.5 -11.5
t-64.5 -38.5t-49 -78.5t-18 -123.5q0 -70 16 -120t44 -75.5t58 -37t64 -11.5zM531 578l10 122h19v-11l-16 -111h-13z" />
    <glyph glyph-name="Dcroat" unicode="&#x110;" horiz-adv-x="670" 
d="M27 343v17h70v340h176q176 0 261.5 -82.5t85.5 -267.5t-85.5 -267.5t-261.5 -82.5h-176v343h-70zM117 18h156q169 0 248 77t79 255t-79 255t-248 77h-156v-322h223v-17h-223v-325z" />
    <glyph glyph-name="dcroat" unicode="&#x111;" horiz-adv-x="549" 
d="M468 677v-64h71v-16h-71v-597h-6q-8 0 -10.5 5.5t-2.5 21.5v83q-76 -113 -210 -113q-38 0 -71.5 13t-63.5 41t-47.5 80.5t-17.5 124.5q0 74 19.5 128.5t53 84t71 43t79.5 13.5q121 0 187 -81v153h-162v16h162v87h5q9 0 11.5 -4t2.5 -19zM240 13q128 0 209 122v287
q-72 87 -187 87q-39 0 -72.5 -11.5t-64.5 -38.5t-49 -78.5t-18 -123.5q0 -70 16 -120t44 -75.5t58 -37t64 -11.5z" />
    <glyph glyph-name="Emacron" unicode="&#x112;" horiz-adv-x="553" 
d="M97 0v700h404v-17h-384v-311h293v-17h-293v-338h398v-17h-418zM202 772v15h216v-15h-216z" />
    <glyph glyph-name="emacron" unicode="&#x113;" horiz-adv-x="507" 
d="M58 259q0 -117 56 -181.5t163 -64.5q117 0 169 56h14v-13q-69 -59 -183 -59t-176 69t-62 193q0 120 63 193t161 73q94 0 150 -59t56 -180l-1 -13h-410v-14zM263 510q-86 0 -141.5 -59t-62.5 -162h391q-1 114 -51 167.5t-136 53.5zM157 621v15h206v-15h-206z" />
    <glyph glyph-name="Ebreve" unicode="&#x114;" horiz-adv-x="553" 
d="M97 0v700h404v-17h-384v-311h293v-17h-293v-338h398v-17h-418zM310 741q-42 0 -70 22t-36 60v11h18q4 -37 27 -57t61 -20t61 20t27 57h18v-11q-8 -38 -36 -60t-70 -22z" />
    <glyph glyph-name="ebreve" unicode="&#x115;" horiz-adv-x="507" 
d="M58 259q0 -117 56 -181.5t163 -64.5q117 0 169 56h14v-13q-69 -59 -183 -59t-176 69t-62 193q0 120 63 193t161 73q94 0 150 -59t56 -180l-1 -13h-410v-14zM263 510q-86 0 -141.5 -59t-62.5 -162h391q-1 114 -51 167.5t-136 53.5zM260 580q-42 0 -69.5 25t-36.5 65v11h18
q4 -40 27.5 -62.5t60.5 -22.5t60.5 22.5t27.5 62.5h18v-11q-9 -40 -36.5 -65t-69.5 -25z" />
    <glyph glyph-name="Edotaccent" unicode="&#x116;" horiz-adv-x="553" 
d="M97 0v700h404v-17h-384v-311h293v-17h-293v-338h398v-17h-418zM310 790q8 0 13 -5t5 -13t-5 -13t-13 -5t-13 5t-5 13t5 13t13 5z" />
    <glyph glyph-name="edotaccent" unicode="&#x117;" horiz-adv-x="507" 
d="M58 259q0 -117 56 -181.5t163 -64.5q117 0 169 56h14v-13q-69 -59 -183 -59t-176 69t-62 193q0 120 63 193t161 73q94 0 150 -59t56 -180l-1 -13h-410v-14zM263 510q-86 0 -141.5 -59t-62.5 -162h391q-1 114 -51 167.5t-136 53.5zM260 649q8 0 13 -5.5t5 -12.5t-5 -12.5
t-13 -5.5t-13 5.5t-5 12.5t5 12.5t13 5.5z" />
    <glyph glyph-name="Eogonek" unicode="&#x118;" horiz-adv-x="553" 
d="M97 0v700h404v-17h-384v-311h293v-17h-293v-338h398v-17h-33q-37 -28 -54.5 -49.5t-17.5 -48.5q0 -49 56 -49h36v-14q-15 -3 -38 -3q-33 0 -53 18.5t-20 47.5q0 49 69 98h-363z" />
    <glyph glyph-name="eogonek" unicode="&#x119;" horiz-adv-x="507" 
d="M377 -164q-33 0 -53 18.5t-20 47.5q0 32 21 57t71 63q-55 -25 -119 -25q-114 0 -176 69t-62 193q0 120 63 193t161 73q94 0 150 -59t56 -180l-1 -13h-410v-14q0 -117 56 -181.5t163 -64.5q117 0 169 56h14v-13q-16 -15 -53 -43.5t-54 -45.5q-30 -30 -30 -65q0 -49 56 -49
h36v-14q-15 -3 -38 -3zM263 510q-86 0 -141.5 -59t-62.5 -162h391q-1 114 -51 167.5t-136 53.5z" />
    <glyph glyph-name="Ecaron" unicode="&#x11a;" horiz-adv-x="553" 
d="M97 0v700h404v-17h-384v-311h293v-17h-293v-338h398v-17h-418zM408 841v-10l-88 -92h-20l-88 92v10h13l85 -85l85 85h13z" />
    <glyph glyph-name="ecaron" unicode="&#x11b;" horiz-adv-x="507" 
d="M58 259q0 -117 56 -181.5t163 -64.5q117 0 169 56h14v-13q-69 -59 -183 -59t-176 69t-62 193q0 120 63 193t161 73q94 0 150 -59t56 -180l-1 -13h-410v-14zM263 510q-86 0 -141.5 -59t-62.5 -162h391q-1 114 -51 167.5t-136 53.5zM362 700v-10l-92 -112h-20l-92 112v10
h13l89 -105l89 105h13z" />
    <glyph glyph-name="Gcircumflex" unicode="&#x11c;" horiz-adv-x="678" 
d="M369 -3q-149 0 -234 90.5t-85 265.5q0 171 91.5 260.5t227.5 89.5q130 0 204 -61v-17h-14q-62 62 -190 62q-132 0 -214.5 -84.5t-82.5 -248.5q0 -168 77.5 -253.5t219.5 -85.5q122 0 203 50v251h-167v17h188v-278q-99 -58 -224 -58zM264 739v10l88 92h20l88 -92v-10h-13
l-85 85l-85 -85h-13z" />
    <glyph glyph-name="gcircumflex" unicode="&#x11d;" horiz-adv-x="549" 
d="M468 520v-524q0 -57 -32 -94.5t-75.5 -52t-96.5 -14.5q-116 0 -194 47v18h12q58 -49 180 -49q78 0 132.5 35t54.5 111v114q-77 -114 -210 -114q-38 0 -71.5 13t-63.5 41t-47.5 80.5t-17.5 124.5q0 74 19.5 128.5t53 84t71 43t79.5 13.5q121 0 187 -81v50q0 16 3 21t11 5
h5zM240 13q128 0 209 123v286q-72 87 -187 87q-39 0 -72.5 -11.5t-64.5 -38.5t-49 -78.5t-18 -123.5q0 -70 16 -120t44 -75.5t58 -37t64 -11.5zM174 578v10l92 112h20l92 -112v-10h-13l-89 105l-89 -105h-13z" />
    <glyph glyph-name="Gbreve" unicode="&#x11e;" horiz-adv-x="678" 
d="M369 -3q-149 0 -234 90.5t-85 265.5q0 171 91.5 260.5t227.5 89.5q130 0 204 -61v-17h-14q-62 62 -190 62q-132 0 -214.5 -84.5t-82.5 -248.5q0 -168 77.5 -253.5t219.5 -85.5q122 0 203 50v251h-167v17h188v-278q-99 -58 -224 -58zM362 741q-42 0 -70 22t-36 60v11h18
q4 -37 27 -57t61 -20t61 20t27 57h18v-11q-8 -38 -36 -60t-70 -22z" />
    <glyph glyph-name="gbreve" unicode="&#x11f;" horiz-adv-x="549" 
d="M468 520v-524q0 -57 -32 -94.5t-75.5 -52t-96.5 -14.5q-116 0 -194 47v18h12q58 -49 180 -49q78 0 132.5 35t54.5 111v114q-77 -114 -210 -114q-38 0 -71.5 13t-63.5 41t-47.5 80.5t-17.5 124.5q0 74 19.5 128.5t53 84t71 43t79.5 13.5q121 0 187 -81v50q0 16 3 21t11 5
h5zM240 13q128 0 209 123v286q-72 87 -187 87q-39 0 -72.5 -11.5t-64.5 -38.5t-49 -78.5t-18 -123.5q0 -70 16 -120t44 -75.5t58 -37t64 -11.5zM276 580q-42 0 -69.5 25t-36.5 65v11h18q4 -40 27.5 -62.5t60.5 -22.5t60.5 22.5t27.5 62.5h18v-11q-9 -40 -36.5 -65t-69.5 -25
z" />
    <glyph glyph-name="Gdotaccent" unicode="&#x120;" horiz-adv-x="678" 
d="M369 -3q-149 0 -234 90.5t-85 265.5q0 171 91.5 260.5t227.5 89.5q130 0 204 -61v-17h-14q-62 62 -190 62q-132 0 -214.5 -84.5t-82.5 -248.5q0 -168 77.5 -253.5t219.5 -85.5q122 0 203 50v251h-167v17h188v-278q-99 -58 -224 -58zM362 790q8 0 13 -5t5 -13t-5 -13
t-13 -5t-13 5t-5 13t5 13t13 5z" />
    <glyph glyph-name="gdotaccent" unicode="&#x121;" horiz-adv-x="549" 
d="M468 520v-524q0 -57 -32 -94.5t-75.5 -52t-96.5 -14.5q-116 0 -194 47v18h12q58 -49 180 -49q78 0 132.5 35t54.5 111v114q-77 -114 -210 -114q-38 0 -71.5 13t-63.5 41t-47.5 80.5t-17.5 124.5q0 74 19.5 128.5t53 84t71 43t79.5 13.5q121 0 187 -81v50q0 16 3 21t11 5
h5zM240 13q128 0 209 123v286q-72 87 -187 87q-39 0 -72.5 -11.5t-64.5 -38.5t-49 -78.5t-18 -123.5q0 -70 16 -120t44 -75.5t58 -37t64 -11.5zM276 649q8 0 13 -5.5t5 -12.5t-5 -12.5t-13 -5.5t-13 5.5t-5 12.5t5 12.5t13 5.5z" />
    <glyph glyph-name="Gcommaaccent" unicode="&#x122;" horiz-adv-x="678" 
d="M369 -3q-149 0 -234 90.5t-85 265.5q0 171 91.5 260.5t227.5 89.5q130 0 204 -61v-17h-14q-62 62 -190 62q-132 0 -214.5 -84.5t-82.5 -248.5q0 -168 77.5 -253.5t219.5 -85.5q122 0 203 50v251h-167v17h188v-278q-99 -58 -224 -58zM332 -153v15q30 13 30 42q0 10 -11 17
q-10 7 -10 19q0 8 5.5 13.5t12.5 5.5q25 0 25 -34q0 -61 -52 -78z" />
    <glyph glyph-name="gcommaaccent" unicode="&#x123;" horiz-adv-x="549" 
d="M468 520v-524q0 -57 -32 -94.5t-75.5 -52t-96.5 -14.5q-116 0 -194 47v18h12q58 -49 180 -49q78 0 132.5 35t54.5 111v114q-77 -114 -210 -114q-38 0 -71.5 13t-63.5 41t-47.5 80.5t-17.5 124.5q0 74 19.5 128.5t53 84t71 43t79.5 13.5q121 0 187 -81v50q0 16 3 21t11 5
h5zM240 13q128 0 209 123v286q-72 87 -187 87q-39 0 -72.5 -11.5t-64.5 -38.5t-49 -78.5t-18 -123.5q0 -70 16 -120t44 -75.5t58 -37t64 -11.5zM299 708v-15q-30 -13 -30 -42q0 -10 11 -17q10 -7 10 -19q0 -8 -5.5 -13.5t-12.5 -5.5q-25 0 -25 34q0 61 52 78z" />
    <glyph glyph-name="Hcircumflex" unicode="&#x124;" horiz-adv-x="687" 
d="M117 0h-20v700h20v-329h453v329h20v-700h-20v354h-453v-354zM245 739v10l88 92h20l88 -92v-10h-13l-85 85l-85 -85h-13z" />
    <glyph glyph-name="hcircumflex" unicode="&#x125;" horiz-adv-x="551" 
d="M100 677v-261q125 109 241 109q134 0 134 -130v-395h-19v392q0 67 -30.5 92t-85.5 25q-118 0 -240 -111v-398h-19v700h5q9 0 11.5 -4t2.5 -19zM178 723v10l92 112h20l92 -112v-10h-13l-89 105l-89 -105h-13z" />
    <glyph glyph-name="Hbar" unicode="&#x126;" horiz-adv-x="687" 
d="M9 526v16h88v158h20v-158h453v158h20v-158h88v-16h-88v-526h-20v354h-453v-354h-20v526h-88zM117 371h453v155h-453v-155z" />
    <glyph glyph-name="hbar" unicode="&#x127;" horiz-adv-x="551" 
d="M100 677v-64h160v-16h-160v-181q125 109 241 109q134 0 134 -130v-395h-19v392q0 67 -30.5 92t-85.5 25q-118 0 -240 -111v-398h-19v597h-73v16h73v87h5q9 0 11.5 -4t2.5 -19z" />
    <glyph glyph-name="Imacron" unicode="&#x12a;" horiz-adv-x="218" 
d="M119 0h-20v700h20v-700zM1 772v15h216v-15h-216z" />
    <glyph glyph-name="imacron" unicode="&#x12b;" horiz-adv-x="187" 
d="M103 0h-19v520h5q9 0 11.5 -4.5t2.5 -21.5v-494zM15 621v15h156v-15h-156z" />
    <glyph glyph-name="Iogonek" unicode="&#x12e;" horiz-adv-x="218" 
d="M103 -164q-33 0 -53 18.5t-20 47.5q0 49 69 98v700h20v-702q-37 -27 -53.5 -48t-16.5 -48q0 -49 56 -49h36v-14q-15 -3 -38 -3z" />
    <glyph glyph-name="iogonek" unicode="&#x12f;" horiz-adv-x="187" 
d="M88 -164q-33 0 -53 18.5t-20 47.5q0 49 69 98v520h5q9 0 11.5 -4.5t2.5 -21.5v-496q-36 -28 -52.5 -49t-16.5 -47q0 -49 56 -49h36v-14q-15 -3 -38 -3zM94 613q-8 0 -13 5.5t-5 12.5t5 12.5t13 5.5t13 -5.5t5 -12.5t-5 -12.5t-13 -5.5z" />
    <glyph glyph-name="Idotaccent" unicode="&#x130;" horiz-adv-x="218" 
d="M119 0h-20v700h20v-700zM109 790q7 0 12.5 -5t5.5 -13t-5.5 -13t-12.5 -5t-12.5 5t-5.5 13t5.5 13t12.5 5z" />
    <glyph glyph-name="dotlessi" unicode="&#x131;" horiz-adv-x="187" 
d="M103 0h-19v520h5q9 0 11.5 -4.5t2.5 -21.5v-494z" />
    <glyph glyph-name="Jcircumflex" unicode="&#x134;" horiz-adv-x="400" 
d="M149 -4q-77 0 -129 37v18h12q38 -38 117 -38q138 0 138 136v551h20v-551q0 -153 -158 -153zM200 739v10l88 92h20l88 -92v-10h-13l-85 85l-85 -85h-13z" />
    <glyph glyph-name="jcircumflex" unicode="&#x135;" horiz-adv-x="187" 
d="M103 494v-566q0 -43 -22.5 -67t-66.5 -24q-12 0 -28 2v14h28q70 0 70 75v592h5q9 0 11.5 -4.5t2.5 -21.5zM-9 578v10l92 112h20l92 -112v-10h-13l-89 105l-89 -105h-13z" />
    <glyph glyph-name="Kcommaaccent" unicode="&#x136;" horiz-adv-x="607" 
d="M97 0v700h20v-435l407 435h12v-12l-259 -277l283 -398v-13h-14l-282 397l-147 -157v-240h-20zM268 -153v15q30 13 30 42q0 10 -11 17q-10 7 -10 19q0 8 5.5 13.5t12.5 5.5q25 0 25 -34q0 -61 -52 -78z" />
    <glyph glyph-name="kcommaaccent" unicode="&#x137;" horiz-adv-x="453" 
d="M100 677v-484l297 327h14v-12l-194 -210l207 -287v-11h-14l-205 284l-105 -116v-168h-19v700h5q9 0 11.5 -4t2.5 -19zM198 -153v15q30 13 30 42q0 10 -11 17q-10 7 -10 19q0 8 5.5 13.5t12.5 5.5q25 0 25 -34q0 -61 -52 -78z" />
    <glyph glyph-name="Lacute" unicode="&#x139;" horiz-adv-x="546" 
d="M507 0h-410v700h20v-683h390v-17zM102 739h-13v9l66 93h16v-11z" />
    <glyph glyph-name="lacute" unicode="&#x13a;" horiz-adv-x="185" 
d="M83 700h5q9 0 11.5 -4t2.5 -19v-677h-19v700zM82 723v9l89 113h16v-11l-92 -111h-13z" />
    <glyph glyph-name="Lcommaaccent" unicode="&#x13b;" horiz-adv-x="546" 
d="M507 0h-410v700h20v-683h390v-17zM280 -153v15q30 13 30 42q0 10 -11 17q-10 7 -10 19q0 8 5.5 13.5t12.5 5.5q25 0 25 -34q0 -61 -52 -78z" />
    <glyph glyph-name="lcommaaccent" unicode="&#x13c;" horiz-adv-x="185" 
d="M83 700h5q9 0 11.5 -4t2.5 -19v-677h-19v700zM62 -153v15q30 13 30 42q0 10 -11 17q-10 7 -10 19q0 8 5.5 13.5t12.5 5.5q25 0 25 -34q0 -61 -52 -78z" />
    <glyph glyph-name="Lcaron" unicode="&#x13d;" horiz-adv-x="546" 
d="M323 578l10 122h20v-11l-17 -111h-13zM507 0h-410v700h20v-683h390v-17z" />
    <glyph glyph-name="lcaron" unicode="&#x13e;" horiz-adv-x="185" 
d="M165 578l10 122h19v-11l-16 -111h-13zM83 700h5q9 0 11.5 -4t2.5 -19v-677h-19v700z" />
    <glyph glyph-name="Lslash" unicode="&#x141;" horiz-adv-x="546" 
d="M507 0h-410v280l-90 -40v18l90 40v402h20v-393l256 113v-18l-256 -113v-272h390v-17z" />
    <glyph glyph-name="lslash" unicode="&#x142;" horiz-adv-x="185" 
d="M83 700h5q9 0 11.5 -4t2.5 -19v-247l82 60v-20l-82 -60v-410h-19v396l-81 -58v20l81 58v284z" />
    <glyph glyph-name="Nacute" unicode="&#x143;" horiz-adv-x="680" 
d="M97 0v700h30l436 -666h1v666h19v-700h-20l-446 681h-1v-681h-19zM346 739h-13v9l66 93h16v-11z" />
    <glyph glyph-name="nacute" unicode="&#x144;" horiz-adv-x="551" 
d="M100 494v-78q125 109 241 109q134 0 134 -130v-395h-19v392q0 67 -30.5 92t-85.5 25q-118 0 -240 -111v-398h-19v520h5q9 0 11.5 -4.5t2.5 -21.5zM264 578v9l89 113h16v-11l-92 -111h-13z" />
    <glyph glyph-name="Ncommaaccent" unicode="&#x145;" horiz-adv-x="680" 
d="M97 0v700h30l436 -666h1v666h19v-700h-20l-446 681h-1v-681h-19zM291 -153v15q30 13 30 42q0 10 -11 17q-10 7 -10 19q0 8 5.5 13.5t12.5 5.5q25 0 25 -34q0 -61 -52 -78z" />
    <glyph glyph-name="ncommaaccent" unicode="&#x146;" horiz-adv-x="551" 
d="M100 494v-78q125 109 241 109q134 0 134 -130v-395h-19v392q0 67 -30.5 92t-85.5 25q-118 0 -240 -111v-398h-19v520h5q9 0 11.5 -4.5t2.5 -21.5zM252 -153v15q30 13 30 42q0 10 -11 17q-10 7 -10 19q0 8 5.5 13.5t12.5 5.5q25 0 25 -34q0 -61 -52 -78z" />
    <glyph glyph-name="Ncaron" unicode="&#x147;" horiz-adv-x="680" 
d="M97 0v700h30l436 -666h1v666h19v-700h-20l-446 681h-1v-681h-19zM450 841v-10l-88 -92h-20l-88 92v10h13l85 -85l85 85h13z" />
    <glyph glyph-name="ncaron" unicode="&#x148;" horiz-adv-x="551" 
d="M100 494v-78q125 109 241 109q134 0 134 -130v-395h-19v392q0 67 -30.5 92t-85.5 25q-118 0 -240 -111v-398h-19v520h5q9 0 11.5 -4.5t2.5 -21.5zM384 700v-10l-92 -112h-20l-92 112v10h13l89 -105l89 105h13z" />
    <glyph glyph-name="Omacron" unicode="&#x14c;" horiz-adv-x="713" 
d="M357 -3q-132 0 -219.5 93.5t-87.5 259.5t87.5 259.5t219.5 93.5t219 -93.5t87 -259.5t-87 -259.5t-219 -93.5zM357 14q125 0 205.5 88.5t80.5 247.5q0 158 -80.5 247t-205.5 89t-206 -89t-81 -247q0 -159 80.5 -247.5t206.5 -88.5zM248 772v15h216v-15h-216z" />
    <glyph glyph-name="omacron" unicode="&#x14d;" horiz-adv-x="546" 
d="M273 -3q-108 0 -171 70.5t-63 193.5q0 122 63 193t171 71t171 -71t63 -193q0 -123 -63 -193.5t-171 -70.5zM273 13q101 0 158 66t57 182t-57 182t-158 66q-100 0 -157.5 -66t-57.5 -182t57 -182t158 -66zM170 621v15h206v-15h-206z" />
    <glyph glyph-name="Ohungarumlaut" unicode="&#x150;" horiz-adv-x="713" 
d="M357 -3q-132 0 -219.5 93.5t-87.5 259.5t87.5 259.5t219.5 93.5t219 -93.5t87 -259.5t-87 -259.5t-219 -93.5zM357 14q125 0 205.5 88.5t80.5 247.5q0 158 -80.5 247t-205.5 89t-206 -89t-81 -247q0 -159 80.5 -247.5t206.5 -88.5zM296 739v7l45 95h18v-11l-48 -91h-15z
M399 739v7l45 95h18v-11l-48 -91h-15z" />
    <glyph glyph-name="ohungarumlaut" unicode="&#x151;" horiz-adv-x="546" 
d="M273 -3q-108 0 -171 70.5t-63 193.5q0 122 63 193t171 71t171 -71t63 -193q0 -123 -63 -193.5t-171 -70.5zM273 13q101 0 158 66t57 182t-57 182t-158 66q-100 0 -157.5 -66t-57.5 -182t57 -182t158 -66zM211 578v7l55 115h18v-11l-58 -111h-15zM314 578v7l55 115h18v-11
l-58 -111h-15z" />
    <glyph glyph-name="OE" unicode="&#x152;" horiz-adv-x="969" 
d="M397 0q-176 0 -261.5 82.5t-85.5 267.5t85.5 267.5t261.5 82.5h520v-17h-374v-311h283v-17h-283v-338h388v-17h-534zM523 683h-126q-169 0 -248 -77.5t-79 -255.5t79 -255.5t248 -77.5h126v666z" />
    <glyph glyph-name="oe" unicode="&#x153;" horiz-adv-x="950" 
d="M504 259q0 -117 54.5 -181.5t161.5 -64.5q117 0 169 56h14v-13q-69 -59 -183 -59q-94 0 -151.5 47.5t-74.5 135.5q-18 -87 -75.5 -135t-145.5 -48q-108 0 -171 70.5t-63 193.5q0 122 63 193t171 71q89 0 146.5 -49t75.5 -138q18 87 74.5 137t136.5 50q94 0 150 -59
t56 -180l-1 -13h-407v-14zM273 13q101 0 156.5 65.5t55.5 182.5q0 116 -55.5 182t-156.5 66q-100 0 -157.5 -66t-57.5 -182t57 -182t158 -66zM706 510q-85 0 -139.5 -59t-61.5 -162h388q-1 114 -51 167.5t-136 53.5z" />
    <glyph glyph-name="Racute" unicode="&#x154;" horiz-adv-x="592" 
d="M525 0l-181 339q-40 -5 -77 -5h-150v-334h-20v700h170q230 0 230 -184q0 -142 -132 -173l176 -330v-13h-16zM117 682v-330h150q106 0 158 34.5t52 129.5q0 93 -55 129.5t-155 36.5h-150zM283 739h-13v9l66 93h16v-11z" />
    <glyph glyph-name="racute" unicode="&#x155;" horiz-adv-x="334" 
d="M100 494v-83q83 112 179 112l22 -2v-16q-9 1 -22 1q-94 0 -179 -118v-388h-19v520h5q9 0 11.5 -4.5t2.5 -21.5zM168 578v9l89 113h16v-11l-92 -111h-13z" />
    <glyph glyph-name="Rcommaaccent" unicode="&#x156;" horiz-adv-x="592" 
d="M525 0l-181 339q-40 -5 -77 -5h-150v-334h-20v700h170q230 0 230 -184q0 -142 -132 -173l176 -330v-13h-16zM117 682v-330h150q106 0 158 34.5t52 129.5q0 93 -55 129.5t-155 36.5h-150zM271 -153v15q30 13 30 42q0 10 -11 17q-10 7 -10 19q0 8 5.5 13.5t12.5 5.5
q25 0 25 -34q0 -61 -52 -78z" />
    <glyph glyph-name="rcommaaccent" unicode="&#x157;" horiz-adv-x="334" 
d="M100 494v-83q83 112 179 112l22 -2v-16q-9 1 -22 1q-94 0 -179 -118v-388h-19v520h5q9 0 11.5 -4.5t2.5 -21.5zM62 -153v15q30 13 30 42q0 10 -11 17q-10 7 -10 19q0 8 5.5 13.5t12.5 5.5q25 0 25 -34q0 -61 -52 -78z" />
    <glyph glyph-name="Rcaron" unicode="&#x158;" horiz-adv-x="592" 
d="M525 0l-181 339q-40 -5 -77 -5h-150v-334h-20v700h170q230 0 230 -184q0 -142 -132 -173l176 -330v-13h-16zM117 682v-330h150q106 0 158 34.5t52 129.5q0 93 -55 129.5t-155 36.5h-150zM387 841v-10l-88 -92h-20l-88 92v10h13l85 -85l85 85h13z" />
    <glyph glyph-name="rcaron" unicode="&#x159;" horiz-adv-x="334" 
d="M100 494v-83q83 112 179 112l22 -2v-16q-9 1 -22 1q-94 0 -179 -118v-388h-19v520h5q9 0 11.5 -4.5t2.5 -21.5zM288 700v-10l-92 -112h-20l-92 112v10h13l89 -105l89 105h13z" />
    <glyph glyph-name="Sacute" unicode="&#x15a;" horiz-adv-x="511" 
d="M245 -3q-77 0 -124.5 16.5t-93.5 47.5v18h14q75 -65 203 -65q91 0 145 42t54 133q0 33 -11 58t-26 40.5t-44 29t-49.5 20t-58.5 17.5l-6 1.5t-5.5 1.5t-6.5 2q-39 11 -58.5 17.5t-49.5 21.5t-45 31.5t-26.5 44t-11.5 62.5q0 73 51 120t148 47q63 0 104.5 -15t83.5 -46
v-17h-14q-66 61 -174 61q-90 0 -135 -42t-45 -107q0 -24 5.5 -43.5t12.5 -33t23 -26t26.5 -19t35 -15.5t35.5 -12.5t41 -11.5l49 -14t43.5 -14.5t42.5 -18.5t33 -23t29 -30.5t16 -37.5t7 -49q0 -98 -59.5 -145t-158.5 -47zM245 739h-13v9l66 93h16v-11z" />
    <glyph glyph-name="sacute" unicode="&#x15b;" horiz-adv-x="418" 
d="M202 -3q-106 0 -168 53v15h14q52 -52 154 -52q81 0 120.5 32.5t39.5 100.5q0 52 -36.5 77.5t-118.5 39.5t-121 41t-39 89t43.5 97t121.5 35q48 0 88 -13.5t60 -31.5v-14h-14q-50 43 -134 43q-71 0 -108.5 -31t-37.5 -85q0 -53 35 -76.5t114 -37.5q84 -15 125 -44t41 -88
q0 -150 -179 -150zM193 578v9l89 113h16v-11l-92 -111h-13z" />
    <glyph glyph-name="Scircumflex" unicode="&#x15c;" horiz-adv-x="511" 
d="M245 -3q-77 0 -124.5 16.5t-93.5 47.5v18h14q75 -65 203 -65q91 0 145 42t54 133q0 33 -11 58t-26 40.5t-44 29t-49.5 20t-58.5 17.5l-6 1.5t-5.5 1.5t-6.5 2q-39 11 -58.5 17.5t-49.5 21.5t-45 31.5t-26.5 44t-11.5 62.5q0 73 51 120t148 47q63 0 104.5 -15t83.5 -46
v-17h-14q-66 61 -174 61q-90 0 -135 -42t-45 -107q0 -24 5.5 -43.5t12.5 -33t23 -26t26.5 -19t35 -15.5t35.5 -12.5t41 -11.5l49 -14t43.5 -14.5t42.5 -18.5t33 -23t29 -30.5t16 -37.5t7 -49q0 -98 -59.5 -145t-158.5 -47zM153 739v10l88 92h20l88 -92v-10h-13l-85 85
l-85 -85h-13z" />
    <glyph glyph-name="scircumflex" unicode="&#x15d;" horiz-adv-x="418" 
d="M202 -3q-106 0 -168 53v15h14q52 -52 154 -52q81 0 120.5 32.5t39.5 100.5q0 52 -36.5 77.5t-118.5 39.5t-121 41t-39 89t43.5 97t121.5 35q48 0 88 -13.5t60 -31.5v-14h-14q-50 43 -134 43q-71 0 -108.5 -31t-37.5 -85q0 -53 35 -76.5t114 -37.5q84 -15 125 -44t41 -88
q0 -150 -179 -150zM109 578v10l92 112h20l92 -112v-10h-13l-89 105l-89 -105h-13z" />
    <glyph glyph-name="Scedilla" unicode="&#x15e;" horiz-adv-x="511" 
d="M245 -3v-47q81 0 81 -62q0 -29 -20 -45t-52 -16q-41 0 -69 21v15h13q12 -20 56 -20q54 0 54 45q0 26 -15.5 36t-53.5 10h-11v63q-114 3 -201 64v18h14q75 -65 203 -65q91 0 145 42t54 133q0 33 -11 58t-26 40.5t-44 29t-49.5 20t-58.5 17.5l-6 1.5t-5.5 1.5t-6.5 2
q-39 11 -58.5 17.5t-49.5 21.5t-45 31.5t-26.5 44t-11.5 62.5q0 73 51 120t148 47q63 0 104.5 -15t83.5 -46v-17h-14q-66 61 -174 61q-90 0 -135 -42t-45 -107q0 -24 5.5 -43.5t12.5 -33t23 -26t26.5 -19t35 -15.5t35.5 -12.5t41 -11.5l49 -14t43.5 -14.5t42.5 -18.5t33 -23
t29 -30.5t16 -37.5t7 -49q0 -98 -59.5 -145t-158.5 -47z" />
    <glyph glyph-name="scedilla" unicode="&#x15f;" horiz-adv-x="418" 
d="M381 147q0 -149 -175 -150v-47q81 0 81 -62q0 -29 -20 -45t-52 -16q-41 0 -69 21v15h13q12 -20 56 -20q54 0 54 45q0 26 -15.5 36t-53.5 10h-11v63q-99 4 -155 53v15h14q52 -52 154 -52q81 0 120.5 32.5t39.5 100.5q0 52 -36.5 77.5t-118.5 39.5t-121 41t-39 89t43.5 97
t121.5 35q48 0 88 -13.5t60 -31.5v-14h-14q-50 43 -134 43q-71 0 -108.5 -31t-37.5 -85q0 -53 35 -76.5t114 -37.5q84 -15 125 -44t41 -88z" />
    <glyph glyph-name="Scaron" unicode="&#x160;" horiz-adv-x="511" 
d="M245 -3q-77 0 -124.5 16.5t-93.5 47.5v18h14q75 -65 203 -65q91 0 145 42t54 133q0 33 -11 58t-26 40.5t-44 29t-49.5 20t-58.5 17.5l-6 1.5t-5.5 1.5t-6.5 2q-39 11 -58.5 17.5t-49.5 21.5t-45 31.5t-26.5 44t-11.5 62.5q0 73 51 120t148 47q63 0 104.5 -15t83.5 -46
v-17h-14q-66 61 -174 61q-90 0 -135 -42t-45 -107q0 -24 5.5 -43.5t12.5 -33t23 -26t26.5 -19t35 -15.5t35.5 -12.5t41 -11.5l49 -14t43.5 -14.5t42.5 -18.5t33 -23t29 -30.5t16 -37.5t7 -49q0 -98 -59.5 -145t-158.5 -47zM349 841v-10l-88 -92h-20l-88 92v10h13l85 -85
l85 85h13z" />
    <glyph glyph-name="scaron" unicode="&#x161;" horiz-adv-x="418" 
d="M202 -3q-106 0 -168 53v15h14q52 -52 154 -52q81 0 120.5 32.5t39.5 100.5q0 52 -36.5 77.5t-118.5 39.5t-121 41t-39 89t43.5 97t121.5 35q48 0 88 -13.5t60 -31.5v-14h-14q-50 43 -134 43q-71 0 -108.5 -31t-37.5 -85q0 -53 35 -76.5t114 -37.5q84 -15 125 -44t41 -88
q0 -150 -179 -150zM313 700v-10l-92 -112h-20l-92 112v10h13l89 -105l89 105h13z" />
    <glyph glyph-name="Tcommaaccent" unicode="&#x162;" horiz-adv-x="554" 
d="M287 0h-20v683h-241v17h502v-17h-241v-683zM247 -153v15q30 13 30 42q0 10 -11 17q-10 7 -10 19q0 8 5.5 13.5t12.5 5.5q25 0 25 -34q0 -61 -52 -78z" />
    <glyph glyph-name="tcommaaccent" unicode="&#x163;" horiz-adv-x="291" 
d="M18 504v16h70v146h19v-146h150v-16h-150v-399q0 -48 23 -69t73 -21h68v-14q-30 -4 -72 -4q-111 0 -111 107v400h-70zM146 -153v15q30 13 30 42q0 10 -11 17q-10 7 -10 19q0 8 5.5 13.5t12.5 5.5q25 0 25 -34q0 -61 -52 -78z" />
    <glyph glyph-name="Tcaron" unicode="&#x164;" horiz-adv-x="554" 
d="M287 0h-20v683h-241v17h502v-17h-241v-683zM375 841v-10l-88 -92h-20l-88 92v10h13l85 -85l85 85h13z" />
    <glyph glyph-name="tcaron" unicode="&#x165;" horiz-adv-x="291" 
d="M18 504v16h70v146h19v-146h150v-16h-150v-399q0 -48 23 -69t73 -21h68v-14q-30 -4 -72 -4q-111 0 -111 107v400h-70zM178 578l10 122h19v-11l-16 -111h-13z" />
    <glyph glyph-name="Umacron" unicode="&#x16a;" horiz-adv-x="678" 
d="M342 14q224 0 224 207v479h20v-478q0 -63 -20 -108t-55 -70t-77 -36t-93 -11t-93.5 11t-78.5 35.5t-56.5 70t-20.5 108.5v478h20v-479q0 -111 63.5 -159t166.5 -48zM231 772v15h216v-15h-216z" />
    <glyph glyph-name="umacron" unicode="&#x16b;" horiz-adv-x="543" 
d="M443 23v74q-117 -102 -235 -102q-62 0 -97 28t-35 100v397h19v-394q0 -67 29.5 -91t84.5 -24q112 0 234 104v405h19v-520h-5q-8 0 -11 4.5t-3 18.5zM167 621v15h206v-15h-206z" />
    <glyph glyph-name="Ubreve" unicode="&#x16c;" horiz-adv-x="678" 
d="M342 14q224 0 224 207v479h20v-478q0 -63 -20 -108t-55 -70t-77 -36t-93 -11t-93.5 11t-78.5 35.5t-56.5 70t-20.5 108.5v478h20v-479q0 -111 63.5 -159t166.5 -48zM339 741q-42 0 -70 22t-36 60v11h18q4 -37 27 -57t61 -20t61 20t27 57h18v-11q-8 -38 -36 -60t-70 -22z
" />
    <glyph glyph-name="ubreve" unicode="&#x16d;" horiz-adv-x="543" 
d="M443 23v74q-117 -102 -235 -102q-62 0 -97 28t-35 100v397h19v-394q0 -67 29.5 -91t84.5 -24q112 0 234 104v405h19v-520h-5q-8 0 -11 4.5t-3 18.5zM270 580q-42 0 -69.5 25t-36.5 65v11h18q4 -40 27.5 -62.5t60.5 -22.5t60.5 22.5t27.5 62.5h18v-11q-9 -40 -36.5 -65
t-69.5 -25z" />
    <glyph glyph-name="Uring" unicode="&#x16e;" horiz-adv-x="678" 
d="M342 14q224 0 224 207v479h20v-478q0 -63 -20 -108t-55 -70t-77 -36t-93 -11t-93.5 11t-78.5 35.5t-56.5 70t-20.5 108.5v478h20v-479q0 -111 63.5 -159t166.5 -48zM343 702q-33 0 -56.5 22t-23.5 57q0 34 24 56.5t56 22.5t55.5 -22.5t23.5 -56.5q0 -35 -23.5 -57
t-55.5 -22zM281 781q0 -29 17.5 -46t44.5 -17q26 0 43.5 17t17.5 46q0 28 -17.5 45.5t-43.5 17.5q-27 0 -44.5 -17.5t-17.5 -45.5z" />
    <glyph glyph-name="uring" unicode="&#x16f;" horiz-adv-x="543" 
d="M443 23v74q-117 -102 -235 -102q-62 0 -97 28t-35 100v397h19v-394q0 -67 29.5 -91t84.5 -24q112 0 234 104v405h19v-520h-5q-8 0 -11 4.5t-3 18.5zM271 578q-33 0 -56.5 22t-23.5 57q0 34 24 56.5t56 22.5t55.5 -22.5t23.5 -56.5q0 -35 -23.5 -57t-55.5 -22zM209 657
q0 -29 17.5 -46t44.5 -17q26 0 43.5 17t17.5 46q0 28 -17.5 45.5t-43.5 17.5q-27 0 -44.5 -17.5t-17.5 -45.5z" />
    <glyph glyph-name="Uhungarumlaut" unicode="&#x170;" horiz-adv-x="678" 
d="M342 14q224 0 224 207v479h20v-478q0 -63 -20 -108t-55 -70t-77 -36t-93 -11t-93.5 11t-78.5 35.5t-56.5 70t-20.5 108.5v478h20v-479q0 -111 63.5 -159t166.5 -48zM279 739v7l45 95h18v-11l-48 -91h-15zM382 739v7l45 95h18v-11l-48 -91h-15z" />
    <glyph glyph-name="uhungarumlaut" unicode="&#x171;" horiz-adv-x="543" 
d="M443 23v74q-117 -102 -235 -102q-62 0 -97 28t-35 100v397h19v-394q0 -67 29.5 -91t84.5 -24q112 0 234 104v405h19v-520h-5q-8 0 -11 4.5t-3 18.5zM311 578v7l55 115h18v-11l-58 -111h-15zM208 578v7l55 115h18v-11l-58 -111h-15z" />
    <glyph glyph-name="Uogonek" unicode="&#x172;" horiz-adv-x="678" 
d="M369 -164q-33 0 -53 18.5t-20 47.5q0 55 69 96q-7 -1 -24 -1q-51 0 -93.5 11t-78.5 35.5t-56.5 70t-20.5 108.5v478h20v-479q0 -111 63.5 -159t166.5 -48q224 0 224 207v479h20v-478q0 -175 -151 -214q-39 -10 -54.5 -16.5t-32.5 -23.5q-33 -33 -33 -66q0 -49 56 -49h36
v-14q-15 -3 -38 -3z" />
    <glyph glyph-name="uogonek" unicode="&#x173;" horiz-adv-x="543" 
d="M448 -164q-33 0 -53 18.5t-20 47.5q0 50 68 98v97q-117 -102 -235 -102q-62 0 -97 28t-35 100v397h19v-394q0 -67 29.5 -91t84.5 -24q112 0 234 104v405h19v-523q-35 -26 -51.5 -47.5t-16.5 -47.5q0 -49 56 -49h36v-14q-15 -3 -38 -3z" />
    <glyph glyph-name="Ydieresis" unicode="&#x178;" horiz-adv-x="539" 
d="M279 0h-20v299l-229 388v13h14l225 -383h1l226 383h13v-13l-230 -388v-299zM207 754q-7 0 -12.5 5t-5.5 13t5.5 13t12.5 5t12.5 -5t5.5 -13t-5.5 -13t-12.5 -5zM333 754q-7 0 -12.5 5t-5.5 13t5.5 13t12.5 5t12.5 -5t5.5 -13t-5.5 -13t-12.5 -5z" />
    <glyph glyph-name="Zacute" unicode="&#x179;" horiz-adv-x="592" 
d="M51 0v18l468 664v1h-441v17h463v-19l-468 -663v-1h453v-17h-475zM313 739h-13v9l66 93h16v-11z" />
    <glyph glyph-name="zacute" unicode="&#x17a;" horiz-adv-x="454" 
d="M31 0v15l370 490h-347v15h369v-16l-370 -489h364v-15h-386zM224 578v9l89 113h16v-11l-92 -111h-13z" />
    <glyph glyph-name="Zdotaccent" unicode="&#x17b;" horiz-adv-x="592" 
d="M51 0v18l468 664v1h-441v17h463v-19l-468 -663v-1h453v-17h-475zM319 790q7 0 12.5 -5t5.5 -13t-5.5 -13t-12.5 -5t-12.5 5t-5.5 13t5.5 13t12.5 5z" />
    <glyph glyph-name="zdotaccent" unicode="&#x17c;" horiz-adv-x="454" 
d="M31 0v15l370 490h-347v15h369v-16l-370 -489h364v-15h-386zM242 649q8 0 13 -5.5t5 -12.5t-5 -12.5t-13 -5.5t-13 5.5t-5 12.5t5 12.5t13 5.5z" />
    <glyph glyph-name="Zcaron" unicode="&#x17d;" horiz-adv-x="592" 
d="M51 0v18l468 664v1h-441v17h463v-19l-468 -663v-1h453v-17h-475zM417 841v-10l-88 -92h-20l-88 92v10h13l85 -85l85 85h13z" />
    <glyph glyph-name="zcaron" unicode="&#x17e;" horiz-adv-x="454" 
d="M31 0v15l370 490h-347v15h369v-16l-370 -489h364v-15h-386zM344 700v-10l-92 -112h-20l-92 112v10h13l89 -105l89 105h13z" />
    <glyph glyph-name="florin" unicode="&#x192;" horiz-adv-x="321" 
d="M41 420h78l19 155q15 125 128 125q27 0 47 -5v-13h-45q-48 0 -76 -24.5t-35 -84.5l-19 -153h125v-16h-127l-59 -482h-19l59 482h-76v16z" />
    <glyph glyph-name="Scommaaccent" unicode="&#x218;" horiz-adv-x="511" 
d="M245 -3q-77 0 -124.5 16.5t-93.5 47.5v18h14q75 -65 203 -65q91 0 145 42t54 133q0 33 -11 58t-26 40.5t-44 29t-49.5 20t-58.5 17.5l-6 1.5t-5.5 1.5t-6.5 2q-39 11 -58.5 17.5t-49.5 21.5t-45 31.5t-26.5 44t-11.5 62.5q0 73 51 120t148 47q63 0 104.5 -15t83.5 -46
v-17h-14q-66 61 -174 61q-90 0 -135 -42t-45 -107q0 -24 5.5 -43.5t12.5 -33t23 -26t26.5 -19t35 -15.5t35.5 -12.5t41 -11.5l49 -14t43.5 -14.5t42.5 -18.5t33 -23t29 -30.5t16 -37.5t7 -49q0 -98 -59.5 -145t-158.5 -47zM221 -153v15q30 13 30 42q0 10 -11 17
q-10 7 -10 19q0 8 5.5 13.5t12.5 5.5q25 0 25 -34q0 -61 -52 -78z" />
    <glyph glyph-name="scommaaccent" unicode="&#x219;" horiz-adv-x="418" 
d="M202 -3q-106 0 -168 53v15h14q52 -52 154 -52q81 0 120.5 32.5t39.5 100.5q0 52 -36.5 77.5t-118.5 39.5t-121 41t-39 89t43.5 97t121.5 35q48 0 88 -13.5t60 -31.5v-14h-14q-50 43 -134 43q-71 0 -108.5 -31t-37.5 -85q0 -53 35 -76.5t114 -37.5q84 -15 125 -44t41 -88
q0 -150 -179 -150zM181 -153v15q30 13 30 42q0 10 -11 17q-10 7 -10 19q0 8 5.5 13.5t12.5 5.5q25 0 25 -34q0 -61 -52 -78z" />
    <glyph glyph-name="uni0237" unicode="&#x237;" horiz-adv-x="187" 
d="M103 494v-566q0 -43 -22.5 -67t-66.5 -24q-12 0 -28 2v14h28q70 0 70 75v592h5q9 0 11.5 -4.5t2.5 -21.5z" />
    <glyph glyph-name="circumflex" unicode="&#x2c6;" 
d="M103 578v10l92 112h20l92 -112v-10h-13l-89 105l-89 -105h-13z" />
    <glyph glyph-name="caron" unicode="&#x2c7;" 
d="M307 700v-10l-92 -112h-20l-92 112v10h13l89 -105l89 105h13z" />
    <glyph glyph-name="breve" unicode="&#x2d8;" 
d="M205 580q-42 0 -69.5 25t-36.5 65v11h18q4 -40 27.5 -62.5t60.5 -22.5t60.5 22.5t27.5 62.5h18v-11q-9 -40 -36.5 -65t-69.5 -25z" />
    <glyph glyph-name="dotaccent" unicode="&#x2d9;" 
d="M205 649q7 0 12.5 -5.5t5.5 -12.5t-5.5 -12.5t-12.5 -5.5t-12.5 5.5t-5.5 12.5t5.5 12.5t12.5 5.5z" />
    <glyph glyph-name="ring" unicode="&#x2da;" 
d="M205 578q-33 0 -56.5 22t-23.5 57q0 34 24 56.5t56 22.5t55.5 -22.5t23.5 -56.5q0 -35 -23.5 -57t-55.5 -22zM143 657q0 -29 17.5 -46t44.5 -17q26 0 43.5 17t17.5 46q0 28 -17.5 45.5t-43.5 17.5q-27 0 -44.5 -17.5t-17.5 -45.5z" />
    <glyph glyph-name="ogonek" unicode="&#x2db;" horiz-adv-x="394" 
d="M223 -164q-33 0 -53 18.5t-20 47.5q0 49 69 98h22q-37 -28 -54.5 -49.5t-17.5 -48.5q0 -49 56 -49h36v-14q-15 -3 -38 -3z" />
    <glyph glyph-name="tilde" unicode="&#x2dc;" 
d="M89 596v10q5 21 21 37t40 16q21 0 57 -21t53 -21q18 0 30 12.5t15 32.5h16v-10q-14 -52 -61 -52q-21 0 -57 21t-53 21q-38 0 -45 -46h-16z" />
    <glyph glyph-name="hungarumlaut" unicode="&#x2dd;" 
d="M151 578v7l55 115h18v-11l-58 -111h-15zM254 578v7l55 115h18v-11l-58 -111h-15z" />
    <glyph glyph-name="endash" unicode="&#x2013;" horiz-adv-x="381" 
d="M25 281v17h331v-17h-331z" />
    <glyph glyph-name="emdash" unicode="&#x2014;" horiz-adv-x="631" 
d="M25 281v17h581v-17h-581z" />
    <glyph glyph-name="quoteleft" unicode="&#x2018;" horiz-adv-x="110" 
d="M83 687q-30 -13 -30 -42q0 -10 11 -17q10 -7 10 -19q0 -8 -5.5 -13.5t-12.5 -5.5q-25 0 -25 34q0 61 52 78v-15z" />
    <glyph glyph-name="quoteright" unicode="&#x2019;" horiz-adv-x="110" 
d="M27 591v15q30 13 30 42q0 10 -11 17q-10 7 -10 19q0 8 5.5 13.5t12.5 5.5q25 0 25 -34q0 -61 -52 -78z" />
    <glyph glyph-name="quotesinglbase" unicode="&#x201a;" horiz-adv-x="110" 
d="M27 -46q30 13 30 42q0 10 -11 17q-10 7 -10 19q0 8 5.5 13.5t12.5 5.5q25 0 25 -34q0 -61 -52 -78v15z" />
    <glyph glyph-name="quotedblleft" unicode="&#x201c;" horiz-adv-x="195" 
d="M83 687q-30 -13 -30 -42q0 -10 11 -17q10 -7 10 -19q0 -8 -5.5 -13.5t-12.5 -5.5q-25 0 -25 34q0 61 52 78v-15zM168 687q-30 -13 -30 -42q0 -10 11 -17q10 -7 10 -19q0 -8 -5.5 -13.5t-12.5 -5.5q-25 0 -25 34q0 61 52 78v-15z" />
    <glyph glyph-name="quotedblright" unicode="&#x201d;" horiz-adv-x="195" 
d="M112 591v15q30 13 30 42q0 10 -11 17q-10 7 -10 19q0 8 5.5 13.5t12.5 5.5q25 0 25 -34q0 -61 -52 -78zM27 591v15q30 13 30 42q0 10 -11 17q-10 7 -10 19q0 8 5.5 13.5t12.5 5.5q25 0 25 -34q0 -61 -52 -78z" />
    <glyph glyph-name="quotedblbase" unicode="&#x201e;" horiz-adv-x="195" 
d="M112 -46q30 13 30 42q0 10 -11 17q-10 7 -10 19q0 8 5.5 13.5t12.5 5.5q25 0 25 -34q0 -61 -52 -78v15zM27 -46q30 13 30 42q0 10 -11 17q-10 7 -10 19q0 8 5.5 13.5t12.5 5.5q25 0 25 -34q0 -61 -52 -78v15z" />
    <glyph glyph-name="dagger" unicode="&#x2020;" 
d="M212 -49h-14l-3 345v79l3 97l-107 -2h-56v18h56l107 -2l-3 84v130h20v-130l-3 -84l107 2h56v-18h-56l-107 2l3 -97v-79z" />
    <glyph glyph-name="daggerdbl" unicode="&#x2021;" horiz-adv-x="411" 
d="M195 385l3 97l-107 -2h-56v18h56l107 -2l-3 84v120h20v-120l-3 -84l107 2h56v-18h-56l-107 2l3 -97v-119l-3 -97l107 2h56v-18h-56l-107 2l3 -84v-120h-20v120l3 84l-107 -2h-56v18h56l107 -2l-3 97v119z" />
    <glyph glyph-name="bullet" unicode="&#x2022;" horiz-adv-x="274" 
d="M137 202q-47 0 -78.5 29t-31.5 78t31.5 79t78.5 30q48 0 79 -30t31 -79t-31 -78t-79 -29z" />
    <glyph glyph-name="ellipsis" unicode="&#x2026;" horiz-adv-x="350" 
d="M55 -3q-9 0 -15 6t-6 15t6 15t15 6t15 -6t6 -15t-6 -15t-15 -6zM295 -3q-9 0 -15 6t-6 15t6 15t15 6t15 -6t6 -15t-6 -15t-15 -6zM175 -3q-9 0 -15 6t-6 15t6 15t15 6t15 -6t6 -15t-6 -15t-15 -6z" />
    <glyph glyph-name="perthousand" unicode="&#x2030;" horiz-adv-x="1009" 
d="M183 382q57 0 91 40t34 112t-34.5 112.5t-90.5 40.5t-90.5 -40.5t-34.5 -112.5t34 -112t91 -40zM183 366q-62 0 -103.5 44t-41.5 124t41.5 124.5t103.5 44.5t103.5 -44.5t41.5 -124.5t-41.5 -124t-103.5 -44zM597 729l-492 -763h-21l492 763h21zM498 13q57 0 91 40
t34 112t-34.5 112.5t-90.5 40.5t-90.5 -40.5t-34.5 -112.5t34 -112t91 -40zM498 -3q-62 0 -103.5 44t-41.5 124t41.5 124.5t103.5 44.5t103.5 -44.5t41.5 -124.5t-41.5 -124t-103.5 -44zM826 13q57 0 91 40t34 112t-34.5 112.5t-90.5 40.5t-90.5 -40.5t-34.5 -112.5t34 -112
t91 -40zM826 -3q-62 0 -103.5 44t-41.5 124t41.5 124.5t103.5 44.5t103.5 -44.5t41.5 -124.5t-41.5 -124t-103.5 -44z" />
    <glyph glyph-name="guilsinglleft" unicode="&#x2039;" horiz-adv-x="259" 
d="M208 50l-169 202v14l169 203h12v-13l-161 -196v-2l161 -195v-13h-12z" />
    <glyph glyph-name="guilsinglright" unicode="&#x203a;" horiz-adv-x="259" 
d="M51 469l169 -202v-14l-169 -203h-12v13l161 196v2l-161 195v13h12z" />
    <glyph glyph-name="fraction" unicode="&#x2044;" horiz-adv-x="183" 
d="M348 729l-492 -763h-21l492 763h21z" />
    <glyph glyph-name="Euro" unicode="&#x20ac;" horiz-adv-x="598" 
d="M381 299h-266q11 -138 75.5 -211.5t168.5 -73.5q126 0 197 85h14v-15q-39 -42 -87 -64.5t-124 -22.5q-110 0 -181 78t-83 224h-76v16h75q-1 12 -1 38t1 39h-75v16h76q14 141 89.5 218t180.5 77q72 0 113 -19t77 -55v-17h-14q-30 37 -69 55.5t-106 18.5q-101 0 -170 -72
t-81 -206h285l-3 -16h-283q-1 -13 -1 -38q0 -27 1 -39h269z" />
    <glyph glyph-name="trademark" unicode="&#x2122;" horiz-adv-x="581" 
d="M130 431h-20v252h-88v17h198v-17h-90v-252zM272 431v269h32l91 -239h1l92 239h31v-269h-20v246h-1l-95 -246h-16l-95 246h-1v-246h-19z" />
    <glyph glyph-name="onethird" unicode="&#x2153;" horiz-adv-x="641" 
d="M127 334h-19v346l-86 -49h-11v12l103 57h13v-366zM539 729l-492 -763h-21l492 763h21zM497 -2q-71 0 -112 37v15h13q34 -36 99 -36q50 0 76 23.5t26 66.5t-29 61.5t-70 18.5h-34v15h31q41 0 66.5 20.5t25.5 58.5q0 74 -88 74q-58 0 -92 -34h-12v16q43 34 104 34
q50 0 78.5 -23.5t28.5 -66.5q0 -69 -71 -85v-2q36 -4 58.5 -26.5t22.5 -60.5q0 -51 -32 -78.5t-89 -27.5z" />
    <glyph glyph-name="twothirds" unicode="&#x2154;" horiz-adv-x="714" 
d="M257 350v-16h-233v16l116 108q57 53 77 81.5t20 64.5q0 40 -23.5 61t-66.5 21q-62 0 -99 -43h-12v14q45 45 111 45q49 0 79 -26t30 -72q0 -38 -23.5 -71.5t-83.5 -88.5l-103 -94h211zM625 729l-492 -763h-21l492 763h21zM570 -2q-71 0 -112 37v15h13q34 -36 99 -36
q50 0 76 23.5t26 66.5t-29 61.5t-70 18.5h-34v15h31q41 0 66.5 20.5t25.5 58.5q0 74 -88 74q-58 0 -92 -34h-12v16q43 34 104 34q50 0 78.5 -23.5t28.5 -66.5q0 -69 -71 -85v-2q36 -4 58.5 -26.5t22.5 -60.5q0 -51 -32 -78.5t-89 -27.5z" />
    <glyph glyph-name="oneeighth" unicode="&#x215b;" horiz-adv-x="658" 
d="M127 334h-19v346l-86 -49h-11v12l103 57h13v-366zM545 729l-492 -763h-21l492 763h21zM504 -2q-60 0 -95 28t-35 73q0 37 23 62.5t62 33.5v2q-30 6 -48 28.5t-18 53.5q0 39 30.5 64t80.5 25q49 0 80 -25t31 -64q0 -30 -18.5 -51.5t-46.5 -30.5v-2q38 -7 61.5 -32.5
t23.5 -63.5q0 -45 -35 -73t-96 -28zM504 203q44 0 68.5 21t24.5 55q0 33 -24 53t-69 20t-69 -20t-24 -53q0 -34 24 -55t69 -21zM504 14q55 0 83.5 23t28.5 62q0 40 -29 64.5t-83 24.5t-82.5 -24.5t-28.5 -64.5q0 -38 28.5 -61.5t82.5 -23.5z" />
    <glyph glyph-name="threeeighths" unicode="&#x215c;" horiz-adv-x="676" 
d="M124 332q-71 0 -112 37v15h13q34 -36 99 -36q50 0 76 23.5t26 66.5t-29 61.5t-70 18.5h-34v15h31q41 0 66.5 20.5t25.5 58.5q0 74 -88 74q-58 0 -92 -34h-12v16q43 34 104 34q50 0 78.5 -23.5t28.5 -66.5q0 -69 -71 -85v-2q36 -4 58.5 -26.5t22.5 -60.5q0 -51 -32 -78.5
t-89 -27.5zM581 729l-492 -763h-21l492 763h21zM522 -2q-60 0 -95 28t-35 73q0 37 23 62.5t62 33.5v2q-30 6 -48 28.5t-18 53.5q0 39 30.5 64t80.5 25q49 0 80 -25t31 -64q0 -30 -18.5 -51.5t-46.5 -30.5v-2q38 -7 61.5 -32.5t23.5 -63.5q0 -45 -35 -73t-96 -28zM522 203
q44 0 68.5 21t24.5 55q0 33 -24 53t-69 20t-69 -20t-24 -53q0 -34 24 -55t69 -21zM522 14q55 0 83.5 23t28.5 62q0 40 -29 64.5t-83 24.5t-82.5 -24.5t-28.5 -64.5q0 -38 28.5 -61.5t82.5 -23.5z" />
    <glyph glyph-name="fiveeighths" unicode="&#x215d;" horiz-adv-x="676" 
d="M250 456q0 -54 -37.5 -89t-94.5 -35q-64 0 -106 38v15h13q31 -37 93 -37q49 0 81 29.5t32 78.5q0 46 -25.5 71t-66.5 25q-53 0 -93 -40h-17v188h195v-16h-178v-154h1q35 37 92 37q48 0 79.5 -28.5t31.5 -82.5zM581 729l-492 -763h-21l492 763h21zM522 -2q-60 0 -95 28
t-35 73q0 37 23 62.5t62 33.5v2q-30 6 -48 28.5t-18 53.5q0 39 30.5 64t80.5 25q49 0 80 -25t31 -64q0 -30 -18.5 -51.5t-46.5 -30.5v-2q38 -7 61.5 -32.5t23.5 -63.5q0 -45 -35 -73t-96 -28zM522 203q44 0 68.5 21t24.5 55q0 33 -24 53t-69 20t-69 -20t-24 -53
q0 -34 24 -55t69 -21zM522 14q55 0 83.5 23t28.5 62q0 40 -29 64.5t-83 24.5t-82.5 -24.5t-28.5 -64.5q0 -38 28.5 -61.5t82.5 -23.5z" />
    <glyph glyph-name="seveneighths" unicode="&#x215e;" horiz-adv-x="658" 
d="M73 334v11l167 337v2h-221v16h240v-17l-170 -349h-16zM538 729l-492 -763h-21l492 763h21zM504 -2q-60 0 -95 28t-35 73q0 37 23 62.5t62 33.5v2q-30 6 -48 28.5t-18 53.5q0 39 30.5 64t80.5 25q49 0 80 -25t31 -64q0 -30 -18.5 -51.5t-46.5 -30.5v-2q38 -7 61.5 -32.5
t23.5 -63.5q0 -45 -35 -73t-96 -28zM504 203q44 0 68.5 21t24.5 55q0 33 -24 53t-69 20t-69 -20t-24 -53q0 -34 24 -55t69 -21zM504 14q55 0 83.5 23t28.5 62q0 40 -29 64.5t-83 24.5t-82.5 -24.5t-28.5 -64.5q0 -38 28.5 -61.5t82.5 -23.5z" />
    <glyph glyph-name="minus" unicode="&#x2212;" horiz-adv-x="456" 
d="M415 337h-374v17h374v-17z" />
    <glyph glyph-name="fi" unicode="&#xfb01;" horiz-adv-x="446" 
d="M18 504v16h70v55q0 125 108 125q24 0 44 -5v-13h-44q-89 0 -89 -107v-55h133v-16h-133v-504h-19v504h-70zM362 0h-19v520h5q9 0 11.5 -4.5t2.5 -21.5v-494zM353 613q-7 0 -12.5 5.5t-5.5 12.5t5.5 12.5t12.5 5.5t12.5 -5.5t5.5 -12.5t-5.5 -12.5t-12.5 -5.5z" />
    <glyph glyph-name="fl" unicode="&#xfb02;" horiz-adv-x="444" 
d="M18 504v16h70v55q0 125 108 125q24 0 44 -5v-13h-44q-89 0 -89 -107v-55h133v-16h-133v-504h-19v504h-70zM342 700h5q9 0 11.5 -4t2.5 -19v-677h-19v700z" />
    <glyph glyph-name="space_uni0326" 
d="M173 -153v15q30 13 30 42q0 10 -11 17q-10 7 -10 19q0 8 5.5 13.5t12.5 5.5q25 0 25 -34q0 -61 -52 -78z" />
    <glyph glyph-name="zero.numerator" horiz-adv-x="356" 
d="M178 332q-66 0 -109.5 48.5t-43.5 136.5t43.5 136.5t109.5 48.5q65 0 109 -48.5t44 -136.5t-44 -136.5t-109 -48.5zM178 348q59 0 96.5 43t37.5 126q0 82 -37.5 125.5t-96.5 43.5q-60 0 -97 -43t-37 -126t37 -126t97 -43z" />
    <glyph glyph-name="one.numerator" horiz-adv-x="198" 
d="M127 334h-19v346l-86 -49h-11v12l103 57h13v-366z" />
    <glyph glyph-name="two.numerator" horiz-adv-x="280" 
d="M257 350v-16h-233v16l116 108q57 53 77 81.5t20 64.5q0 40 -23.5 61t-66.5 21q-62 0 -99 -43h-12v14q45 45 111 45q49 0 79 -26t30 -72q0 -38 -23.5 -71.5t-83.5 -88.5l-103 -94h211z" />
    <glyph glyph-name="three.numerator" horiz-adv-x="268" 
d="M124 332q-71 0 -112 37v15h13q34 -36 99 -36q50 0 76 23.5t26 66.5t-29 61.5t-70 18.5h-34v15h31q41 0 66.5 20.5t25.5 58.5q0 74 -88 74q-58 0 -92 -34h-12v16q43 34 104 34q50 0 78.5 -23.5t28.5 -66.5q0 -69 -71 -85v-2q36 -4 58.5 -26.5t22.5 -60.5q0 -51 -32 -78.5
t-89 -27.5z" />
    <glyph glyph-name="four.numerator" horiz-adv-x="319" 
d="M234 334h-18v97h-195v16l198 253h15v-255h60v-14h-60v-97zM42 447v-2h174v223h-2z" />
    <glyph glyph-name="five.numerator" horiz-adv-x="273" 
d="M250 456q0 -54 -37.5 -89t-94.5 -35q-64 0 -106 38v15h13q31 -37 93 -37q49 0 81 29.5t32 78.5q0 46 -25.5 71t-66.5 25q-53 0 -93 -40h-17v188h195v-16h-178v-154h1q35 37 92 37q48 0 79.5 -28.5t31.5 -82.5z" />
    <glyph glyph-name="six.numerator" horiz-adv-x="308" 
d="M44 509v-8q44 54 124 54q50 0 84 -26t34 -81q0 -54 -34.5 -85t-87.5 -31q-60 0 -99.5 44.5t-39.5 132.5q0 90 48.5 141.5t120.5 51.5q45 0 75 -19v-15h-13q-24 18 -63 18q-66 0 -107.5 -45.5t-41.5 -131.5zM165 540q-35 0 -68 -15.5t-52 -41.5q5 -70 38 -102.5t81 -32.5
q46 0 74.5 26t28.5 74q0 49 -28.5 70.5t-73.5 21.5z" />
    <glyph glyph-name="seven.numerator" horiz-adv-x="276" 
d="M73 334v11l167 337v2h-221v16h240v-17l-170 -349h-16z" />
    <glyph glyph-name="eight.numerator" horiz-adv-x="307" 
d="M153 332q-60 0 -95 28t-35 73q0 37 23 62.5t62 33.5v2q-30 6 -48 28.5t-18 53.5q0 39 30.5 64t80.5 25q49 0 80 -25t31 -64q0 -30 -18.5 -51.5t-46.5 -30.5v-2q38 -7 61.5 -32.5t23.5 -63.5q0 -45 -35 -73t-96 -28zM153 537q44 0 68.5 21t24.5 55q0 33 -24 53t-69 20
t-69 -20t-24 -53q0 -34 24 -55t69 -21zM153 348q55 0 83.5 23t28.5 62q0 40 -29 64.5t-83 24.5t-82.5 -24.5t-28.5 -64.5q0 -38 28.5 -61.5t82.5 -23.5z" />
    <glyph glyph-name="nine.numerator" horiz-adv-x="308" 
d="M114 348q150 0 150 177v7q-20 -24 -54 -38.5t-70 -14.5q-50 0 -84 26.5t-34 82.5q0 53 34.5 83.5t87.5 30.5q60 0 99.5 -44.5t39.5 -132.5q0 -93 -44 -143t-125 -50q-49 0 -78 20v15h13q25 -19 65 -19zM143 494q35 0 68 15.5t52 40.5q-6 70 -38.5 103t-80.5 33
q-47 0 -75 -25t-28 -73q0 -50 28.5 -72t73.5 -22z" />
    <glyph glyph-name="zero.denominator" horiz-adv-x="356" 
d="M178 -2q-66 0 -109.5 48.5t-43.5 136.5t43.5 136.5t109.5 48.5q65 0 109 -48.5t44 -136.5t-44 -136.5t-109 -48.5zM178 14q59 0 96.5 43t37.5 126q0 82 -37.5 125.5t-96.5 43.5q-60 0 -97 -43t-37 -126t37 -126t97 -43z" />
    <glyph glyph-name="one.denominator" horiz-adv-x="198" 
d="M127 0h-19v346l-86 -49h-11v12l103 57h13v-366z" />
    <glyph glyph-name="two.denominator" horiz-adv-x="280" 
d="M257 16v-16h-233v16l116 108q57 53 77 81.5t20 64.5q0 40 -23.5 61t-66.5 21q-62 0 -99 -43h-12v14q45 45 111 45q49 0 79 -26t30 -72q0 -38 -23.5 -71.5t-83.5 -88.5l-103 -94h211z" />
    <glyph glyph-name="three.denominator" horiz-adv-x="268" 
d="M124 -2q-71 0 -112 37v15h13q34 -36 99 -36q50 0 76 23.5t26 66.5t-29 61.5t-70 18.5h-34v15h31q41 0 66.5 20.5t25.5 58.5q0 74 -88 74q-58 0 -92 -34h-12v16q43 34 104 34q50 0 78.5 -23.5t28.5 -66.5q0 -69 -71 -85v-2q36 -4 58.5 -26.5t22.5 -60.5q0 -51 -32 -78.5
t-89 -27.5z" />
    <glyph glyph-name="four.denominator" horiz-adv-x="319" 
d="M234 0h-18v97h-195v16l198 253h15v-255h60v-14h-60v-97zM42 113v-2h174v223h-2z" />
    <glyph glyph-name="five.denominator" horiz-adv-x="273" 
d="M250 122q0 -54 -37.5 -89t-94.5 -35q-64 0 -106 38v15h13q31 -37 93 -37q49 0 81 29.5t32 78.5q0 46 -25.5 71t-66.5 25q-53 0 -93 -40h-17v188h195v-16h-178v-154h1q35 37 92 37q48 0 79.5 -28.5t31.5 -82.5z" />
    <glyph glyph-name="six.denominator" horiz-adv-x="308" 
d="M44 175v-8q44 54 124 54q50 0 84 -26t34 -81q0 -54 -34.5 -85t-87.5 -31q-60 0 -99.5 44.5t-39.5 132.5q0 90 48.5 141.5t120.5 51.5q45 0 75 -19v-15h-13q-24 18 -63 18q-66 0 -107.5 -45.5t-41.5 -131.5zM165 206q-35 0 -68 -15.5t-52 -41.5q5 -70 38 -102.5t81 -32.5
q46 0 74.5 26t28.5 74q0 49 -28.5 70.5t-73.5 21.5z" />
    <glyph glyph-name="seven.denominator" horiz-adv-x="276" 
d="M73 0v11l167 337v2h-221v16h240v-17l-170 -349h-16z" />
    <glyph glyph-name="eight.denominator" horiz-adv-x="307" 
d="M153 -2q-60 0 -95 28t-35 73q0 37 23 62.5t62 33.5v2q-30 6 -48 28.5t-18 53.5q0 39 30.5 64t80.5 25q49 0 80 -25t31 -64q0 -30 -18.5 -51.5t-46.5 -30.5v-2q38 -7 61.5 -32.5t23.5 -63.5q0 -45 -35 -73t-96 -28zM153 203q44 0 68.5 21t24.5 55q0 33 -24 53t-69 20
t-69 -20t-24 -53q0 -34 24 -55t69 -21zM153 14q55 0 83.5 23t28.5 62q0 40 -29 64.5t-83 24.5t-82.5 -24.5t-28.5 -64.5q0 -38 28.5 -61.5t82.5 -23.5z" />
    <glyph glyph-name="nine.denominator" horiz-adv-x="308" 
d="M114 14q150 0 150 177v7q-20 -24 -54 -38.5t-70 -14.5q-50 0 -84 26.5t-34 82.5q0 53 34.5 83.5t87.5 30.5q60 0 99.5 -44.5t39.5 -132.5q0 -93 -44 -143t-125 -50q-49 0 -78 20v15h13q25 -19 65 -19zM143 160q35 0 68 15.5t52 40.5q-6 70 -38.5 103t-80.5 33
q-47 0 -75 -25t-28 -73q0 -50 28.5 -72t73.5 -22z" />
    <glyph glyph-name="Q.alt" horiz-adv-x="721" 
d="M679 -121q-38 63 -115 88.5t-209 29.5q-110 3 -185 63q-120 96 -120 290q0 166 87.5 259.5t219.5 93.5t219 -93.5t87 -259.5q0 -145 -66 -233.5t-163 -107.5v-1q99 -5 159.5 -32t104.5 -82v-15h-19zM357 14q125 0 205.5 88.5t80.5 247.5q0 158 -80.5 247t-205.5 89
t-206 -89t-81 -247q0 -159 80.5 -247.5t206.5 -88.5z" />
    <glyph glyph-name="Q.alt1" horiz-adv-x="721" 
d="M357 -3q-132 0 -219.5 93.5t-87.5 259.5t87.5 259.5t219.5 93.5t219 -93.5t87 -259.5q0 -162 -87 -259l93 -78v-13h-14l-90 79q-84 -82 -208 -82zM357 14q119 0 195 76l-120 105v11h11l120 -103q80 90 80 247q0 158 -80.5 247t-205.5 89t-206 -89t-81 -247
q0 -159 80.5 -247.5t206.5 -88.5z" />
    <glyph glyph-name="f.short" horiz-adv-x="253" 
d="M18 504v16h70v55q0 125 108 125q24 0 44 -5v-13h-44q-89 0 -89 -107v-55h133v-16h-133v-504h-19v504h-70z" />
    <glyph glyph-name="f_f.short" horiz-adv-x="497" 
d="M107 504v-504h-19v504h-70v16h70v49q0 125 108 125q37 0 57 -5v-13h-57q-89 0 -89 -107v-49h225v55q0 125 108 125q24 0 44 -5v-13h-44q-89 0 -89 -107v-55h133v-16h-133v-504h-19v504h-225z" />
    <glyph glyph-name="less.cap" horiz-adv-x="459" 
d="M409 0l-373 342v17l373 341h11v-15l-363 -333v-2l363 -336v-14h-11z" />
    <glyph glyph-name="greater.cap" horiz-adv-x="459" 
d="M39 0v14l363 336v2l-363 333v15h11l373 -341v-17l-373 -342h-11z" />
    <glyph glyph-name="questiondown.cap" horiz-adv-x="431" 
d="M272 582q3 -26 3 -48t-1.5 -39t-8 -33.5t-12 -28.5t-17 -27.5t-20.5 -25.5t-25 -28q-7 -7 -36.5 -35t-39 -39t-27 -34.5t-23.5 -45t-6 -46.5q0 -139 148 -139q113 0 165 64h14v-16q-71 -64 -179 -64q-168 0 -168 155q0 28 7 51.5t24 46.5t29.5 37t40 40.5t39.5 38.5
q33 34 47.5 54.5t24 62t3.5 99.5h18zM260 703q9 0 15 -6t6 -15t-6 -15t-15 -6t-15 6t-6 15t6 15t15 6z" />
    <glyph glyph-name="exclamdown.cap" horiz-adv-x="192" 
d="M104 582l3 -567v-15h-22v15l3 567h16zM96 703q9 0 15 -6t6 -15t-6 -15t-15 -6t-15 6t-6 15t6 15t15 6z" />
    <glyph glyph-name="bullet.cap" horiz-adv-x="290" 
d="M145 222q-47 0 -78.5 29t-31.5 78t31.5 79t78.5 30q48 0 79 -30t31 -79t-31 -78t-79 -29z" />
    <glyph glyph-name="hyphen.cap" horiz-adv-x="245" 
d="M32 329v17h181v-17h-181z" />
    <glyph glyph-name="endash.cap" horiz-adv-x="395" 
d="M32 329v16h331v-16h-331z" />
    <glyph glyph-name="emdash.cap" horiz-adv-x="645" 
d="M32 329v16h581v-16h-581z" />
    <glyph glyph-name="dagger.cap" 
d="M212 0h-14l-3 296v79l3 97l-107 -2h-56v18h56l107 -2l-3 84v130h20v-130l-3 -84l107 2h56v-18h-56l-107 2l3 -97v-79z" />
    <glyph glyph-name="daggerdbl.cap" horiz-adv-x="411" 
d="M195 385l3 97l-107 -2h-56v18h56l107 -2l-3 84v120h20v-120l-3 -84l107 2h56v-18h-56l-107 2l3 -97v-70l-3 -97l107 2h56v-18h-56l-107 2l3 -84v-120h-20v120l3 84l-107 -2h-56v18h56l107 -2l-3 97v70z" />
    <glyph glyph-name="quoteleft.cap" horiz-adv-x="492" 
d="M266 -3q-104 0 -169 71.5t-65 208.5q0 181 113.5 293.5t308.5 129.5v-17q-161 -18 -257.5 -98.5t-96.5 -173.5q0 -26 9.5 -42.5t23 -23t35.5 -9t40 -0.5t44.5 4t42.5 2q73 0 119.5 -43t46.5 -119q0 -74 -52 -128.5t-143 -54.5z" />
    <glyph glyph-name="quoteright.cap" horiz-adv-x="492" 
d="M226 703q104 0 169 -71.5t65 -208.5q0 -181 -113.5 -293.5t-308.5 -129.5v17q161 18 257.5 98.5t96.5 173.5q0 31 -11.5 49t-35 23t-44 4.5t-54 -4t-50.5 -3.5q-73 0 -119.5 43t-46.5 119q0 74 52 128.5t143 54.5z" />
    <glyph glyph-name="quotedblleft.cap" horiz-adv-x="955" 
d="M266 -3q-104 0 -169 71.5t-65 208.5q0 181 113.5 293.5t308.5 129.5v-17q-161 -18 -257.5 -98.5t-96.5 -173.5q0 -26 9.5 -42.5t23 -23t35.5 -9t40 -0.5t44.5 4t42.5 2q73 0 119.5 -43t46.5 -119q0 -74 -52 -128.5t-143 -54.5zM729 -3q-104 0 -169 71.5t-65 208.5
q0 181 113.5 293.5t308.5 129.5v-17q-161 -18 -257.5 -98.5t-96.5 -173.5q0 -31 11.5 -49t35 -23t44 -4.5t54 4t50.5 3.5q73 0 119.5 -43t46.5 -119q0 -74 -52 -128.5t-143 -54.5z" />
    <glyph glyph-name="quotedblright.cap" horiz-adv-x="955" 
d="M689 703q104 0 169 -71.5t65 -208.5q0 -181 -113.5 -293.5t-308.5 -129.5v17q161 18 257.5 98.5t96.5 173.5q0 26 -9.5 42.5t-23 23t-35.5 9t-40 0.5t-44.5 -4t-42.5 -2q-73 0 -119.5 43t-46.5 119q0 74 52 128.5t143 54.5zM226 703q104 0 169 -71.5t65 -208.5
q0 -181 -113.5 -293.5t-308.5 -129.5v17q161 18 257.5 98.5t96.5 173.5q0 31 -11.5 49t-35 23t-44 4.5t-54 -4t-50.5 -3.5q-73 0 -119.5 43t-46.5 119q0 74 52 128.5t143 54.5z" />
    <glyph glyph-name="guillemotleft.cap" horiz-adv-x="591" 
d="M348 0l-312 342v17l312 341h11v-15l-303 -333v-2l303 -336v-14h-11zM540 0l-312 342v17l312 341h11v-15l-303 -333v-2l303 -336v-14h-11z" />
    <glyph glyph-name="guillemotright.cap" horiz-adv-x="591" 
d="M39 0v14l304 336v2l-304 333v15h12l312 -341v-17l-312 -342h-12zM231 0v14l304 336v2l-304 333v15h12l312 -341v-17l-312 -342h-12z" />
    <glyph glyph-name="at.cap" horiz-adv-x="844" 
d="M470 534q61 0 96 -29q8 29 20 29h7l-63 -264q-20 -84 58 -84q31 0 61.5 12t58.5 37t45.5 70.5t17.5 105.5q0 133 -89.5 209.5t-232.5 76.5q-67 0 -132.5 -24.5t-120 -69.5t-88.5 -116t-34 -155q0 -110 47.5 -186t123 -109.5t172.5 -33.5q153 0 238 68h12v-15
q-98 -69 -250 -69q-155 0 -258.5 87.5t-103.5 257.5q0 88 35.5 162t92.5 120.5t126 72.5t140 26q148 0 244 -81t96 -221q0 -118 -61.5 -179.5t-139.5 -61.5q-47 0 -66 24.5t-12 64.5q-82 -92 -163 -92q-45 0 -75 28t-30 84q0 94 66.5 174.5t161.5 80.5zM348 184q48 0 85 26
t81 75l48 204q-34 28 -92 28q-85 0 -146.5 -73.5t-61.5 -164.5q0 -95 86 -95z" />
    <glyph glyph-name="paragraph.cap" horiz-adv-x="517" 
d="M289 0v352h-20q-112 0 -174.5 37.5t-62.5 136.5q0 42 12 73.5t32 50.5t51 30.5t64 15.5t76 4h153v-700h-19v684h-93v-684h-19z" />
    <glyph glyph-name="grave.cap" 
d="M221 723h-13l-69 91v11h16l66 -93v-9z" />
    <glyph glyph-name="dieresis.cap" 
d="M142 738q-8 0 -13 5t-5 13t5 13t13 5t13 -5t5 -13t-5 -13t-13 -5zM268 738q-8 0 -13 5t-5 13t5 13t13 5t13 -5t5 -13t-5 -13t-13 -5z" />
    <glyph glyph-name="macron.cap" 
d="M97 756v15h216v-15h-216z" />
    <glyph glyph-name="acute.cap" 
d="M203 723h-13v9l66 93h16v-11z" />
    <glyph glyph-name="circumflex.cap" 
d="M107 723v10l88 92h20l88 -92v-10h-13l-85 85l-85 -85h-13z" />
    <glyph glyph-name="caron.cap" 
d="M303 825v-10l-88 -92h-20l-88 92v10h13l85 -85l85 85h13z" />
    <glyph glyph-name="breve.cap" 
d="M205 725q-42 0 -70 22t-36 60v11h18q4 -37 27 -57t61 -20t61 20t27 57h18v-11q-8 -38 -36 -60t-70 -22z" />
    <glyph glyph-name="dotaccent.cap" 
d="M205 774q7 0 12.5 -5t5.5 -13t-5.5 -13t-12.5 -5t-12.5 5t-5.5 13t5.5 13t12.5 5z" />
    <glyph glyph-name="ring.cap" 
d="M205 728q-33 0 -56.5 22t-23.5 57q0 34 24 56.5t56 22.5t55.5 -22.5t23.5 -56.5q0 -35 -23.5 -57t-55.5 -22zM143 807q0 -29 17.5 -46t44.5 -17q26 0 43.5 17t17.5 46q0 28 -17.5 45.5t-43.5 17.5q-27 0 -44.5 -17.5t-17.5 -45.5z" />
    <glyph glyph-name="tilde.cap" 
d="M89 736v10q5 21 21 37t40 16q21 0 57 -21t53 -21q18 0 30 12.5t15 32.5h16v-10q-14 -52 -61 -52q-21 0 -57 21t-53 21q-38 0 -45 -46h-16z" />
    <glyph glyph-name="hungarumlaut.cap" 
d="M151 723v7l45 95h18v-11l-48 -91h-15zM254 723v7l45 95h18v-11l-48 -91h-15z" />
    </font>
</defs>
</svg>
