<?xml version="1.0" encoding="utf-8"?>
<!-- Generator: Adobe Illustrator 18.0.0, SVG Export Plug-In . SVG Version: 6.00 Build 0)  -->
<!DOCTYPE svg PUBLIC "-//W3C//DTD SVG 1.1//EN" "http://www.w3.org/Graphics/SVG/1.1/DTD/svg11.dtd">
<svg version="1.1" id="Camada_1" xmlns="http://www.w3.org/2000/svg" xmlns:xlink="http://www.w3.org/1999/xlink" x="0px" y="0px"
	 viewBox="0 0 131.2 34.4" enable-background="new 0 0 131.2 34.4" xml:space="preserve">
<path fill="#D9675B" d="M6.2,29.1h15.7V10.4H6.2c-0.3,0-0.6-0.3-0.6-0.6c0-0.3,0.2-0.6,0.6-0.6h16.2c0.3,0,0.6,0.3,0.6,0.6v19.9
	c0,0.3-0.2,0.6-0.6,0.6H6.2c-0.3,0-0.6-0.3-0.6-0.6C5.7,29.4,5.9,29.1,6.2,29.1z"/>
<path fill="#D9675B" d="M0.2,19l3.4-3.5c0.2-0.2,0.6-0.2,0.8,0c0.2,0.2,0.2,0.6,0,0.8l-2.5,2.5h10.4c0.3,0,0.6,0.3,0.6,0.6
	c0,0.3-0.2,0.6-0.6,0.6H1.9l2.5,2.5c0.2,0.2,0.2,0.6,0,0.8c-0.1,0.1-0.3,0.2-0.4,0.2c-0.1,0-0.3-0.1-0.4-0.2l-3.4-3.5
	C-0.1,19.6-0.1,19.2,0.2,19z"/>
<g>
	<path fill="#D9675B" stroke="#D8665A" stroke-miterlimit="10" d="M39,9.8V9.4h0.7l8.8,22h0.1l8.8-22h0.7v0.5L49,32.8h-0.8L39,9.8z"
		/>
	<path fill="#D9675B" stroke="#D8665A" stroke-miterlimit="10" d="M58.3,21c0-7.3,4.1-11.9,10.5-11.9c6.5,0,10.5,4.5,10.5,11.9
		c0,7.4-4,11.9-10.5,11.9C62.4,32.9,58.3,28.4,58.3,21z M78.5,21c0-6.9-3.6-11.2-9.7-11.2c-6,0-9.7,4.2-9.7,11.2
		c0,7,3.6,11.2,9.7,11.2C74.9,32.2,78.5,28,78.5,21z"/>
	<path fill="#D9675B" stroke="#D8665A" stroke-miterlimit="10" d="M82.8,1.3c0.5,0,0.6,0.1,0.6,1v30.5h-0.9V1.3H82.8z"/>
	<path fill="#D9675B" stroke="#D8665A" stroke-miterlimit="10" d="M85.8,9.4h3.1V2.8h0.9v6.6h6.7v0.7h-6.7v18c0,2.9,1.4,4,4.3,4h3.1
		v0.6c-0.7,0.1-2,0.2-3.2,0.2c-3.3,0-5-1.5-5-4.8v-18h-3.1V9.4z"/>
	<path fill="#D9675B" stroke="#D8665A" stroke-miterlimit="10" d="M113.5,28.5c-2.1,2.6-4.5,4.4-8.8,4.4c-4.1,0-7.3-1.9-7.3-6.6
		c0-4.6,3.9-6.7,9.4-6.7c2.4,0,4.6,0.3,6.7,0.8v-5c0-4.5-2.7-5.6-6.3-5.6c-3.7,0-6.3,0.9-7.7,2.2H99v-0.8c1.7-1,4.4-2.1,8.3-2.1
		c4,0,7.1,1.3,7.1,6.3v17.4h-0.2c-0.5,0-0.6-0.2-0.6-1V28.5z M113.5,27.5v-6.3c-2.1-0.5-4.3-0.9-6.6-0.9c-5,0-8.6,1.8-8.6,5.9
		c0,4.3,2.8,5.9,6.5,5.9C109.1,32.2,111.5,30.2,113.5,27.5z"/>
	<path fill="#D9675B" stroke="#D8665A" stroke-miterlimit="10" d="M120,14.3c1.9-2.6,4.5-5,8.1-5c0.6,0,1,0.1,1,0.1V10
		c0,0-0.4,0-1,0c-3.4,0-6,2.4-8.1,5.3v17.5h-0.9V9.4h0.2c0.5,0,0.6,0.1,0.6,1.2V14.3z"/>
</g>
</svg>
