<?xml version="1.0" encoding="utf-8"?>
<!-- Generator: Adobe Illustrator 18.0.0, SVG Export Plug-In . SVG Version: 6.00 Build 0)  -->
<!DOCTYPE svg PUBLIC "-//W3C//DTD SVG 1.1//EN" "http://www.w3.org/Graphics/SVG/1.1/DTD/svg11.dtd">
<svg version="1.1" id="Camada_1" xmlns="http://www.w3.org/2000/svg" xmlns:xlink="http://www.w3.org/1999/xlink" x="0px" y="0px"
	 viewBox="0 0 84.3 24" enable-background="new 0 0 84.3 24" xml:space="preserve">
<path fill="#F08159" d="M72.2,0c-6.6,0-12,5.4-12,12c0,6.6,5.4,12,12,12c6.6,0,12-5.4,12-12C84.3,5.4,78.9,0,72.2,0z M73.7,13.5v5.8
	h-2.9v-5.8H65v-2.9h5.8l0-5.8l2.9,0v5.8l5.8,0l0,2.9H73.7L73.7,13.5z"/>
<g>
	<path fill="#F48258" d="M0.7,9V8.5h1.4l2.2,6h0l2.1-6h1.3V9l-2.8,7.4H3.6L0.7,9z"/>
	<path fill="#F48258" d="M10,12.7c0.1,1.9,0.9,2.6,2.4,2.6c1,0,1.7-0.3,2.2-0.7H15v1.1c-0.6,0.4-1.4,0.8-2.9,0.8
		c-2.4,0-3.7-1.5-3.7-4c0-2.5,1.5-4.1,3.6-4.1c2.1,0,3.3,1.2,3.3,3.8c0,0.2,0,0.5,0,0.5H10z M10,11.7h3.8c0-1.7-0.7-2.3-1.8-2.3
		C10.9,9.5,10.1,10.1,10,11.7z"/>
	<path fill="#F48258" d="M18.1,10.6v5.7h-1.5V8.5h1c0.4,0,0.5,0.2,0.6,1.1c0.5-0.6,1.3-1.2,2.3-1.2c0.2,0,0.3,0,0.4,0.1v1.3
		c0,0-0.3,0-0.3,0C19.4,9.8,18.6,10.2,18.1,10.6z"/>
	<path fill="#F48258" d="M26.7,9.5c0.7-0.6,1.7-1.1,2.8-1.1c0.8,0,1.5,0.3,1.8,1.1c0.8-0.6,1.8-1.1,2.9-1.1c1.1,0,2,0.5,2,2.1v5.9
		h-1.5v-5.5c0-0.9-0.4-1.2-1.1-1.2c-0.8,0-1.5,0.4-2.1,0.8v5.9h-1.5v-5.5c0-0.9-0.4-1.2-1.1-1.2c-0.8,0-1.5,0.4-2.1,0.8v5.9h-1.5
		V8.5h1C26.5,8.5,26.7,8.7,26.7,9.5z"/>
	<path fill="#F48258" d="M42.3,15.5c-0.6,0.6-1.3,1-2.3,1c-1.4,0-2.5-0.8-2.5-2.3c0-1.6,1.3-2.4,3-2.4c0.7,0,1.2,0.1,1.7,0.2v-1
		c0-0.9-0.5-1.3-1.6-1.3c-0.9,0-1.6,0.3-2.1,0.6H38V9.1c0.7-0.3,1.6-0.7,2.8-0.7c1.9,0,2.9,0.7,2.9,2.4v5.6h-0.6
		C42.6,16.4,42.4,16.2,42.3,15.5z M42.2,14.5v-1.7c-0.4-0.1-0.9-0.1-1.5-0.1c-1,0-1.8,0.4-1.8,1.3c0,1,0.6,1.4,1.5,1.4
		C41.3,15.4,41.8,15,42.2,14.5z"/>
	<path fill="#F48258" d="M45.5,6.8c0-0.5,0.4-0.9,0.9-0.9s0.9,0.4,0.9,0.9c0,0.5-0.4,0.9-0.9,0.9S45.5,7.3,45.5,6.8z M45.6,16.4V8.5
		h0.9c0.6,0,0.7,0.2,0.7,1.2v6.7H45.6z"/>
	<path fill="#F48258" d="M48.6,15.8v-1.2h0.5c0.4,0.3,1,0.7,2,0.7c1.1,0,1.6-0.4,1.6-1.1c0-0.7-0.4-0.9-1.6-1.1
		c-1.6-0.2-2.5-0.8-2.5-2.3c0-1.5,1.1-2.3,2.8-2.3c1.1,0,1.8,0.3,2.3,0.6v1.2h-0.5c-0.4-0.3-0.9-0.6-1.8-0.6c-1,0-1.5,0.3-1.5,1
		c0,0.6,0.4,0.9,1.7,1.1c1.7,0.3,2.5,0.8,2.5,2.3c0,1.5-0.9,2.4-3,2.4C49.9,16.5,49.1,16.1,48.6,15.8z"/>
</g>
</svg>
