<?xml version="1.0" encoding="utf-8"?>
<!-- Generator: Adobe Illustrator 18.0.0, SVG Export Plug-In . SVG Version: 6.00 Build 0)  -->
<!DOCTYPE svg PUBLIC "-//W3C//DTD SVG 1.1//EN" "http://www.w3.org/Graphics/SVG/1.1/DTD/svg11.dtd">
<svg version="1.1" id="Camada_1" xmlns="http://www.w3.org/2000/svg" xmlns:xlink="http://www.w3.org/1999/xlink" x="0px" y="0px"
	 viewBox="0 0 44 44" enable-background="new 0 0 44 44" xml:space="preserve">
<path fill="#FFFFFF" d="M5.5,5.5h33c3,0,5.5,2.5,5.5,5.5v22c0,3-2.5,5.5-5.5,5.5h-33C2.5,38.5,0,36,0,33V11C0,8,2.5,5.5,5.5,5.5z"/>
<path fill="#F48258" d="M8.3,11h27.5c1.7,0,2.8,1.1,2.8,2.8v16.5c0,1.7-1.1,2.8-2.8,2.8H8.3c-1.6,0-2.8-1.1-2.8-2.8V13.8
	C5.5,12.1,6.6,11,8.3,11z"/>
<path fill="#FFFFFF" d="M9.6,17.9l4.1,4.1l-4.1,4.1l2.8,2.8l4.1-4.1l5.5,4.1l5.5-4.1l4.1,4.1l2.8-2.8L30.3,22l4.1-4.1l-2.8-2.8
	L22,24.8l-9.6-9.6L9.6,17.9z"/>
</svg>
