<?xml version="1.0" encoding="utf-8"?>
<!-- Generator: Adobe Illustrator 18.0.0, SVG Export Plug-In . SVG Version: 6.00 Build 0)  -->
<!DOCTYPE svg PUBLIC "-//W3C//DTD SVG 1.1//EN" "http://www.w3.org/Graphics/SVG/1.1/DTD/svg11.dtd">
<svg version="1.1" id="Camada_1" xmlns="http://www.w3.org/2000/svg" xmlns:xlink="http://www.w3.org/1999/xlink" x="0px" y="0px"
	 viewBox="0 0 44 44" enable-background="new 0 0 44 44" xml:space="preserve">
<path fill="#FFFFFF" d="M12.6,0h18.7c3.3,0,5.8,2.5,5.8,5.8v32.7c0,3-2.5,5.8-5.8,5.8H12.6c-3.3-0.3-5.8-2.8-5.8-6.1V5.8
	C6.9,2.5,9.4,0,12.6,0z"/>
<path fill="#F48258" d="M15.1,5.5h13.8c1.7,0,2.8,1.1,2.8,2.8v22c0,1.7-1.1,2.8-2.8,2.8H15.1c-1.6,0-2.8-1.1-2.8-2.8v-22
	C12.4,6.6,13.5,5.5,15.1,5.5z"/>
<path fill="#F48258" d="M22,36.8c1.1,0,2.2,0.8,2.2,2.2s-1.1,2.2-2.2,2.2s-2.2-0.8-2.2-2.2S20.9,36.8,22,36.8z"/>
</svg>
