<?xml version="1.0" encoding="utf-8"?>
<!-- Generator: Adobe Illustrator 18.0.0, SVG Export Plug-In . SVG Version: 6.00 Build 0)  -->
<!DOCTYPE svg PUBLIC "-//W3C//DTD SVG 1.1//EN" "http://www.w3.org/Graphics/SVG/1.1/DTD/svg11.dtd">
<svg version="1.1" id="Camada_1" xmlns="http://www.w3.org/2000/svg" xmlns:xlink="http://www.w3.org/1999/xlink" x="0px" y="0px"
	 viewBox="0 0 47 48.3" enable-background="new 0 0 47 48.3" xml:space="preserve">
<path opacity="0.49" fill-rule="evenodd" clip-rule="evenodd" fill="#363636" d="M46.6,42.9c0.6,0.6,0.6,1.5,0,2l-2,2
	c-0.6,0.6-1.5,0.6-2,0L28.3,32.7c-0.2-0.2-0.3-0.3-0.3-0.5c-2.9,2.1-6.5,3.4-10.4,3.4C7.9,35.6,0,27.7,0,18C0,8.2,7.9,0.3,17.6,0.3
	c9.7,0,17.6,7.9,17.6,17.6c0,3.9-1.3,7.5-3.4,10.4c0.2,0.1,0.4,0.2,0.5,0.3L46.6,42.9z M17.6,6.2C11.1,6.2,5.9,11.5,5.9,18
	c0,6.5,5.3,11.8,11.8,11.8c6.5,0,11.8-5.3,11.8-11.8C29.4,11.5,24.1,6.2,17.6,6.2z"/>
<path fill-rule="evenodd" clip-rule="evenodd" fill="#FFFFFF" d="M46.6,43.9c0.6,0.6,0.6,1.5,0,2l-2,2c-0.6,0.6-1.5,0.6-2,0
	L28.3,33.7c-0.2-0.2-0.3-0.3-0.3-0.5c-2.9,2.1-6.5,3.4-10.4,3.4C7.9,36.6,0,28.7,0,19C0,9.2,7.9,1.3,17.6,1.3
	c9.7,0,17.6,7.9,17.6,17.6c0,3.9-1.3,7.5-3.4,10.4c0.2,0.1,0.4,0.2,0.5,0.3L46.6,43.9z M17.6,7.2C11.1,7.2,5.9,12.5,5.9,19
	c0,6.5,5.3,11.8,11.8,11.8c6.5,0,11.8-5.3,11.8-11.8C29.4,12.5,24.1,7.2,17.6,7.2z"/>
</svg>
