<?xml version="1.0" encoding="utf-8"?>
<!-- Generator: Adobe Illustrator 18.0.0, SVG Export Plug-In . SVG Version: 6.00 Build 0)  -->
<!DOCTYPE svg PUBLIC "-//W3C//DTD SVG 1.1//EN" "http://www.w3.org/Graphics/SVG/1.1/DTD/svg11.dtd">
<svg version="1.1" id="Camada_1" xmlns="http://www.w3.org/2000/svg" xmlns:xlink="http://www.w3.org/1999/xlink" x="0px" y="0px"
	 viewBox="0 0 44 44" enable-background="new 0 0 44 44" xml:space="preserve">
<path fill="#FFFFFF" d="M22,44c0,0-15.1-19.3-15.1-27.5C6.9,0.3,22,0,22,0s15.1,0.3,15.1,16.2C37.1,24.8,22,44,22,44z"/>
<path fill="#F48258" d="M22,35.8c0,0-9.6-13.2-9.6-19C12.4,5.5,22,5.5,22,5.5s9.6,0,9.6,11.3C31.6,22.5,22,35.8,22,35.8z"/>
<path fill="#FFFFFF" d="M22,11c2.2,0,4.1,1.9,4.1,4.1s-1.9,4.1-4.1,4.1s-4.1-1.9-4.1-4.1S19.8,11,22,11z"/>
</svg>
