<?xml version="1.0" encoding="utf-8"?>
<!-- Generator: Adobe Illustrator 18.0.0, SVG Export Plug-In . SVG Version: 6.00 Build 0)  -->
<!DOCTYPE svg PUBLIC "-//W3C//DTD SVG 1.1//EN" "http://www.w3.org/Graphics/SVG/1.1/DTD/svg11.dtd">
<svg version="1.1" id="marca_x5F_devir" xmlns="http://www.w3.org/2000/svg" xmlns:xlink="http://www.w3.org/1999/xlink" x="0px"
	 y="0px" viewBox="0 0 203 358" enable-background="new 0 0 203 358" xml:space="preserve">
<rect id="fundo_x5F_cinza" x="0" width="203" height="261"/>
<polygon id="traco_x5F_white" fill="#FFFFFF" points="42.6,191.8 35.7,191.8 85.1,91 92.7,91 "/>
<path id="traco_x5F_red" fill="#FF1800" d="M200.2,202.5l-109.4,0l-4.9-0.1l32.7-161.2l-24.4,47l-7.7,0.1l41-85.6l8-0.1L95.7,194.5
	l104.5,0L200.2,202.5z M41.6,194.3l-6.9-0.1L4.1,256.9l6.5,0.1L41.6,194.3z"/>
<path id="reabilitacao" fill="#FFFFFF" d="M2.8,291.8v-19.5h8.8c1.8,0,3.1,0.2,4,0.5c0.9,0.3,1.7,1,2.2,1.9c0.6,0.9,0.8,1.9,0.8,2.9
	c0,1.4-0.5,2.5-1.4,3.5c-0.9,0.9-2.3,1.5-4.2,1.8c0.7,0.3,1.2,0.7,1.6,1c0.8,0.7,1.5,1.6,2.2,2.6l3.5,5.3H17l-2.6-4.1
	c-0.8-1.2-1.4-2.1-1.9-2.7c-0.5-0.6-0.9-1.1-1.3-1.3s-0.8-0.4-1.2-0.5c-0.3-0.1-0.8-0.1-1.5-0.1h-3v8.7H2.8z M5.5,280.9h5.6
	c1.2,0,2.1-0.1,2.8-0.4c0.7-0.2,1.2-0.6,1.5-1.2s0.5-1.1,0.5-1.7c0-0.9-0.3-1.7-1-2.3c-0.7-0.6-1.8-0.9-3.2-0.9H5.5V280.9z
	 M22.9,291.8v-19.5h14.3v2.3H25.5v6h11v2.3h-11v6.6h12.2v2.3H22.9z M39.1,291.8l7.6-19.5h2.8l8.1,19.5h-3l-2.3-5.9h-8.3l-2.2,5.9
	H39.1z M44.9,283.8h6.7l-2.1-5.4c-0.6-1.6-1.1-3-1.4-4c-0.3,1.2-0.6,2.5-1.1,3.7L44.9,283.8z M59.7,291.8v-19.5h7.4
	c1.5,0,2.7,0.2,3.6,0.6s1.6,1,2.2,1.8c0.5,0.8,0.8,1.7,0.8,2.6c0,0.8-0.2,1.6-0.7,2.4c-0.5,0.7-1.2,1.3-2.1,1.8
	c1.2,0.3,2.1,0.9,2.8,1.8c0.6,0.8,1,1.8,1,3c0,0.9-0.2,1.8-0.6,2.5c-0.4,0.8-0.9,1.4-1.5,1.8s-1.3,0.7-2.2,1
	c-0.9,0.2-1.9,0.3-3.2,0.3H59.7z M62.3,280.5h4.3c1.2,0,2-0.1,2.5-0.2c0.7-0.2,1.2-0.5,1.5-1c0.3-0.5,0.5-1,0.5-1.7
	c0-0.6-0.2-1.2-0.5-1.7c-0.3-0.5-0.8-0.8-1.4-1c-0.6-0.2-1.6-0.3-3-0.3h-4V280.5z M62.3,289.5h4.9c0.8,0,1.4,0,1.8-0.1
	c0.6-0.1,1.1-0.3,1.5-0.5c0.4-0.2,0.7-0.6,1-1.1c0.3-0.5,0.4-1,0.4-1.6c0-0.7-0.2-1.4-0.6-1.9c-0.4-0.5-0.9-0.9-1.6-1.1
	c-0.7-0.2-1.6-0.3-2.9-0.3h-4.6V289.5z M78.7,291.8v-19.5h2.6v19.5H78.7z M85.9,291.8v-19.5h2.6v17.2h9.8v2.3H85.9z M101.9,291.8
	v-19.5h2.6v19.5H101.9z M114.2,291.8v-17.2h-6.5v-2.3h15.7v2.3h-6.6v17.2H114.2z M121.8,291.8l7.6-19.5h2.8l8.1,19.5h-3l-2.3-5.9
	h-8.3l-2.2,5.9H121.8z M127.5,283.8h6.7l-2.1-5.4c-0.6-1.6-1.1-3-1.4-4c-0.3,1.2-0.6,2.5-1.1,3.7L127.5,283.8z M156.6,285l2.6,0.7
	c-0.6,2.1-1.5,3.7-3,4.8c-1.4,1.1-3.2,1.7-5.2,1.7c-2.1,0-3.9-0.4-5.2-1.3c-1.3-0.9-2.4-2.1-3.1-3.7c-0.7-1.6-1-3.4-1-5.2
	c0-2,0.4-3.8,1.2-5.3c0.8-1.5,1.9-2.7,3.4-3.4c1.5-0.8,3.1-1.2,4.8-1.2c2,0,3.7,0.5,5,1.5c1.4,1,2.3,2.4,2.8,4.2l-2.6,0.6
	c-0.5-1.4-1.1-2.4-2-3.1c-0.9-0.6-2-1-3.3-1c-1.5,0-2.8,0.4-3.8,1.1c-1,0.7-1.7,1.7-2.2,2.9c-0.4,1.2-0.6,2.5-0.6,3.7
	c0,1.7,0.2,3.1,0.7,4.3c0.5,1.2,1.3,2.2,2.3,2.8c1,0.6,2.2,0.9,3.4,0.9c1.5,0,2.7-0.4,3.7-1.2C155.6,287.9,156.3,286.6,156.6,285z
	 M148.7,293.9l0.7-2.4h1.8l-0.4,1.4c0.8,0.1,1.3,0.3,1.7,0.7c0.4,0.4,0.6,0.8,0.6,1.3c0,0.7-0.3,1.3-1,1.8c-0.7,0.5-1.6,0.8-2.9,0.8
	c-0.7,0-1.4-0.1-2-0.2l0.1-1.6c0.6,0,1,0.1,1.3,0.1c0.8,0,1.4-0.1,1.8-0.3c0.3-0.2,0.4-0.4,0.4-0.7c0-0.2-0.1-0.3-0.2-0.4
	s-0.3-0.2-0.6-0.3C149.9,293.9,149.4,293.9,148.7,293.9z M160.3,291.8l7.6-19.5h2.8l8.1,19.5h-3l-2.3-5.9h-8.3l-2.2,5.9H160.3z
	 M165.1,271.2c0-0.9,0.2-1.7,0.8-2.2c0.5-0.5,1.2-0.8,2-0.8c0.6,0,1.3,0.2,2.3,0.7c0.5,0.3,1,0.4,1.3,0.4c0.3,0,0.5-0.1,0.7-0.2
	c0.2-0.2,0.3-0.5,0.3-0.9h1.8c0,1-0.3,1.8-0.8,2.3c-0.5,0.5-1.1,0.8-1.9,0.8c-0.6,0-1.3-0.2-2.2-0.7c-0.6-0.3-1-0.5-1.3-0.5
	c-0.3,0-0.6,0.1-0.7,0.3c-0.2,0.2-0.3,0.5-0.3,0.9H165.1z M166.1,283.8h6.7l-2.1-5.4c-0.6-1.6-1.1-3-1.4-4c-0.3,1.2-0.6,2.5-1.1,3.7
	L166.1,283.8z M180.2,282.3c0-3.2,0.9-5.8,2.7-7.6c1.8-1.8,4.1-2.7,6.8-2.7c1.8,0,3.5,0.4,5,1.3c1.5,0.9,2.6,2.1,3.4,3.6
	c0.8,1.5,1.2,3.3,1.2,5.2c0,2-0.4,3.7-1.2,5.3s-2,2.7-3.5,3.5c-1.5,0.8-3.1,1.2-4.8,1.2c-1.9,0-3.5-0.4-5-1.3
	c-1.5-0.9-2.6-2.1-3.3-3.6C180.6,285.7,180.2,284.1,180.2,282.3z M182.9,282.4c0,2.3,0.6,4.2,1.9,5.5c1.3,1.4,2.9,2,4.8,2
	c2,0,3.6-0.7,4.9-2c1.3-1.4,1.9-3.3,1.9-5.8c0-1.6-0.3-3-0.8-4.2c-0.5-1.2-1.3-2.1-2.4-2.8c-1.1-0.7-2.2-1-3.5-1
	c-1.9,0-3.5,0.6-4.8,1.9C183.6,277.4,182.9,279.4,182.9,282.4z"/>
<path id="odontologica" d="M0.9,312.2c0-2.9,0.8-5.2,2.5-6.9s3.8-2.5,6.5-2.5c1.7,0,3.3,0.4,4.7,1.2c1.4,0.8,2.5,1.9,3.2,3.3
	c0.7,1.4,1.1,3,1.1,4.8c0,1.8-0.4,3.4-1.2,4.8c-0.8,1.4-1.9,2.5-3.3,3.2s-2.9,1.1-4.6,1.1c-1.8,0-3.3-0.4-4.7-1.2
	c-1.4-0.8-2.4-1.9-3.2-3.3C1.3,315.2,0.9,313.7,0.9,312.2z M3.5,312.2c0,2.1,0.6,3.8,1.8,5c1.2,1.2,2.7,1.8,4.6,1.8
	c1.9,0,3.4-0.6,4.6-1.9c1.2-1.2,1.8-3,1.8-5.3c0-1.4-0.3-2.7-0.8-3.8c-0.5-1.1-1.3-1.9-2.3-2.5s-2.1-0.9-3.3-0.9
	c-1.8,0-3.3,0.6-4.5,1.7S3.5,309.5,3.5,312.2z M20.8,320.8v-17.7h6.5c1.5,0,2.6,0.1,3.3,0.3c1.1,0.2,2,0.7,2.8,1.3
	c1,0.8,1.7,1.8,2.2,3c0.5,1.2,0.7,2.6,0.7,4.2c0,1.3-0.2,2.5-0.5,3.6c-0.3,1-0.8,1.9-1.3,2.6c-0.5,0.7-1.1,1.2-1.7,1.6
	c-0.6,0.4-1.4,0.7-2.2,0.9c-0.9,0.2-1.9,0.3-3,0.3H20.8z M23.2,318.7h4c1.2,0,2.2-0.1,2.9-0.3c0.7-0.2,1.3-0.5,1.7-0.9
	c0.6-0.6,1-1.3,1.4-2.2c0.3-0.9,0.5-2.1,0.5-3.4c0-1.9-0.3-3.3-1-4.3c-0.6-1-1.4-1.7-2.3-2c-0.7-0.2-1.7-0.4-3.2-0.4h-3.9V318.7z
	 M37.6,312.2c0-2.9,0.8-5.2,2.5-6.9s3.8-2.5,6.5-2.5c1.7,0,3.3,0.4,4.7,1.2c1.4,0.8,2.5,1.9,3.2,3.3c0.7,1.4,1.1,3,1.1,4.8
	c0,1.8-0.4,3.4-1.2,4.8c-0.8,1.4-1.9,2.5-3.3,3.2s-2.9,1.1-4.6,1.1c-1.8,0-3.3-0.4-4.7-1.2c-1.4-0.8-2.4-1.9-3.2-3.3
	C38,315.2,37.6,313.7,37.6,312.2z M40.2,312.2c0,2.1,0.6,3.8,1.8,5c1.2,1.2,2.7,1.8,4.6,1.8c1.9,0,3.4-0.6,4.6-1.9
	c1.2-1.2,1.8-3,1.8-5.3c0-1.4-0.3-2.7-0.8-3.8c-0.5-1.1-1.3-1.9-2.3-2.5s-2.1-0.9-3.3-0.9c-1.8,0-3.3,0.6-4.5,1.7
	S40.2,309.5,40.2,312.2z M57.4,320.8v-17.7H60l9.9,13.9v-13.9h2.4v17.7h-2.5l-9.9-13.9v13.9H57.4z M79.8,320.8v-15.6h-6.2v-2.1h14.9
	v2.1h-6.2v15.6H79.8z M88.5,312.2c0-2.9,0.8-5.2,2.5-6.9s3.8-2.5,6.5-2.5c1.7,0,3.3,0.4,4.7,1.2c1.4,0.8,2.5,1.9,3.2,3.3
	s1.1,3,1.1,4.8c0,1.8-0.4,3.4-1.2,4.8c-0.8,1.4-1.9,2.5-3.3,3.2c-1.4,0.7-2.9,1.1-4.6,1.1c-1.8,0-3.3-0.4-4.7-1.2
	c-1.4-0.8-2.4-1.9-3.2-3.3C88.9,315.2,88.5,313.7,88.5,312.2z M91.1,312.2c0,2.1,0.6,3.8,1.8,5c1.2,1.2,2.7,1.8,4.6,1.8
	c1.9,0,3.4-0.6,4.6-1.9c1.2-1.2,1.8-3,1.8-5.3c0-1.4-0.3-2.7-0.8-3.8c-0.5-1.1-1.3-1.9-2.3-2.5c-1-0.6-2.1-0.9-3.3-0.9
	c-1.8,0-3.3,0.6-4.5,1.7S91.1,309.5,91.1,312.2z M108.3,320.8v-17.7h2.5v15.6h9.2v2.1H108.3z M120.9,312.2c0-2.9,0.8-5.2,2.5-6.9
	s3.8-2.5,6.5-2.5c1.7,0,3.3,0.4,4.7,1.2c1.4,0.8,2.5,1.9,3.2,3.3s1.1,3,1.1,4.8c0,1.8-0.4,3.4-1.2,4.8c-0.8,1.4-1.9,2.5-3.3,3.2
	c-1.4,0.7-2.9,1.1-4.6,1.1c-1.8,0-3.3-0.4-4.7-1.2c-1.4-0.8-2.4-1.9-3.2-3.3S120.9,313.7,120.9,312.2z M123.4,312.2
	c0,2.1,0.6,3.8,1.8,5c1.2,1.2,2.7,1.8,4.6,1.8c1.9,0,3.4-0.6,4.6-1.9c1.2-1.2,1.8-3,1.8-5.3c0-1.4-0.3-2.7-0.8-3.8
	c-0.5-1.1-1.3-1.9-2.3-2.5c-1-0.6-2.1-0.9-3.3-0.9c-1.8,0-3.3,0.6-4.5,1.7C124.1,307.6,123.4,309.5,123.4,312.2z M128.3,302l1.7-3.4
	h3l-2.8,3.4H128.3z M149.5,313.8v-2.1l7.9,0v6.6c-1.2,0.9-2.5,1.6-3.8,2.1c-1.3,0.5-2.6,0.7-4,0.7c-1.8,0-3.5-0.4-5-1.1
	c-1.5-0.7-2.6-1.8-3.4-3.2c-0.8-1.4-1.2-3-1.2-4.7c0-1.7,0.4-3.3,1.1-4.8s1.9-2.6,3.3-3.3s3.1-1.1,5-1.1c1.4,0,2.6,0.2,3.7,0.6
	c1.1,0.4,2,1,2.6,1.7c0.6,0.7,1.1,1.7,1.4,2.9l-2.2,0.6c-0.3-0.9-0.6-1.6-1-2.1s-1-0.9-1.8-1.2s-1.6-0.5-2.6-0.5
	c-1.1,0-2.1,0.2-2.9,0.5c-0.8,0.3-1.5,0.8-2,1.3c-0.5,0.5-0.9,1.1-1.2,1.8c-0.5,1.1-0.7,2.3-0.7,3.6c0,1.6,0.3,2.9,0.9,4
	c0.6,1.1,1.4,1.9,2.5,2.4s2.3,0.8,3.5,0.8c1.1,0,2.1-0.2,3.1-0.6c1-0.4,1.8-0.8,2.3-1.3v-3.3H149.5z M160.2,320.8v-17.7h2.5v17.7
	H160.2z M179.2,314.6l2.5,0.6c-0.5,1.9-1.5,3.4-2.8,4.4c-1.4,1-3,1.5-5,1.5c-2,0-3.7-0.4-4.9-1.2c-1.3-0.8-2.2-1.9-2.9-3.4
	c-0.7-1.5-1-3.1-1-4.8c0-1.8,0.4-3.5,1.1-4.8c0.7-1.4,1.8-2.4,3.2-3.1c1.4-0.7,2.9-1.1,4.5-1.1c1.9,0,3.5,0.5,4.7,1.4
	c1.3,0.9,2.2,2.2,2.7,3.8l-2.4,0.5c-0.4-1.3-1.1-2.2-1.9-2.8c-0.8-0.6-1.9-0.9-3.1-0.9c-1.4,0-2.6,0.3-3.6,1c-1,0.7-1.6,1.5-2,2.6
	c-0.4,1.1-0.6,2.2-0.6,3.4c0,1.5,0.2,2.8,0.7,3.9c0.5,1.1,1.2,2,2.2,2.5c1,0.6,2,0.8,3.2,0.8c1.4,0,2.6-0.4,3.5-1.1
	C178.2,317.2,178.8,316.1,179.2,314.6z M181.3,320.8l7.2-17.7h2.7l7.7,17.7h-2.8l-2.2-5.4H186l-2.1,5.4H181.3z M186.7,313.5h6.4
	l-2-4.9c-0.6-1.5-1-2.7-1.3-3.7c-0.2,1.1-0.6,2.3-1,3.4L186.7,313.5z"/>
<path id="do_idoso" fill="#FFFFFF" d="M84.9,352v-21.4h2.8V352H84.9z M98.7,352v-21.4h7.3c1.7,0,2.9,0.1,3.8,0.3
	c1.2,0.3,2.3,0.8,3.1,1.5c1.1,1,2,2.2,2.5,3.6c0.6,1.5,0.8,3.2,0.8,5.1c0,1.6-0.2,3.1-0.6,4.3s-0.9,2.3-1.5,3.1
	c-0.6,0.8-1.2,1.5-1.9,1.9c-0.7,0.5-1.6,0.8-2.5,1.1c-1,0.2-2.1,0.4-3.4,0.4H98.7z M101.5,349.5h4.6c1.4,0,2.5-0.1,3.3-0.4
	c0.8-0.3,1.4-0.6,1.9-1.1c0.7-0.7,1.2-1.6,1.6-2.7c0.4-1.1,0.6-2.5,0.6-4.1c0-2.2-0.4-4-1.1-5.1c-0.7-1.2-1.6-2-2.7-2.4
	c-0.8-0.3-2-0.4-3.6-0.4h-4.5V349.5z M125.3,341.6c0-3.5,1-6.3,2.8-8.3c1.9-2,4.4-3,7.4-3c2,0,3.7,0.5,5.3,1.4
	c1.6,0.9,2.8,2.3,3.6,3.9c0.8,1.7,1.2,3.6,1.2,5.7c0,2.2-0.4,4.1-1.3,5.8c-0.9,1.7-2.1,3-3.7,3.9s-3.3,1.3-5.2,1.3
	c-2,0-3.8-0.5-5.4-1.5c-1.6-1-2.8-2.3-3.6-4C125.7,345.2,125.3,343.5,125.3,341.6z M128.2,341.6c0,2.6,0.7,4.6,2.1,6.1
	c1.4,1.5,3.1,2.2,5.2,2.2c2.1,0,3.9-0.7,5.2-2.2c1.4-1.5,2.1-3.6,2.1-6.4c0-1.7-0.3-3.3-0.9-4.6c-0.6-1.3-1.4-2.3-2.6-3
	c-1.1-0.7-2.4-1.1-3.8-1.1c-2,0-3.7,0.7-5.2,2.1C128.9,336.1,128.2,338.4,128.2,341.6z M154.3,345.1l2.7-0.2
	c0.1,1.1,0.4,1.9,0.9,2.6c0.5,0.7,1.2,1.2,2.1,1.7c1,0.4,2.1,0.6,3.3,0.6c1.1,0,2-0.2,2.8-0.5s1.4-0.8,1.8-1.3
	c0.4-0.6,0.6-1.2,0.6-1.8c0-0.7-0.2-1.3-0.6-1.8s-1-0.9-1.9-1.3c-0.6-0.2-1.8-0.6-3.8-1c-2-0.5-3.3-0.9-4.1-1.3
	c-1-0.5-1.8-1.2-2.3-2c-0.5-0.8-0.7-1.7-0.7-2.7c0-1.1,0.3-2.1,0.9-3c0.6-0.9,1.5-1.6,2.7-2.1c1.2-0.5,2.5-0.7,3.9-0.7
	c1.6,0,3,0.3,4.2,0.8c1.2,0.5,2.1,1.3,2.8,2.3s1,2.1,1,3.4l-2.7,0.2c-0.1-1.3-0.6-2.4-1.5-3.1c-0.8-0.7-2.1-1-3.7-1
	c-1.7,0-2.9,0.3-3.7,0.9c-0.8,0.6-1.2,1.4-1.2,2.3c0,0.8,0.3,1.4,0.8,1.9c0.5,0.5,2,1,4.3,1.5s3.9,1,4.7,1.4
	c1.2,0.6,2.2,1.3,2.7,2.2c0.6,0.9,0.9,1.9,0.9,3c0,1.1-0.3,2.2-1,3.2c-0.6,1-1.6,1.8-2.8,2.3c-1.2,0.6-2.6,0.8-4.1,0.8
	c-1.9,0-3.5-0.3-4.8-0.8c-1.3-0.6-2.3-1.4-3.1-2.5C154.7,347.8,154.3,346.5,154.3,345.1z M180.2,341.6c0-3.5,1-6.3,2.8-8.3
	c1.9-2,4.4-3,7.4-3c2,0,3.7,0.5,5.3,1.4c1.6,0.9,2.8,2.3,3.6,3.9c0.8,1.7,1.2,3.6,1.2,5.7c0,2.2-0.4,4.1-1.3,5.8
	c-0.9,1.7-2.1,3-3.7,3.9s-3.3,1.3-5.2,1.3c-2,0-3.8-0.5-5.4-1.5c-1.6-1-2.8-2.3-3.6-4C180.6,345.2,180.2,343.5,180.2,341.6z
	 M183.1,341.6c0,2.6,0.7,4.6,2.1,6.1c1.4,1.5,3.1,2.2,5.2,2.2c2.1,0,3.9-0.7,5.2-2.2c1.4-1.5,2.1-3.6,2.1-6.4c0-1.7-0.3-3.3-0.9-4.6
	c-0.6-1.3-1.4-2.3-2.6-3c-1.1-0.7-2.4-1.1-3.8-1.1c-2,0-3.7,0.7-5.2,2.1C183.8,336.1,183.1,338.4,183.1,341.6z M3.5,351.4v-21.4h7.3
	c1.7,0,2.9,0.1,3.8,0.3c1.2,0.3,2.3,0.8,3.1,1.5c1.1,1,2,2.2,2.5,3.6c0.6,1.5,0.8,3.2,0.8,5.1c0,1.6-0.2,3.1-0.6,4.3
	c-0.4,1.3-0.9,2.3-1.5,3.1s-1.2,1.5-1.9,1.9c-0.7,0.5-1.6,0.8-2.5,1.1c-1,0.2-2.1,0.4-3.4,0.4H3.5z M6.3,348.9h4.6
	c1.4,0,2.5-0.1,3.3-0.4c0.8-0.3,1.4-0.6,1.9-1.1c0.7-0.7,1.2-1.6,1.6-2.7c0.4-1.1,0.6-2.5,0.6-4.1c0-2.2-0.4-4-1.1-5.1
	c-0.7-1.2-1.6-2-2.7-2.4c-0.8-0.3-2-0.4-3.6-0.4H6.3V348.9z M30.1,341c0-3.5,1-6.3,2.8-8.3c1.9-2,4.4-3,7.4-3c2,0,3.7,0.5,5.3,1.4
	c1.6,0.9,2.8,2.3,3.6,3.9c0.8,1.7,1.2,3.6,1.2,5.7c0,2.2-0.4,4.1-1.3,5.8c-0.9,1.7-2.1,3-3.7,3.9s-3.3,1.3-5.2,1.3
	c-2,0-3.8-0.5-5.4-1.5c-1.6-1-2.8-2.3-3.6-4C30.5,344.7,30.1,342.9,30.1,341z M33,341.1c0,2.6,0.7,4.6,2.1,6.1
	c1.4,1.5,3.1,2.2,5.2,2.2c2.1,0,3.9-0.7,5.2-2.2c1.4-1.5,2.1-3.6,2.1-6.4c0-1.7-0.3-3.3-0.9-4.6c-0.6-1.3-1.4-2.3-2.6-3
	c-1.1-0.7-2.4-1.1-3.8-1.1c-2,0-3.7,0.7-5.2,2.1C33.7,335.6,33,337.9,33,341.1z"/>
<path id="devr" fill="#FFFFFF" d="M37.1,254.2v-41.7h13.1c3,0,5.2,0.2,6.8,0.6c2.2,0.5,4,1.5,5.6,3c2,1.9,3.5,4.2,4.5,7.1
	c1,2.9,1.5,6.2,1.5,9.9c0,3.2-0.3,6-1,8.4c-0.7,2.4-1.5,4.5-2.6,6.1s-2.2,2.9-3.5,3.8c-1.3,0.9-2.8,1.6-4.5,2.1
	c-1.8,0.5-3.8,0.7-6.1,0.7H37.1z M42.1,249.3h8.1c2.5,0,4.5-0.3,5.9-0.8c1.4-0.5,2.6-1.2,3.4-2.2c1.2-1.3,2.1-3.1,2.8-5.3
	c0.7-2.2,1-4.9,1-8c0-4.4-0.7-7.7-2-10.1c-1.3-2.3-2.9-3.9-4.8-4.7c-1.4-0.6-3.5-0.9-6.5-0.9h-8V249.3z M75.6,253.9v-41.7h27.5v4.9
	H80.6v12.8h21.1v4.9H80.6V249H104v4.9H75.6z M113.3,253.8l-5.8-41.7h5.5l3.6,25.5l1.1,7.6l15.3-33h5.1l-19.6,41.7H113.3z
	 M147.9,254.5v-42.3h15.8c3.2,0,5.6,0.4,7.3,1.1c1.7,0.8,3,2.1,4,4c1,1.9,1.5,4,1.5,6.4c0,3-0.1,5.6-1.7,7.7c-1.5,2-2.3,2.4-3.3,2.7
	c1.3,0,4.4,1.6,4.5,4.7c0,1.6,0.4,15.3,0.4,15.3l-5.6,0c0,0,0.1-7.9,0-13.2c0-1.6-0.3-2.8-0.7-3.4c-1.3-1.6-4.8-0.9-6.9-1.1
	c-2.1,0-4.4,0-5,0h-5v17.9H147.9z M152.8,231.5h9.2c2.1,0,3.7-0.3,4.8-0.8c1.2-0.5,2-1.3,2.6-2.5c0.6-1.1,0.9-2.4,0.9-3.7
	c0-1.9-0.6-3.5-1.7-4.8s-3-1.9-5.5-1.9h-10.3V231.5z"/>
<polygon id="i" fill="#FF1800" points="134.9,254.1 129.7,254.1 140.6,212.3 145.3,212.2 "/>
</svg>
