<?xml version="1.0" encoding="utf-8"?>
<!-- Generator: Adobe Illustrator 18.0.0, SVG Export Plug-In . SVG Version: 6.00 Build 0)  -->
<!DOCTYPE svg PUBLIC "-//W3C//DTD SVG 1.1//EN" "http://www.w3.org/Graphics/SVG/1.1/DTD/svg11.dtd">
<svg version="1.1" id="marca_x5F_devir" xmlns="http://www.w3.org/2000/svg" xmlns:xlink="http://www.w3.org/1999/xlink" x="0px"
	 y="0px" viewBox="0 0 261 261" enable-background="new 0 0 261 261" xml:space="preserve">
<rect id="fundo_x5F_cinza" x="-0.8" width="262.5" height="261"/>
<polygon id="traco_x5F_white" fill="#FFFFFF" points="80,183.1 74.1,183.1 116.5,96.5 123.1,96.5 "/>
<path id="traco_x5F_red" fill="#FF1800" d="M215.3,192.2l-93.9,0l-4.2-0.1l28.1-138.4l-21,40.4l-6.6,0.1l35.2-73.5l6.9-0.1
	l-34.1,164.7l89.7,0L215.3,192.2z M79.1,185.2l-5.9-0.1l-26.3,53.8l5.6,0.1L79.1,185.2z"/>
<path id="devr" fill="#FFFFFF" d="M75.3,236.6v-35.8h11.3c2.5,0,4.5,0.2,5.8,0.5c1.9,0.5,3.5,1.3,4.8,2.6c1.7,1.6,3,3.6,3.9,6.1
	c0.9,2.5,1.3,5.3,1.3,8.5c0,2.7-0.3,5.1-0.9,7.2c-0.6,2.1-1.3,3.8-2.2,5.2c-0.9,1.4-1.9,2.5-3,3.2c-1.1,0.8-2.4,1.4-3.9,1.8
	c-1.5,0.4-3.3,0.6-5.2,0.6H75.3z M79.6,232.4h7c2.2,0,3.8-0.2,5.1-0.7c1.2-0.4,2.2-1.1,2.9-1.9c1-1.1,1.8-2.6,2.4-4.5
	c0.6-1.9,0.9-4.2,0.9-6.9c0-3.7-0.6-6.6-1.7-8.6c-1.1-2-2.5-3.4-4.1-4c-1.2-0.5-3-0.7-5.6-0.7h-6.9V232.4z M108.3,236.3v-35.8h23.6
	v4.2h-19.3v11h18.1v4.2h-18.1v12.2h20.1v4.2H108.3z M140.7,236.3l-5-35.8h4.7l3.1,21.9l1,6.6l13.1-28.4h4.4l-16.8,35.8H140.7z
	 M170.4,236.8v-36.3H184c2.7,0,4.8,0.3,6.2,1c1.4,0.7,2.6,1.8,3.4,3.5c0.9,1.7,1.3,3.5,1.3,5.5c0,2.6-0.1,4.8-1.4,6.6
	c-1.3,1.7-2,2.1-2.8,2.4c1.2,0,3.7,1.4,3.8,4c0,1.4,0.3,13.2,0.3,13.2l-4.8,0c0,0,0.1-6.8,0-11.3c0-1.4-0.3-2.4-0.6-2.9
	c-1.1-1.3-4.1-0.8-5.9-0.9c-1.8,0-3.8,0-4.3,0h-4.3v15.4H170.4z M174.6,217.1h7.9c1.8,0,3.1-0.2,4.1-0.7c1-0.4,1.7-1.1,2.3-2.1
	c0.5-1,0.8-2,0.8-3.2c0-1.7-0.5-3-1.5-4.1s-2.6-1.6-4.7-1.6h-8.8V217.1z"/>
<polygon id="i" fill="#FF1800" points="159.3,236.5 154.8,236.5 164.1,200.6 168.2,200.6 "/>
</svg>
